<svg xmlns="http://www.w3.org/2000/svg" preserveAspectRatio="xMinYMin slice" width="3500" height="1340"><defs><clipPath><path d="M0 980h1400V0H0v980z"/></clipPath><clipPath id="a"><path d="M42.936 700.188h187.217V590.553H42.936v109.635z"/></clipPath><clipPath id="b"><path d="M927.512 845.306h178.028v-112.11H927.512v112.11z"/></clipPath><clipPath id="c"><path d="M467.984 930.662h178.104V821.857H467.984v108.805z"/></clipPath><clipPath id="d"><path d="M1170.11 618.77h150.17v-90.757h-150.17v90.758z"/></clipPath><clipPath><path d="M0 980h1400V0H0v980z"/></clipPath><clipPath id="e"><path d="M66.936 713.518h187.217V603.884H66.936v109.634z"/></clipPath><clipPath id="f"><path d="M927.512 845.306h178.028v-112.11H927.512v112.11z"/></clipPath><clipPath id="g"><path d="M467.984 930.662h178.104V821.857H467.984v108.805z"/></clipPath><clipPath id="h"><path d="M1170.11 618.77h150.17v-90.757h-150.17v90.758z"/></clipPath></defs><g><path d="M.857 1087.597h3496.856V0H.857z" fill="#f8daa6"/><g><g><path d="M509.208 389.502c.01-5.083.89-9.826 3.424-13.84 3.92-6.21 12.69-8.92 19.575-6.385 3.59 1.32 5.692.847 8.365-1.988 16.492-17.498 36.92-23.807 60.064-18.214 24.153 5.838 39.5 21.794 45.978 45.8 1.684 6.245 1.75 12.93 2.607 19.807 2.784-.354 5.716-.71 8.646-1.106 17.975-2.414 35.526 10.706 38.78 28.592 1.968 10.808-.573 20.613-7.12 28.82-7.103 8.906-16.934 13.414-28.672 13.37-36.423-.143-72.85-.14-109.275-.192-14.286-.02-28.572.07-42.856-.087-22.59-.247-42.87-18.94-45.168-41.454-2.75-26.92 14.962-48.965 42.127-52.462 1.545-.196 3.066-.573 3.525-.662" fill="#e8e8e8" fill-rule="evenodd" clip-path="url(#a)" opacity=".7"/></g><g><path d="M1708.35 210.153c16.21-7.695 31.497-7.627 44.547 5.26 13.137 12.973 12.524 28.498 5.787 45.082 3.88 0 7.006-.11 10.12.02 11.448.467 20.108 7.712 22.313 18.564 1.99 9.798-3.39 20.334-13.283 24.74-3.22 1.434-7.114 1.844-10.707 1.86-31.198.136-62.396.077-93.595.077-22.913-.005-45.823.02-68.736-.016-19.714-.032-35.72-15.872-35.8-35.342-.08-19.355 16.018-35.42 35.64-35.562 2.583-.02 5.168-.002 8.585-.002-5.83-18.303-4.843-35.138 6.825-50.252 7.422-9.62 17.197-15.69 29.056-18.12 14.264-2.928 27.37.333 39.102 8.69 11.758 8.37 17.124 20.772 20.15 35" fill="#e8e8e8" fill-rule="evenodd" clip-path="url(#b)" opacity=".7"/></g><g><path d="M1189.125 148.193c5.775 1.435 11.034 1.89 15.495 4.02 10.043 4.804 14.46 15.153 11.866 25.625-2.422 9.775-11.317 16.62-21.98 16.9-1.574.04-3.15.007-4.72.007-53.1 0-106.197.066-159.295-.043-14.916-.03-25.93-7.156-32.283-20.52-6.342-13.34-4.145-26.092 4.95-37.578 3.988-5.034 9.198-8.592 15.32-10.59 2.41-.786 3.095-2.11 3.158-4.57.826-32.57 23.015-58.298 54.924-62.387 29.574-3.79 56.815 13.665 66.692 42.035 2.16 6.204 2.145 6.208 8.648 5.806 19.492-1.205 36.737 14.604 37.216 34.137.063 2.596.01 5.195.01 7.158" fill="#e8e8e8" fill-rule="evenodd" clip-path="url(#c)" opacity=".7"/></g><g><path d="M2017.24 506.426c6.618-.314 12.675-1.442 18.5-.71 14.698 1.843 25.16 15.337 24.153 30.058-.99 14.512-13.047 26.404-27.567 26.74-11.783.27-23.58.08-35.375.08-29.614.004-59.225.064-88.84-.023-17.223-.048-30.932-11.068-34.95-27.79-5.37-22.356 13.56-44.696 36.476-43.046 5.587.4 5.587.4 7.19-5.15 6.058-20.943 24.424-35.852 46.123-37.432 20.358-1.484 40.688 10.618 49.545 29.672 3.367 7.24 4.59 15.01 4.74 22.957.033 1.688.004 3.374.004 4.646" fill="#e8e8e8" fill-rule="evenodd" clip-path="url(#d)" opacity=".7"/></g><g><path d="M1164.922 656.235c.01-5.083.89-9.826 3.424-13.84 3.92-6.21 12.69-8.92 19.575-6.385 3.59 1.32 5.693.847 8.366-1.988 16.492-17.497 36.918-23.806 60.063-18.213 24.153 5.837 39.5 21.793 45.978 45.8 1.684 6.244 1.75 12.928 2.607 19.806 2.783-.354 5.715-.71 8.645-1.106 17.975-2.414 35.526 10.706 38.78 28.592 1.968 10.81-.573 20.614-7.12 28.82-7.103 8.907-16.934 13.415-28.672 13.37-36.423-.142-72.85-.138-109.275-.19-14.285-.022-28.57.068-42.855-.088-22.59-.248-42.87-18.94-45.168-41.455-2.75-26.92 14.962-48.966 42.127-52.463 1.545-.196 3.066-.573 3.525-.662" fill="#e8e8e8" fill-rule="evenodd" clip-path="url(#e)" opacity=".7"/></g><g><path d="M3008.35 413.416c16.21-7.695 31.497-7.627 44.547 5.26 13.137 12.973 12.524 28.498 5.787 45.082 3.88 0 7.006-.11 10.12.02 11.448.467 20.108 7.712 22.313 18.564 1.99 9.8-3.39 20.335-13.283 24.742-3.22 1.433-7.114 1.843-10.707 1.858-31.198.137-62.396.078-93.595.078-22.913-.005-45.823.02-68.736-.016-19.714-.033-35.72-15.873-35.8-35.343-.08-19.354 16.017-35.42 35.64-35.56 2.583-.02 5.168-.003 8.585-.003-5.83-18.303-4.843-35.138 6.825-50.252 7.422-9.62 17.197-15.69 29.056-18.12 14.264-2.928 27.37.333 39.102 8.69 11.758 8.37 17.124 20.772 20.15 35" fill="#e8e8e8" fill-rule="evenodd" clip-path="url(#f)" opacity=".7"/></g><g><path d="M2489.125 351.456c5.775 1.435 11.034 1.89 15.495 4.02 10.043 4.804 14.46 15.153 11.866 25.625-2.422 9.776-11.317 16.622-21.98 16.9-1.573.04-3.148.008-4.72.008-53.098 0-106.197.066-159.295-.043-14.916-.03-25.93-7.156-32.282-20.52-6.343-13.34-4.145-26.092 4.95-37.578 3.987-5.034 9.197-8.592 15.318-10.59 2.41-.786 3.097-2.11 3.16-4.57.825-32.57 23.014-58.298 54.923-62.387 29.574-3.79 56.815 13.665 66.693 42.035 2.158 6.204 2.144 6.208 8.647 5.806 19.493-1.204 36.738 14.605 37.216 34.138.063 2.596.01 5.195.01 7.158" fill="#e8e8e8" fill-rule="evenodd" clip-path="url(#g)" opacity=".7"/></g><g><path d="M3317.24 709.69c6.618-.315 12.675-1.443 18.5-.712 14.698 1.844 25.16 15.338 24.153 30.06-.99 14.51-13.047 26.403-27.567 26.738-11.783.272-23.58.08-35.374.08-29.616.005-59.227.065-88.842-.022-17.223-.05-30.932-11.07-34.95-27.79-5.37-22.357 13.562-44.697 36.477-43.047 5.586.4 5.586.4 7.19-5.15 6.057-20.943 24.423-35.852 46.122-37.432 20.358-1.484 40.688 10.618 49.545 29.672 3.367 7.24 4.59 15.01 4.74 22.957.033 1.687.004 3.373.004 4.645" fill="#e8e8e8" fill-rule="evenodd" clip-path="url(#h)" opacity=".7"/></g></g><path d="M3135.685 73.32v41.257h-2.44v114.25h-1.81V189.95h-4.848v44.736h-3V159.5h-4.846v75.186h-7.813v111.87h-19.57V509.96h-24.445v174.337h-.22v15.225h-5.406v-45.174h4.313v-9.117h-4.314v-16.258h-6.315v-10.15h-5.064v-6.046h-2.78v-8.145h-5.597V590.44h-2.002v-6.61h-6.72v-4.574h-4.034v-10.12h-4.314v10.12h-4.063v4.574h-6.72v6.61h-2.002v14.192h-5.564v8.144h-2.813v6.046h-5.063v10.15h-6.315v16.26h-4.315v9.116h4.314v45.174h-5.378v-15.225h-28.228v15.225h-5.658v219.23h-6.033V506.92h-18.193v-14.474h-27.666v14.473h-18.193v200.12h-10.815v-19.172h-19.132v-13.19h-4.188v-11.997h-4.784v-5.983h-11.97V599.21h-4.784v57.487h-1.5v-7.77h-5.97v7.77h-9.254v5.984h-7.784v12h-16.162v13.188h-16.41v-74.246h-23.352v-8.99h-50.267v-39.473h-44.92v39.47h-50.3v8.992h-23.32V918.72h-6.906V589.593h-8.597V552.91h-4.938v-13.722h-4.065v-8.552h3v-4.73h-3v-31.297h-8.846l-22.163-29.51-22.163 29.51h-8.847v31.295h-3v4.73h3v8.553h-4.063v13.72h-4.94v36.686h-8.596V918.72h-10.065V212.63l-5.596-.72v-57.015l-.157.03c-2.126-4.692-26.783-2.37-55.8 5.357-27.01 7.2-48.43 16.594-50.828 21.99l-.25.06v15.57l-9.066-1.19v28.29h-8.816v131.73h-13.848v4.73h-6.16l.002 174.12h-44.11v117.29h-8.814v220.92h-12.942v-17.387h-.28l-28.73-29.98-1 .97-27.758 29.01h-1.25v17.386h-8.285l-32.825-44.39c2.653 3.152 6.628 5.2 11.1 5.2 8 0 14.503-6.54 14.503-14.566v-15.1c0-.697-.06-1.413-.156-2.068 4.98-6.176 9.467-12.723 13.473-19.61 1.803.795 3.82 1.252 5.94 1.252 8.01 0 14.472-6.52 14.472-14.536v-15.1c0-4.06-1.655-7.732-4.313-10.37 1.567-5.834 2.838-11.82 3.72-17.887 7.776-.25 14.004-6.636 14.004-14.504v-15.1c0-7.767-6.092-14.114-13.723-14.504-.905-6.724-2.216-13.305-3.908-19.705 2.61-2.65 4.22-6.27 4.22-10.274v-15.07c0-8.04-6.5-14.534-14.504-14.534-2.05 0-3.968.412-5.72 1.16-4.06-6.975-8.608-13.62-13.63-19.863.06-.58.09-1.184.09-1.755v-15.1c0-8.025-6.474-14.536-14.473-14.536-4.74 0-8.907 2.265-11.567 5.763-8.016-6.284-16.625-11.82-25.758-16.446v-9.618c0-8.042-6.51-14.537-14.504-14.537-7.464 0-13.61 5.652-14.442 12.907-9.02-2.536-18.385-4.29-28.01-5.17v-8.238c0-8.05-6.51-14.505-14.503-14.505-8.02 0-14.506 6.464-14.506 14.505v8.24c-9.632.88-19.01 2.632-28.073 5.168-.814-7.255-6.914-12.907-14.38-12.907-8.01 0-14.504 6.495-14.504 14.536v9.617c-10.378 5.273-20.077 11.662-28.978 19.015-2.295-4.933-7.293-8.333-13.098-8.333-8.015 0-14.504 6.51-14.504 14.535v15.1c0 2.212.51 4.32 1.406 6.203-3.674 4.923-7.094 10.06-10.192 15.38-1.762-.746-3.694-1.158-5.72-1.158-8.004 0-14.505 6.51-14.505 14.567v15.07c0 3.994 1.616 7.63 4.25 10.274-1.704 6.42-3.056 12.984-3.937 19.706-7.664.39-13.755 6.706-13.755 14.474v15.13c0 7.86 6.233 14.248 14.037 14.505.88 6.068 2.16 12.06 3.72 17.888-2.683 2.645-4.314 6.3-4.314 10.37v15.1c0 8.015 6.5 14.535 14.505 14.535 2.1 0 4.103-.474 5.907-1.253 3.08 5.272 6.476 10.352 10.13 15.194-.965 1.954-1.532 4.18-1.532 6.484v15.1c0 8.026 6.49 14.536 14.504 14.536 5.92 0 11-3.533 13.255-8.647 1.05.887 2.087 1.754 3.188 2.6l-12.817 17.356c-11.638-5.152-24.972-8.388-39.262-8.836-46.473-1.443-87.147 31.585-88.122 62.624-.244 8.18 1.614 14.552 5.5 19.047h-42.294c.46-5.373.824-10.718.906-16.07.1-5.084-.78-10.2-.688-15.29.51.34 1.15.564 1.876.564.26 0 .53-.05.78-.06.96.73 1.95 1.252 2.847 1.252.79 0 .34-.902-.344-1.848.686-.266 1.31-.67 1.876-1.128 1.142.547 2.37.908 3.594.908h1.064c.774 0 1.563-.47 1.563-1.316 0-.397-.135-.77-.312-1.16.822.258 1.66.377 2.5.377h2.126c1.83 0 5.433-.802 4.722-3.446-.166-.592-.546-1.137-1.002-1.567l.187-.09c.34-.26.654-.526 1.002-.783.52-.456.9-1.01 1.092-1.692V876.93c.616-.383 1.158-.945 1.22-1.723.05-.546-.187-1.043-.564-1.472-.02-.473-.12-.986-.25-1.472 2.49-2.238 3.242-6.04-.22-6.986.818-.29 1.314-1.112 1.314-1.974v-.407c1.397-1.318 1.75-2.507-.562-2.6 1-.695 1.842-1.565 2.25-2.726.117-.347.163-.697.188-1.002.39-.07.756-.17.844-.47.178-.595-1.054-1.246-1.375-1.41l-.06-.03c-.16-.223-.33-.45-.563-.658l-.125-.25-.157-.19c2.386-1.54 1.62-5.608-1.314-6.578 1.34-.962 2.23-2.466 2-4.166-.05-.357-.226-.652-.437-.94-.194-.647-.846-1.17-1.47-1.41v-.187c0-.714-.655-1.418-1.093-1.88-.403-.4-.883-.764-1.376-1.097.6-.05 1.215-.14 1.782-.282.178-.04 1.26-.272 1.22-.72-.06-.53-.505-.958-.876-1.316-.22-.24-.65-.34-1.063-.44l.375-.53c.34-.357-.143-1.154-.312-1.442-.507-.854-1.195-1.62-1.907-2.318-.292-.283-.6-.55-.906-.814.29-.185.485-.378.47-.627-.04-1.143-3.076-1.07-4.065-1.034l.03-.19V827.278c.814-1.21-.04-2.585-1.094-3.414.795.02 1.56-.08.625-.627-.828-.515-1.763-.88-2.72-1.16.535-1.136-1.24-1.848-2.282-1.848l-.562.03c.448-.333.733-.713.845-1.16.22-.06.453-.124.688-.156 1.792-.275-.33-3.203-.75-3.665-1.123-1.263-2.927-2.71-4.75-2.445l-.532.09c-.695-.797-2.72-2.164-3.69-2.443l-.03-.06c-.838-1.03-2.24-1.694-3.53-1.065l-.06.03c-.688-.382-1.346-.59-1.658-.282l-.22.282-.5-.125c-.153-.366-.322-.712-.562-1.034-.794-1.07-2.178-.975-3.22-.345-.338.18-.716.532-1.03.94l-.407-.22c-.635-.282-1.908-.53-1.594.563.07.284.174.54.28.815-.404-.287-.897-.546-1.406-.688-.48-.123-1.01-.144-1.468 0l-.345.156c-.306-.18-.615-.314-.937-.44-.22-.107-.754-.31-.97-.03-.194.25.115.767.25.94.376.5.75.944 1.22 1.348-.8-.266-1.584-.5-1.907-.5-1.212 0-.544.49.53.938-.6.2-1.168.42-1.218.596-.29.02-.54.09-.814.187-.25.02-.35.114-.343.187-.487.34-.806.83-.78 1.535.03.43.116.84.25 1.22-.755.582-1.087 1.39-1.063 2.32-.285-.317-.567-.578-.906-.784-.307-.192-.205.327-.19.376.1.406.253.778.44 1.16-.89.02-1.77.376-2.19 1.19l-.155.406c-.526-.422-1.232-.873-1.187-.407.04.364.175.718.344 1.067.27.555.61 1.078 1 1.566-.583.14-.75.723-.75 1.378-.27-.007-.56.01-.78.06-.688.117-1.305.485-1.815.94-.42.415-.76.96-.844 1.567-.248 0-.467.04-.593.188v.752c.115.356.215.732.344 1.096.08.282.216.52.376.752-.37.354-.585.826-.72 1.316v2.006c.01.03-.01.06 0 .09 0 0-1.425.473-1.25 1.597.175 1.125-.04 2.254 2.282 5.17 2.32 2.914-2.145 1.882-1.97 3.007.175 1.125.356 3.32 3.033 3.728 2.677.41 1.42 2.166.532 3.383-.886 1.218-2.74-.74-3.064 3.008-.322 3.747-.844 2.16-.187 3.76.66 1.6.735 2.55 1.627 3.728.892 1.178.338.52.156 2.287-.18 1.766-.938 1.7-1.626 3.383-.687 1.682.416 3.416 1.595 4.793 1.18 1.376 1.512 1.914 1.97 3.727.457 1.813.608 1.93.156 3.383-.453 1.454-.744 1.168 2.312 3.384 3.057 2.215-1.54 1.452-1.25 3.007.29 1.557 4.095 2.664 4.095 2.664.586 1.49 2.38 2.618 3.876 2.694.485.03.978.02 1.47.06 1.06-.08 2.06-.35 3-.815l.596-.345.25.125c.99.52 1.96.747 3.03.846.1 4.178.63 8.38.565 12.624-.103 5.67-.434 11.378-.907 17.074h-20.287v.783c-5.27-.122-72.202-1.632-71.9 1.536h-6.064V904.39c0-.443-.37-.784-.812-.784h-.438v-3.82h1.22c.448 0 .78-.338.78-.784v-2.507c0-.45-.333-.814-.78-.814h-1.22v-3.257c0-.455-.37-.815-.812-.815h-1.688l-5.095-4.636c.593-.56.937-1.35.937-2.193 0-1.673-1.36-3.04-3.032-3.04-1.684 0-3.064 1.358-3.064 3.04 0 .794.314 1.56.845 2.098l-5.002 4.73h-1.687c-.435 0-.544.427-.782.815v3.258h-1.217c-.442 0-.812.366-.812.815v2.507c0 .39.932.71.876.783h1.156v3.82h-.47c-.443 0-.728.345-.78.784v16.666h-12.567c.04-.01.07-.004.09-.03.145-.104.35-.27.563-.532.168-.08.456-.235.594-.658.11-.276.04-.57-.09-.846.33-.81.165-1.302-.125-1.786-.01-.06 0-.11 0-.22.01-.14 0-.252-.03-.564v-.125l.406-.44c.304-.31.317-.816 0-1.127l-.813-.752c-.32-.317-.82-.286-1.126.03l-10.973 11.654h-6.47l-1.906 2.036h-2.47l-5.438-5.138 3-3.226-2.78-2.632-3.003 3.227-6.752-6.36 3.033-3.226-2.782-2.63-3.03 3.226-6.785-6.36 3.033-3.226-2.752-2.632-3.032 3.227-6.752-6.36 3-3.226-2.782-2.633-3.03 3.227-6.722-6.39 3-3.196-2.78-2.632-3.033 3.196-6.753-6.36 3.033-3.226-2.783-2.6-3 3.195-6.784-6.36 3.032-3.225-6.846-6.454-1.78-1.66c-.146-.15-.327-.25-.533-.25-.193-.03-.462.106-.624.25l-1.47 1.63c-.16.166-.263.38-.25.596l-4.406 4.7c-.21.007-.412.09-.564.25l-1.125 1.19c-.1.1-.184.23-.218.376-.14.04-.215.1-.313.188l-.595.627c-.15.152-.22.348-.22.563.01.207.107.45.25.595l61.24 57.768h-5.44c-.457 0-.726.35-.814.783v9.962h-26.507v20.99H1452.76V934.65c0-.25-.1-.478-.28-.626l-1.908 1.817h-8.72l6.563-6.202 1.782 1.88 2.782-2.632-1.782-1.88 6.752-6.358 1.78 1.88 2.784-2.632-1.783-1.88 6.754-6.36 1.782 1.88 2.782-2.63-1.782-1.912 6.752-6.33 1.783 1.88 2.782-2.63-1.78-1.91 6.75-6.36 1.782 1.91 2.782-2.63-1.78-1.912 6.75-6.36 1.783 1.91 2.78-2.63-1.78-1.91 6.75-6.36 1.784 1.91 2.78-2.63-1.78-1.912 5.408-5.075-1-1.097c-.152-.16-.375-.245-.595-.25l-4.44-4.73c0-.21-.07-.398-.22-.564l-1.47-1.63c-.303-.3-.816-.336-1.155-.03l-9.722 9.18-14.036-14.943c-.143-.173-.47-.286-.594-.25-.21 0-.41.08-.563.22l-.375.345-.125.125-.28.282c-.332.317-.367.81-.06 1.127l.436.437c-.01.08-.02.17-.03.282-.01.17 0 .312 0 .438.01.107.02.16-.03.313-.242.417-.43.89-.156 1.505 0 .07-.02.134-.03.187-.04.25-.08.55 0 .846.146.38.45.53.625.627.194.268.386.42.53.532.146.09.147.08.19.187.407.808 1.553.797 1.875-.03.1-.27.11-.558.125-.877.01-.17.1-.277.22-.47l10.315 10.965-7.503 7.08-14.067-14.943c-.295-.327-.804-.36-1.126-.03l-.81.75c-.305.306-.305.797 0 1.128l.405.44c0 .08.01.17 0 .28-.02.166-.01.302 0 .44 0 .12 0 .16-.06.312-.232.41-.434.854-.156 1.504 0 .06-.02.15-.03.22-.03.25-.07.544.03.815.12.408.4.56.593.657.195.255.417.412.562.5.13.106.118.122.188.22.352.714 1.363 1.127 1.845-.06.1-.235.135-.478.156-.845.01-.18.08-.292.22-.47l10.284 10.964-7.502 7.08-14.036-14.943c-.31-.332-.845-.35-1.158-.03l-.78.72c-.147.147-.237.35-.25.564 0 .208.06.43.187.595l.436.44c-.01.07-.03.145-.03.25-.03.186-.01.328 0 .47.01.104.02.142-.03.282-.235.4-.43.9-.156 1.535 0 .06-.02.12-.03.188-.05.264-.06.54.03.846.144.374.41.545.594.626.2.28.4.436.532.532.138.1.146.12.188.19.317.737 1.45 1.14 1.906-.06.08-.268.07-.535.09-.847.01-.172.09-.29.22-.47l10.313 10.965-7.534 7.08-14.037-14.943c-.316-.317-.794-.342-1.124-.03l-.782.72c-.165.145-.282.35-.282.564-.02.216.09.443.25.596l.407.44c-.01.09-.02.158-.03.25-.01.18 0 .355 0 .5 0 .12-.01.14-.06.252-.235.416-.41.89-.125 1.535 0 .05-.02.157-.03.22-.04.243-.07.526.03.814.122.388.39.537.563.627.207.28.42.437.564.532.13.105.165.13.22.22.33.74 1.456 1.05 1.842-.06.105-.28.12-.53.126-.878 0-.165.07-.285.22-.47l10.315 10.995-7.503 7.08-14.068-14.974c-.16-.16-.46-.284-.594-.252-.185 0-.374.09-.53.22l-.376.345c-.01.007-.144.156-.156.156l-.28.28c-.318.306-.344.798-.03 1.13l.437.438c0 .08-.02.147-.03.25-.01.173-.01.314 0 .44.01.13 0 .175-.06.313-.23.417-.393.885-.125 1.536 0 .06-.02.12-.03.188-.05.256-.07.535 0 .846.154.38.415.542.594.626.207.268.424.435.563.532.143.1.13.104.186.22.358.725 1.48.998 1.845-.03.126-.302.152-.586.157-.877.02-.185.08-.314.22-.5l10.315 10.964-7.533 7.08-14.037-14.943c-.304-.318-.807-.36-1.126-.03l-.813.753c-.317.312-.327.81-.03 1.128l.437.44c-.02.103-.01.198-.03.28-.01.173 0 .307 0 .44.01.118-.01.16-.06.313-.234.407-.4.868-.124 1.504 0 .06-.02.15-.03.22-.05.25-.104.524 0 .815.13.386.42.545.594.627.2.275.418.44.563.53.132.11.14.1.19.188.387.838 1.487.898 1.874-.06.1-.27.11-.505.125-.814.01-.186.09-.31.22-.5l10.315 10.963-5.19 4.887 5.69 6.078-7.565 7.08-5.66-6.015v-9.367c0-.437-.338-.783-.78-.783h-.438v-1.597l-7.658-8.146c-.22-.246-.544-.3-.875-.188-.06-.02-.128-.03-.218-.03h-1.22v-3.258c0-.45-.38-.815-.812-.815h-1.688l-5.065-4.636c.577-.555.906-1.343.906-2.193 0-1.68-1.346-3.04-3.03-3.04-1.67 0-3.033 1.36-3.033 3.04 0 .788.302 1.568.844 2.13l-5.034 4.7h-1.687c-.44 0-.578.43-.813.814v3.258h-1.19c-.447 0-.812.36-.812.814v2.538c0 .394.965.71.906.783h1.095v3.823h-.438c-.45 0-.736.348-.782.783v18.953h-.47c-.45 0-.78.373-.78.814v2.506c0 .326.192.596.47.72h-.845c-.447 0-.78.36-.78.815v17.575h-1.283V654.42h-25.352v-4.292h-9.16v-5.294h-12.003v5.294h-21.163v4.292h-8.91v199.87l-26.04-12.25v-1.91h-1.53v-1.38h-1.596v-1.253h-1.937v1.253h-1.594v1.38h-1.53v1.91l-51.393 24.184v-.282h-1.25v-1.848h-.72v-1.535h-1.97v5.105h.595v9.367h-15.442V608.15h-10.942v-11.56h-32.417v11.56h-10.972v348.798h-8.752V636.97h-67.242v-13.658h-14.378v-18.014h-4.814v6.83h-8.722v-6.83h-1.75v-35.556h-2.22V605.3h-5.22v-46.742h-1.75v53.57h-11.786v-6.83h-4.813v18.014h-8.285v13.658h-48.89v177.69h-7.066v-5.67h-7.596v-9.587h-13.254v-9.586H930.05v9.586h-13.223v9.586h-7.596v5.67h-33.26v5.075h-6.064v7.894h6.064v129.82h-8.44V776.315h-5.658v-33.71h-4V721.9l-24.793-14.88v-3.103h-2.502l-.03-.47-.657-.313.188-3.602.282-3.79h.47s.13-4.27-.25-4.45c-.384-.187-1.283-.376-1.283-.376v-.532l.063-.25c.176-.2.312-.542.312-.91 0-.64-.35-1.19-.78-1.19-.446 0-.814.55-.814 1.19 0 .368.134.712.313.91l.064.25v.532s-.893.18-1.282.376c-.373.18-.22 4.45-.22 4.45h.47l.25 3.79.22 3.602-.658.313-.062.47h-2.5v3.102l-24.79 14.88v20.706h-4v33.71h-5.66V957.45h-6.25V616.42h-20.383V480.114h-16.32V386.79h-13.878v-66.257h-3.533v61.34h-4.064v-4.7h-.157V255.685h-7.253v61.496h-2.532v59.993h-5.69v-90.6h-2.03v-34.428h-5.566v34.43h-2.033v95.297h-1.5v-32.424h-4.033v37.342h-2.532v-62.717h-4.032v62.717h-6.503v93.324H665.62V616.42h-20.413v145.42h-.188v12.72h-4.502v-37.686h3.595v-7.613h-3.595v-13.564h-5.283v-8.458h-4.22v-5.075H628.7v-6.767h-4.656v-11.842h-1.688v-5.513h-5.596v-3.79h-3.376v-8.49h-3.595v8.49h-3.377v3.79h-5.596v5.514h-1.688v11.842h-4.66v6.767h-2.312v5.075h-4.22v8.458h-5.283v13.565h-3.595v7.614h3.595v37.686h-4.5v-12.72h-23.54v12.72h-4.72v182.89h-5.033V613.882H529.7V601.79h-23.1v12.092h-15.193v166.944h-9.003v-16.008H466.43v-10.996h-3.5v-9.994h-3.97v-5.012h-9.973v-47.962h-4.002v47.962h-1.25v-6.485h-4.97v6.486h-7.753v5.012h-6.47v9.994h-13.474v10.996h-13.723v-61.935H377.9v-7.487h-41.95V662.47h-37.48v32.926h-41.953v7.487h-19.443v254.535h-5.784V682.834h-7.19v-30.576h-4.094v-11.466h-3.377v-7.142h2.5v-3.947h-2.5v-26.096h-7.378l-18.506-24.623-18.506 24.623h-7.378v26.096h-2.5v3.947h2.5v7.142h-3.376v11.466h-4.126v30.576h-7.19v274.584h-8.378V368.37l-4.657-.595v-47.587l-.125.03c-1.775-3.914-22.373-1.934-46.578 4.51-22.536 6.004-40.388 13.817-42.39 18.328l-.187.03v13l-7.596-.97v23.59h-7.347V488.57H21.378v3.948H16.22v145.296H.87v476.52l3498.3 2.507V534.59h-38.418v212.995h-8.504v-6.798h-9.127v-11.465h-15.85v-11.53h-18.88v11.53h-15.88v11.465h-9.096v6.798h-39.858v6.078h-7.283v9.492h7.283v155.603h-10.128v-217.13h-6.783v-40.412h-4.783v-24.812l-29.728-17.856v-3.697h-2.97l-.06-.562-.782-.376.22-4.323.313-4.543h.594s.175-5.11-.282-5.326c-.46-.222-1.563-.47-1.563-.47v-.594l.09-.345c.213-.24.344-.625.344-1.064 0-.77-.424-1.41-.938-1.41-.535 0-.938.64-.938 1.41 0 .44.13.824.344 1.065l.09.346v.595s-1.063.24-1.533.47c-.446.217-.28 5.327-.28 5.327h.563l.312 4.542.25 4.322-.813.376-.06.563h-2.968v3.698l-29.73 17.856v24.812h-4.783v40.412h-6.815v217.13h-7.47v-408.79h-24.415V346.562h-19.6v-111.87h-16.63V155.31h-4.22v73.525h-4.877v-5.67h-.156V77.555h-8.69v73.714h-3.033v71.895h-6.877v-108.58h-2.406v-41.26zM-1718.06 977.748l6.41 6.83 2.344-2.225-4.627-4.918c-.145.2-.22.313-.22.5-.02.307-.02.576-.124.847-.318.92-1.55.875-1.906.03-.04-.06-.06-.08-.187-.188-.145-.09-.333-.24-.532-.5-.187-.08-.455-.267-.594-.69-.1-.247-.07-.52-.03-.783.01-.07.05-.164.06-.22-.16-.346-.21-.64-.156-.91h-.438zm81.872-47.71l.09.09c.104.115.154.237.188.375.137.04.277.07.375.188l.563.627c.326.332.3.862-.03 1.16l-4.815 4.54 2.345 2.476 6.752-6.39-4.126-4.354zm-6.41 9.616l-6.75 6.36 2.312 2.475 6.752-6.39zm-9.533 8.992l-6.754 6.36 2.314 2.474 6.752-6.36zm-9.536 8.99l-6.752 6.36 2.313 2.475 6.753-6.36zm-9.534 8.992l-6.752 6.36 2.312 2.474 6.753-6.36zm-9.534 8.99l-6.753 6.36 2.314 2.475 6.75-6.36zm-9.535 8.992l-6.75 6.36 2.312 2.474 6.753-6.36zm-9.534 8.99l-2.468 2.32h4.25c.193 0 .364.08.5.188l.03-.03zm103.972-66.163l1.094 1.034 1.095-1.16-1.095-1.033zm2.19-.125l1.936 1.817 9.222-9.774c.145.193.197.313.22.66 0 .17.02.426.124.69.406 1.12 1.538.772 1.876.03.04-.09.07-.09.19-.188.144-.1.354-.255.562-.532.157-.08.47-.244.594-.658.104-.278.05-.532 0-.783-.01-.08-.06-.17-.06-.09.29-.788.135-1.26-.156-1.724-.01-.07 0-.134 0-.25.01-.13.01-.246 0-.564-.01-.05-.03-.07-.03-.125l.437-.438c.14-.15.22-.38.22-.597-.01-.215-.1-.41-.25-.563l-.813-.752c-.33-.302-.82-.257-1.127.06zm1.936 1.817l-1.093 1.19 3.72 3.51 1.094-1.19zm5.41 7.3l1.03.97 1.063-1.158-1-.94zm2.093-.187l1.97 1.88 9.253-9.837c.13.182.207.307.22.596 0 .186.02.453.124.752.317.807 1.433.87 1.875.06.03-.11.05-.154.187-.25.14-.104.325-.233.53-.502.18-.08.467-.232.627-.658.07-.277.01-.535-.03-.783 0-.06.01-.16-.06-.06.31-.788.16-1.277-.125-1.755-.01-.08-.03-.14-.03-.25.01-.126.01-.266 0-.44-.01-.09.01-.16 0-.25l.405-.44c.32-.327.296-.85-.03-1.16l-.782-.72c-.163-.15-.37-.22-.563-.22h-.03c-.206.007-.41.09-.563.252zm1.97 1.88l-1.063 1.127 3.75 3.57 1.095-1.158zm5.47 7.33l.97.908 1.093-1.16-.97-.907zm2.063-.25l1.97 1.847 9.22-9.837c.146.184.215.32.22.595.01.21.01.477.09.783.318.813 1.52.818 1.876.03.06-.11.08-.127.188-.22.16-.104.362-.256.562-.532.165-.07.443-.235.594-.627.1-.285.05-.59 0-.846-.01-.06 0-.124-.03-.06.28-.775.112-1.248-.156-1.722-.01-.06-.03-.08-.03-.188.01-.146.03-.293 0-.5 0-.08.01-.145 0-.22l.406-.47c.13-.153.25-.352.25-.564-.01-.207-.138-.418-.28-.563l-.782-.752c-.14-.143-.28-.148-.563-.22-.22 0-.416.1-.563.252zm1.97 1.847l-1.095 1.16 3.814 3.602 1.094-1.16zm5.5 7.393l.907.846 1.095-1.16-.906-.845zm2.002-.313l1.938 1.85 9.222-9.838c.15.186.21.326.22.5 0 .01.03.22.03.22.01.187.04.424.124.628.422 1.174 1.54.762 1.845.06.05-.1.09-.122.22-.22.138-.1.324-.237.53-.5.173-.08.48-.252.626-.66.08-.277.04-.556 0-.813-.02-.07-.07-.118-.09-.06.32-.775.165-1.274-.125-1.723-.01-.08 0-.13 0-.252 0-.13.01-.256 0-.532 0-.05-.03-.1-.03-.156l.407-.44c.317-.34.315-.845-.03-1.158l-.75-.72c-.16-.147-.385-.22-.594-.22-.2 0-.42.09-.564.25zm1.938 1.85l-1.063 1.127 3.908 3.696 1.062-1.128zm5.596 7.455l.844.783 1.094-1.16-.844-.782zm1.937-.376l1.97 1.848 9.222-9.805c.14.194.204.328.22.658.01.195.02.41.09.658.42 1.17 1.553.81 1.905.06.04-.09.03-.1.156-.187.145-.11.376-.277.564-.532.17-.08.466-.242.625-.69.07-.25.03-.51 0-.752-.01-.05-.05-.137-.06-.125.264-.767.12-1.227-.156-1.692-.02-.07-.03-.116-.03-.22.01-.145.04-.278 0-.596v-.126l.437-.44c.284-.325.27-.855-.06-1.158l-.78-.72c-.312-.318-.825-.276-1.127.03zm1.97 1.848l-1.094 1.16 3.97 3.727 1.062-1.16zm5.66 7.52l.78.72 1.062-1.128-.78-.72zm1.842-.408l1.94 1.848 9.25-9.837c.152.194.212.312.22.595.01.2.02.492.126.783.422 1.122 1.482.763 1.876 0 .05-.102.06-.1.188-.187.13-.11.33-.265.53-.532.166-.08.47-.256.595-.658.1-.276.06-.534 0-.783 0-.06.02-.14-.03-.06.318-.79.124-1.298-.157-1.754-.01-.06 0-.09 0-.22.01-.14.03-.277 0-.47-.01-.07-.03-.17-.03-.252l.406-.44c.318-.33.3-.854-.03-1.158l-.783-.72c-.33-.32-.853-.28-1.156.03zm1.94 1.848l-1.065 1.128 4.003 3.79 1.062-1.16zm5.72 7.55l.72.69 1.06-1.128-.718-.69zm1.78-.438l1.97 1.848 9.253-9.837c.132.185.2.302.22.595 0 .213.02.458.09.72.435 1.177 1.577.783 1.876.06.05-.104.07-.13.22-.218.144-.104.344-.232.53-.5.16-.08.455-.253.594-.66.09-.277.06-.557.03-.813-.02-.06-.01-.16-.06-.06.318-.803.12-1.27-.156-1.724v-.25c0-.138.01-.267 0-.44-.01-.09-.03-.185-.03-.282l.438-.44c.305-.318.285-.81-.03-1.127l-.812-.752c-.316-.29-.82-.258-1.125.06zm1.97 1.848l-1.062 1.128 4.032 3.79h.09l1.032-1.096zm419.637-369.82v1.66c0 6.923 4.826 12.733 11.317 14.192v8.27c-15.13.365-29.568 3.37-42.953 8.553l-1.875-4.51c3.37-2.672 5.564-6.793 5.564-11.436V587.3c8.997-2.604 18.34-4.415 27.946-5.326zm28.98 0c9.587.91 18.94 2.722 27.946 5.326V598.7c0 4.644 2.185 8.765 5.564 11.436l-1.875 4.51c-13.386-5.18-27.847-8.187-42.953-8.552v-8.27c6.48-1.426 11.317-7.26 11.317-14.19zm-85.936 17.074c.177 7.875 6.618 14.19 14.505 14.19 1.118 0 2.178-.174 3.22-.406l1.752 4.23c-13.544 6.02-25.852 14.322-36.42 24.403l-10.658-10.62V617.78c8.472-7.204 17.71-13.503 27.602-18.734zm142.89 0c8.293 4.393 16.098 9.532 23.415 15.32-.373 1.292-.594 2.63-.594 4.04v15.1c0 .662.06 1.334.156 1.973l-6.032 6.014c-10.58-10.09-22.864-18.385-36.42-24.404l1.752-4.26c1.043.232 2.134.407 3.25.407 7.89 0 14.296-6.316 14.475-14.192zm-74.617 11.277v55.67c-7.016.315-13.77 1.665-20.1 3.978L429.72 617.28c12.883-4.957 26.784-6.606 41.357-6.955zm6.313 0h.03c14.556.35 28.458 3.22 41.357 8.177l-21.256 51.47c-6.32-2.304-13.092-3.662-20.132-3.978zm-53.517 10.62l21.257 51.47c-6.24 2.944-12 6.803-17.037 11.404l-39.263-39.347c10.209-9.724 22.022-17.716 35.043-23.527zm100.752 0c13.02 5.836 24.844 13.793 35.042 23.527l-39.262 39.347c-5.06-4.617-10.796-8.468-17.07-11.403zM374.235 638.8l7.158 7.174c-10.08 10.613-18.375 22.917-24.383 36.496l-10.784-4.48V668.5c0-4.12-1.72-7.843-4.47-10.463 2.765-4.833 5.77-9.488 9.033-13.94 2.593 2.453 6.078 3.978 9.94 3.978 6.16 0 11.395-3.845 13.505-9.273zm221.166 2.256c4.124 5.396 7.92 11.052 11.316 16.98-2.733 2.627-4.438 6.342-4.438 10.462v9.46l-10.816 4.48c-6.005-13.577-14.287-25.884-24.352-36.495l4.064-4.073c2.618 3.748 6.964 6.203 11.88 6.203 5.243 0 9.814-2.822 12.347-7.017zm-211.037 7.863l39.263 39.377c-4.62 5.073-8.43 10.804-11.38 17.074l-51.36-21.302c5.788-13.066 13.777-24.943 23.477-35.15zm179.777 0c9.69 10.205 17.682 22.082 23.477 35.148l-51.36 21.303c-2.933-6.27-6.79-12-11.38-17.073zm-93.06 19.296v50.406l-19.226-46.584c6.06-2.213 12.495-3.506 19.225-3.822zm6.344 0c6.73.316 13.178 1.61 19.226 3.822l-19.226 46.584zm-31.416 6.266l19.256 46.584-35.573-35.682c4.834-4.41 10.33-8.084 16.318-10.902zm56.488 0c5.976 2.818 11.46 6.5 16.317 10.902l-35.574 35.682zM346.163 684.79l8.44 3.54c-5.17 13.394-8.122 27.88-8.502 43.042h-13.317v-3.32c0-6.49-4.227-11.98-10.097-13.847.77-5.877 1.885-11.615 3.283-17.26 1.76.745 3.707 1.19 5.75 1.19 7.6 0 13.83-5.87 14.443-13.346zm256.146 0c.612 7.46 6.858 13.344 14.472 13.344 2.035 0 3.968-.43 5.72-1.19 1.415 5.646 2.537 11.384 3.315 17.26-5.852 1.867-10.128 7.357-10.128 13.848v3.32h-13.287c-.373-15.162-3.333-29.648-8.503-43.043zm-177.09 5.074l35.574 35.62-46.484-19.267c2.828-5.994 6.52-11.488 10.91-16.353zm98.064 0c4.403 4.858 8.097 10.36 10.91 16.353l-46.485 19.297zm-164.805.03l51.33 21.334c-2.29 6.318-3.64 13.09-3.97 20.143h-55.55c.36-14.58 3.218-28.55 8.19-41.476zm231.544 0c4.964 12.925 7.818 26.896 8.19 41.477h-55.55c-.306-7.052-1.682-13.824-3.97-20.142zm-178.152 22.18l46.484 19.297H408.09c.314-6.738 1.624-13.237 3.782-19.297zm124.728 0c2.192 6.068 3.51 12.558 3.813 19.297h-50.297zM332.783 737.73H346.1c.374 15.138 3.337 29.628 8.503 43.076l-8.47 3.508c-.795-7.28-6.942-12.906-14.412-12.906-1.993 0-3.896.366-5.626 1.096-1.298-5.09-2.345-10.265-3.126-15.57 5.708-1.94 9.815-7.368 9.815-13.752zm17.506 0h55.55c.33 7.047 1.68 13.788 3.97 20.113l-51.33 21.302c-4.965-12.908-7.82-26.832-8.19-41.414zm57.8 0h50.266l-46.484 19.267c-2.15-6.084-3.468-12.544-3.782-19.266zm82.026 0h50.297c-.302 6.723-1.62 13.183-3.813 19.267zm52.548 0h55.55c-.364 14.583-3.227 28.507-8.19 41.415l-51.33-21.302c2.297-6.325 3.673-13.066 3.97-20.112zm59.74 0h13.285v5.452c0 6.384 4.11 11.82 9.846 13.752-.772 5.305-1.823 10.496-3.126 15.57-1.728-.714-3.63-1.128-5.628-1.128-7.47 0-13.606 5.65-14.41 12.938l-8.472-3.54c5.178-13.42 8.13-27.906 8.503-43.043zm-144.83 7.143l-1.344 3.258-31.01 31.047c-4.395-4.833-8.082-10.328-10.91-16.322zm33.355 0l43.264 17.982c-2.813 5.994-6.514 11.48-10.91 16.322l-31.01-31.046zm-19.85 5.577v50.405c-6.74-.32-13.174-1.624-19.226-3.822zm6.344 0l19.226 46.583c-6.056 2.198-12.497 3.502-19.226 3.822zm-65.177 13.25c2.95 6.25 6.76 12.023 11.38 17.106l-39.264 39.347c-9.7-10.23-17.68-22.1-23.477-35.15zm77.463 0l5.22 9.055 8.847 21.177c-.435.2-.844.473-1.28.69zm-30.948.03l-12.754 30.89c-.43-.208-.86-.48-1.282-.69l8.847-21.177zm77.775.09l51.36 21.304c-6.08 12.924-14.066 24.793-23.757 35.024L524.878 780.8c4.59-5.082 8.442-10.836 11.66-16.98zm-92.717 5.64l-11.91 16.102c-.73-.63-1.483-1.224-2.22-1.88zm60.832.03l14.16 14.19c-.72.657-1.475 1.252-2.25 1.88zm-76.556 15.758c.804.73 1.67 1.42 2.5 2.1l-33.103 44.766c-3-2.355-5.89-4.874-8.66-7.52zm92.312 0l39.262 39.378c-2.787 2.637-5.66 5.124-8.66 7.488l-33.103-44.767c.84-.678 1.686-1.37 2.5-2.1zm-163.398 1.378c6.007 13.562 14.304 25.87 24.383 36.465l-7.252 7.3c-2.184-5.222-7.37-8.96-13.41-8.96-3.767 0-7.194 1.444-9.753 3.792-3.297-4.445-6.25-9.078-9.034-13.878 2.65-2.628 4.283-6.3 4.283-10.338v-9.93zm234.452 0l10.816 4.45v9.93c0 4.038 1.64 7.687 4.282 10.306-3.396 5.895-7.17 11.54-11.284 16.886-2.582-4.038-7.082-6.767-12.223-6.767-4.802 0-9.057 2.34-11.692 5.922l-4.25-4.26c10.072-10.597 18.347-22.904 24.352-36.466zm-147.642 9.336c.45.24.875.505 1.313.72l-21.257 51.41c-.516-.224-1.038-.456-1.563-.69zm60.832 0l21.507 51.44c-.518.234-1.007.465-1.532.69l-21.29-51.41c.46-.215.88-.48 1.314-.72zm-53.673 3.132c6.323 2.29 13.076 3.68 20.1 4.01v55.638c-14.565-.347-28.49-3.203-41.39-8.177zm46.545 0l21.288 51.44c-12.9 4.99-26.832 7.86-41.39 8.208v-55.638c7.04-.33 13.773-1.72 20.102-4.01zm-68.867 2.82L407.245 839.1c-1.38-.905-2.71-1.823-4.064-2.757zm91.187 0l25.477 34.43c-1.33.933-2.714 1.85-4.095 2.755zM425.44 821.65L416 844.237c-.91-.497-1.81-.998-2.69-1.503zm97.624 0l12.13 21.084c-.88.505-1.79 1.006-2.69 1.503zm-137.2 5.92c2.912 2.794 5.99 5.422 9.16 7.927L380.3 855.42c-1.73-1.35-3.402-2.747-5.065-4.165V838.222zm176.776 0l6.064 6.11c-.11.746-.156 1.49-.156 2.287v15.13c0 1.254.168 2.488.47 3.666-.252.19-.532.45-.814.658l-14.723-19.923c3.168-2.505 6.24-5.126 9.16-7.926zm-161.96 12.156c1.47 1.028 2.96 2.03 4.47 3.008l-12.378 21.46c-2.303-1.485-4.578-2.998-6.815-4.575zm147.143 0l14.723 19.924c-2.247 1.594-4.518 3.09-6.845 4.574l-12.38-21.49c1.528-.987 3.022-1.98 4.503-3.008zM411.215 846.4c1.036.605 2.09 1.134 3.157 1.69l-4.907 11.623c-3.515 2.247-5.984 5.992-6.534 10.37-1.367-.757-2.74-1.453-4.062-2.225zm126.073 0l12.38 21.458c-1.357.772-2.752 1.47-4.096 2.224-.58-4.377-3.05-8.122-6.565-10.37l-4.845-11.62c1.042-.557 2.083-1.088 3.126-1.693zm-116.6 4.855c.515.226 1.035.52 1.594.752l-2.345 5.67c-.604-.124-1.215-.195-1.845-.22zm107.128 0l2.595 6.202c-.613.03-1.24.1-1.844.22l-2.345-5.67c.536-.222 1.062-.517 1.596-.752zm-99.72 3.164c13.384 5.156 27.86 8.145 42.983 8.52v5.294c-6.49 1.45-11.35 7.237-11.35 14.16v4.668c-9.603-.902-18.95-2.698-27.946-5.294v-9.806c.01-4.866-2.378-9.175-6.063-11.81zm92.28 0l2.375 5.732c-3.647 2.644-6.062 6.944-6.062 11.81v9.806c-8.997 2.596-18.36 4.392-27.947 5.294v-4.668c0-6.923-4.835-12.71-11.316-14.16v-5.294c15.115-.375 29.576-3.364 42.953-8.52zm-137.514 9.428c2.387 1.7 4.84 3.32 7.346 4.887l-9.908 17.2c-2.974-2.074-6.12-4.046-9.473-5.828zm182.78 0l30.352 40.976h-16.912l-20.787-36.09c2.498-1.59 4.944-3.185 7.346-4.886zm-169.4 8.52c2.126 1.218 4.3 2.383 6.502 3.51l-9.13 21.804c-2.29-2.58-4.877-5.015-7.657-7.362zm155.99 0l18.692 32.456h-13.036l-12.128-28.946c2.183-1.127 4.336-2.306 6.47-3.51zm-120.448 14.757c9.005 2.536 18.36 4.276 27.947 5.137v5.232c0 8.026 6.487 14.536 14.505 14.536 8 0 14.506-6.51 14.506-14.536v-5.232c9.588-.877 18.934-2.61 27.948-5.137.05 8.007 6.55 14.473 14.536 14.473 6.278 0 11.627-4.04 13.63-9.65l5.375 12.876h-10.035v24.28h-132.95c-.222-8.637-3.29-17.172-8.658-25.03l5.063-12.125c2.003 5.61 7.35 9.648 13.66 9.648 7.98 0 14.424-6.466 14.474-14.473zm-106.91 50.28c10.802 5.223 20.44 9.324 29.01 12.374H296.71c8.49-3.116 17.83-7.167 28.165-12.375zm-466.715 25l3.72 3.915-.595.563h-3.126z" fill="#f0b54d"/><path d="M3500 1095.155H0V1340h3500z" fill="#6d6e70"/></g></svg>