<svg xmlns="http://www.w3.org/2000/svg" preserveAspectRatio="xMinYMin slice"><defs><clipPath id="a"><path d="M42.936 700.188h187.217V590.553H42.936v109.635z"/></clipPath><clipPath id="b"><path d="M927.512 845.306h178.028v-112.11H927.512v112.11z"/></clipPath><clipPath id="c"><path d="M467.984 930.662h178.104V821.857H467.984v108.805z"/></clipPath><clipPath id="d"><path d="M1170.11 618.77h150.17v-90.757h-150.17v90.758z"/></clipPath><clipPath id="e"><path d="M66.936 713.518h187.217V603.884H66.936v109.634z"/></clipPath><clipPath id="f"><path d="M927.512 845.306h178.028v-112.11H927.512v112.11z"/></clipPath><clipPath id="g"><path d="M467.984 930.662h178.104V821.857H467.984v108.805z"/></clipPath><clipPath id="h"><path d="M1170.11 618.77h150.17v-90.757h-150.17v90.758z"/></clipPath></defs><path d="M.857 1087.597h3496.856V0H.857z" fill="#f8daa6"/><path d="M508.91 389.324c.01-5.087.89-9.834 3.426-13.852 3.922-6.215 12.693-8.928 19.582-6.39 3.59 1.322 5.693.847 8.366-1.99 16.498-17.512 36.93-23.827 60.083-18.23 24.162 5.844 39.514 21.814 45.994 45.84 1.685 6.25 1.75 12.94 2.608 19.826 2.784-.355 5.717-.712 8.647-1.108 17.98-2.416 35.538 10.715 38.794 28.617 1.967 10.82-.575 20.632-7.123 28.846-7.106 8.915-16.94 13.426-28.682 13.38-36.435-.14-72.873-.137-109.31-.19-14.29-.02-28.58.07-42.87-.087-22.597-.248-42.882-18.957-45.182-41.492-2.75-26.942 14.968-49.007 42.14-52.507 1.547-.197 3.068-.574 3.527-.663" fill="#e8e8e8" fill-rule="evenodd" clip-path="url(#a)" opacity=".7"/><path d="M1708.438 209.818c16.214-7.702 31.506-7.634 44.56 5.264 13.142 12.984 12.53 28.523 5.79 45.12 3.88 0 7.007-.11 10.123.022 11.452.467 20.115 7.72 22.32 18.58 1.99 9.807-3.392 20.353-13.287 24.764-3.22 1.434-7.115 1.845-10.71 1.86-31.21.138-62.416.078-93.625.078-22.92-.005-45.838.02-68.758-.017-19.72-.033-35.732-15.888-35.812-35.374-.08-19.372 16.023-35.45 35.65-35.594 2.585-.02 5.17-.002 8.59-.002-5.832-18.32-4.846-35.168 6.825-50.296 7.425-9.627 17.203-15.7 29.066-18.135 14.266-2.933 27.375.33 39.113 8.696 11.76 8.378 17.13 20.79 20.156 35.032" fill="#e8e8e8" fill-rule="evenodd" clip-path="url(#b)" opacity=".7"/><path d="M1189.045 147.803c5.777 1.436 11.038 1.892 15.5 4.025 10.046 4.807 14.465 15.165 11.87 25.646-2.423 9.784-11.32 16.636-21.988 16.914-1.573.04-3.148.008-4.72.008-53.116 0-106.232.066-159.346-.043-14.92-.03-25.94-7.163-32.293-20.537-6.345-13.353-4.146-26.115 4.95-37.612 3.99-5.037 9.202-8.6 15.325-10.6 2.41-.787 3.097-2.11 3.16-4.574.825-32.6 23.022-58.35 54.94-62.442 29.586-3.79 56.836 13.678 66.716 42.072 2.16 6.21 2.146 6.215 8.65 5.812 19.5-1.207 36.75 14.616 37.23 34.167.06 2.597.007 5.2.007 7.163" fill="#e8e8e8" fill-rule="evenodd" clip-path="url(#c)" opacity=".7"/><path d="M1286.107 572.927c5.295.25 10.14 1.152 14.8.568 11.76-1.473 20.128-12.25 19.323-24.01-.79-11.59-10.437-21.088-22.053-21.356-9.427-.218-18.865-.066-28.3-.066-23.692-.003-47.38-.05-71.073.02-13.78.038-24.746 8.84-27.96 22.196-4.296 17.856 10.85 35.7 29.18 34.382 4.47-.32 4.47-.32 5.753 4.114a41.52 41.52 0 0 0 36.898 29.897c16.287 1.185 32.55-8.48 39.637-23.7 2.693-5.783 3.672-11.99 3.79-18.336.028-1.347.005-2.694.005-3.71" fill="#e8e8e8" fill-rule="evenodd" transform="matrix(1.25 0 0 -1.253 409.276 1224.286)" clip-path="url(#d)" opacity=".7"/><path d="M1164.84 656.176c.01-5.087.89-9.834 3.425-13.852 3.92-6.215 12.693-8.928 19.58-6.39 3.59 1.322 5.694.847 8.368-1.99 16.498-17.512 36.93-23.827 60.083-18.23 24.16 5.844 39.514 21.813 45.993 45.84 1.683 6.25 1.75 12.94 2.606 19.826 2.785-.355 5.717-.712 8.648-1.108 17.98-2.416 35.538 10.715 38.794 28.617 1.968 10.818-.574 20.63-7.123 28.845-7.106 8.915-16.94 13.426-28.68 13.38-36.437-.14-72.875-.137-109.31-.19-14.29-.02-28.582.07-42.87-.087-22.598-.248-42.884-18.957-45.183-41.49-2.75-26.945 14.967-49.01 42.14-52.51 1.546-.196 3.068-.573 3.527-.662" fill="#e8e8e8" fill-rule="evenodd" clip-path="url(#e)" opacity=".7"/><path d="M3008.862 413.177c16.214-7.702 31.506-7.634 44.56 5.264 13.142 12.985 12.53 28.524 5.79 45.122 3.88 0 7.007-.11 10.123.02 11.45.468 20.114 7.72 22.32 18.582 1.99 9.806-3.393 20.352-13.288 24.763-3.22 1.434-7.115 1.845-10.71 1.86-31.21.138-62.416.078-93.625.078-22.92-.005-45.838.02-68.758-.017-19.72-.032-35.732-15.887-35.812-35.373-.08-19.372 16.023-35.45 35.65-35.594 2.585-.02 5.17 0 8.59 0-5.832-18.32-4.846-35.17 6.825-50.297 7.425-9.627 17.203-15.7 29.066-18.135 14.267-2.932 27.376.332 39.114 8.697 11.76 8.378 17.13 20.79 20.156 35.032" fill="#e8e8e8" fill-rule="evenodd" clip-path="url(#f)" opacity=".7"/><path d="M2489.47 351.162c5.776 1.436 11.037 1.892 15.5 4.025 10.045 4.807 14.464 15.165 11.87 25.646-2.424 9.784-11.322 16.636-21.99 16.914-1.572.04-3.147.008-4.72.008-53.115 0-106.23.066-159.345-.043-14.922-.03-25.94-7.163-32.294-20.537-6.344-13.353-4.145-26.115 4.952-37.612 3.99-5.037 9.2-8.6 15.324-10.6 2.41-.787 3.097-2.11 3.16-4.574.825-32.6 23.022-58.35 54.94-62.443 29.586-3.79 56.836 13.678 66.716 42.072 2.16 6.21 2.146 6.214 8.65 5.81 19.5-1.206 36.75 14.617 37.23 34.168.06 2.598.007 5.2.007 7.164" fill="#e8e8e8" fill-rule="evenodd" clip-path="url(#g)" opacity=".7"/><path d="M1286.107 572.927c5.295.25 10.14 1.152 14.8.568 11.76-1.473 20.128-12.25 19.323-24.01-.79-11.59-10.437-21.088-22.053-21.356-9.427-.218-18.865-.066-28.3-.066-23.692-.003-47.38-.05-71.073.02-13.78.038-24.746 8.84-27.96 22.196-4.296 17.856 10.85 35.7 29.18 34.382 4.47-.32 4.47-.32 5.753 4.114a41.52 41.52 0 0 0 36.898 29.897c16.287 1.185 32.55-8.48 39.637-23.7 2.693-5.783 3.672-11.99 3.79-18.336.028-1.347.005-2.694.005-3.71" fill="#e8e8e8" fill-rule="evenodd" transform="matrix(1.25 0 0 -1.253 1709.7 1427.645)" clip-path="url(#h)" opacity=".7"/><path d="M3135.685 73.32v41.257h-2.44v114.25h-1.81V189.95h-4.848v44.736h-3V159.5h-4.846v75.186h-7.813v111.87h-19.57V509.96h-24.445v174.337h-.22v15.225h-5.406v-45.174h4.313v-9.117h-4.314v-16.257h-6.315v-10.15h-5.064v-6.047h-2.78v-8.145h-5.597v-14.19h-2.002v-6.61h-6.72v-4.574h-4.034v-10.12h-4.314v10.12h-4.063v4.574h-6.72v6.61h-2.002v14.192h-5.564v8.144h-2.813v6.046h-5.063v10.15h-6.315v16.26h-4.315v9.116h4.314v45.174h-5.378v-15.225h-28.228v15.225h-5.658V918.75h-6.033V506.92h-18.193v-14.473h-27.666v14.473h-18.193v200.12h-10.815v-19.173h-19.132v-13.19h-4.188V662.68h-4.784v-5.984h-11.97V599.21h-4.784v57.486h-1.5v-7.77h-5.97v7.77h-9.254v5.984h-7.784v11.998h-16.162v13.19h-16.41V613.62h-23.352v-8.99h-50.267V565.16h-44.92v39.472h-50.3v8.99h-23.32V918.72h-6.906V589.594h-8.597V552.91h-4.938v-13.72h-4.065v-8.554h3v-4.73h-3V494.61h-8.846l-22.163-29.51-22.163 29.51h-8.847v31.295h-3v4.73h3v8.553h-4.063v13.72h-4.94v36.686h-8.596V918.72h-10.065V212.63l-5.596-.72v-57.015l-.157.03c-2.126-4.692-26.783-2.37-55.8 5.357-27.01 7.2-48.43 16.594-50.828 21.99l-.25.06v15.57l-9.066-1.19V225h-8.816v131.732h-13.848v4.73h-6.16V535.58h-44.107v117.29h-8.816v220.92h-12.942v-17.386h-.28l-28.73-29.98-1 .97-27.758 29.01h-1.25v17.386h-8.285l-32.825-44.39c2.653 3.15 6.628 5.2 11.1 5.2 8 0 14.503-6.54 14.503-14.567v-15.1c0-.697-.06-1.413-.156-2.068a156.852 156.852 0 0 0 13.473-19.61 14.705 14.705 0 0 0 5.94 1.252c8.01 0 14.472-6.52 14.472-14.536v-15.1c0-4.06-1.655-7.73-4.313-10.368 1.567-5.835 2.838-11.82 3.72-17.888 7.776-.25 14.004-6.636 14.004-14.504v-15.1c0-7.768-6.092-14.115-13.723-14.505a161.406 161.406 0 0 0-3.908-19.705c2.61-2.652 4.22-6.27 4.22-10.275v-15.07c0-8.04-6.5-14.534-14.504-14.534-2.05 0-3.968.413-5.72 1.16a160.437 160.437 0 0 0-13.63-19.862c.06-.58.09-1.183.09-1.754v-15.1c0-8.025-6.474-14.536-14.473-14.536-4.74 0-8.907 2.266-11.567 5.764-8.016-6.284-16.625-11.82-25.758-16.446v-9.618c0-8.04-6.51-14.536-14.504-14.536-7.464 0-13.61 5.652-14.442 12.907a155.874 155.874 0 0 0-28.01-5.17v-8.24c0-8.048-6.51-14.504-14.503-14.504a14.48 14.48 0 0 0-14.506 14.505v8.24a157.153 157.153 0 0 0-28.073 5.17c-.814-7.256-6.914-12.908-14.38-12.908-8.01 0-14.504 6.495-14.504 14.536v9.618a157.528 157.528 0 0 0-28.978 19.015 14.417 14.417 0 0 0-13.098-8.332c-8.015 0-14.504 6.51-14.504 14.536v15.1c0 2.212.51 4.32 1.406 6.203a162.606 162.606 0 0 0-10.192 15.38 14.612 14.612 0 0 0-5.72-1.158c-8.004 0-14.505 6.508-14.505 14.566v15.07c0 3.994 1.616 7.63 4.25 10.274-1.704 6.418-3.056 12.983-3.937 19.705-7.664.39-13.755 6.706-13.755 14.474v15.13c0 7.86 6.233 14.247 14.037 14.504.88 6.068 2.16 12.06 3.72 17.888-2.683 2.645-4.314 6.3-4.314 10.37v15.1c0 8.015 6.5 14.535 14.505 14.535 2.1 0 4.103-.474 5.907-1.253a155.87 155.87 0 0 0 10.13 15.194 14.72 14.72 0 0 0-1.532 6.485v15.1c0 8.026 6.49 14.536 14.504 14.536 5.92 0 11-3.534 13.255-8.648a87.803 87.803 0 0 0 3.188 2.6l-12.817 17.356c-11.638-5.15-24.972-8.387-39.262-8.835-46.473-1.443-87.147 31.585-88.122 62.624-.244 8.18 1.614 14.552 5.5 19.047h-42.294c.46-5.373.824-10.718.906-16.07.1-5.084-.78-10.2-.688-15.29a3.36 3.36 0 0 0 1.876.564c.26 0 .53-.05.78-.06.96.73 1.95 1.253 2.847 1.253.79 0 .34-.9-.344-1.847.686-.266 1.31-.67 1.876-1.128 1.142.547 2.37.908 3.594.908h1.064c.774 0 1.563-.47 1.563-1.316 0-.397-.135-.77-.312-1.16.822.258 1.66.377 2.5.377h2.126c1.83 0 5.433-.802 4.72-3.446-.164-.59-.544-1.136-1-1.566l.187-.09c.34-.26.654-.526 1.002-.783.52-.457.9-1.012 1.092-1.693v-.437c.616-.383 1.158-.945 1.22-1.723.05-.546-.187-1.043-.564-1.472-.02-.473-.12-.986-.25-1.472 2.49-2.238 3.242-6.04-.22-6.986.818-.29 1.314-1.112 1.314-1.974v-.407c1.397-1.318 1.75-2.507-.562-2.6 1-.695 1.842-1.565 2.25-2.726.117-.347.163-.697.188-1.002.39-.07.756-.17.844-.47.178-.595-1.054-1.246-1.375-1.41l-.06-.03a3.848 3.848 0 0 0-.563-.658l-.125-.25-.157-.19c2.386-1.54 1.62-5.608-1.314-6.578 1.34-.962 2.23-2.466 2-4.166-.05-.357-.226-.652-.437-.94-.194-.647-.846-1.17-1.47-1.41v-.187c0-.714-.655-1.418-1.093-1.88a9.618 9.618 0 0 0-1.376-1.097c.6-.05 1.215-.14 1.782-.282.178-.04 1.26-.272 1.22-.72-.06-.53-.505-.958-.876-1.316-.22-.24-.65-.34-1.063-.44l.375-.53c.34-.357-.143-1.154-.312-1.44-.507-.856-1.195-1.623-1.907-2.32-.292-.283-.6-.55-.906-.814.29-.185.485-.378.47-.627-.04-1.143-3.076-1.07-4.065-1.034l.03-.19v-.312c.814-1.21-.04-2.585-1.094-3.414.795.02 1.56-.08.625-.627-.828-.515-1.763-.88-2.72-1.16.535-1.136-1.24-1.848-2.282-1.848l-.562.03c.448-.333.733-.713.845-1.16.22-.06.453-.124.688-.156 1.792-.275-.33-3.203-.75-3.665-1.123-1.263-2.927-2.71-4.75-2.445l-.53.09c-.697-.797-2.72-2.164-3.69-2.443l-.03-.06c-.84-1.03-2.24-1.694-3.533-1.065l-.06.03c-.687-.382-1.345-.59-1.657-.282l-.22.282-.5-.125a4.8 4.8 0 0 0-.562-1.034c-.794-1.07-2.178-.975-3.22-.345-.338.18-.716.532-1.03.94l-.407-.22c-.635-.282-1.91-.53-1.594.563.07.284.174.54.28.815a4.662 4.662 0 0 0-1.406-.69c-.48-.12-1.01-.142-1.468 0l-.345.158a6.218 6.218 0 0 0-.937-.44c-.22-.107-.754-.31-.97-.03-.194.25.115.767.25.94.376.5.75.944 1.22 1.348-.8-.266-1.584-.5-1.907-.5-1.212 0-.544.49.53.938-.6.2-1.168.42-1.218.596-.29.02-.54.09-.814.187-.25.02-.35.114-.343.187-.487.34-.806.83-.78 1.535.03.43.116.84.25 1.22-.755.58-1.087 1.39-1.063 2.32-.285-.317-.567-.578-.906-.784-.307-.192-.205.327-.19.376.1.406.253.778.44 1.16-.89.02-1.77.376-2.19 1.19l-.155.406c-.526-.422-1.232-.873-1.187-.407.04.364.175.718.344 1.067a8.45 8.45 0 0 0 1 1.566c-.583.14-.75.723-.75 1.378a3.327 3.327 0 0 0-.78.06c-.688.117-1.305.485-1.815.94-.42.415-.76.96-.844 1.567-.248 0-.467.04-.593.188v.752c.115.356.215.732.344 1.096.08.282.216.52.376.752-.37.354-.585.826-.72 1.316v2.006c.01.03-.01.06 0 .09 0 0-1.425.473-1.25 1.597.175 1.125-.04 2.254 2.282 5.17 2.32 2.914-2.145 1.882-1.97 3.007.175 1.125.356 3.32 3.033 3.728 2.677.41 1.42 2.166.53 3.383-.884 1.218-2.74-.74-3.062 3.008-.322 3.747-.844 2.16-.187 3.76.66 1.6.735 2.55 1.627 3.728.892 1.178.338.52.156 2.287-.18 1.766-.938 1.7-1.626 3.383-.687 1.682.416 3.416 1.595 4.793 1.18 1.376 1.512 1.914 1.97 3.727.457 1.813.608 1.93.156 3.383-.453 1.454-.744 1.168 2.312 3.384 3.057 2.215-1.54 1.452-1.25 3.007.29 1.557 4.095 2.664 4.095 2.664.586 1.49 2.38 2.618 3.876 2.694.485.03.978.02 1.47.06a8.09 8.09 0 0 0 3-.815l.596-.345.25.125c.99.52 1.96.747 3.03.846.1 4.18.63 8.38.565 12.624-.103 5.67-.434 11.378-.907 17.074h-20.287v.783c-5.27-.122-72.202-1.632-71.9 1.536h-6.064V904.39c0-.443-.37-.784-.812-.784h-.438v-3.82h1.22a.764.764 0 0 0 .78-.784v-2.507c0-.45-.333-.814-.78-.814h-1.22v-3.257a.815.815 0 0 0-.812-.815h-1.688l-5.095-4.636a3.01 3.01 0 0 0 .937-2.193 3.042 3.042 0 0 0-3.032-3.04c-1.684 0-3.064 1.358-3.064 3.04 0 .794.314 1.56.845 2.098l-5.002 4.73h-1.687c-.435 0-.544.427-.782.815v3.258h-1.217a.818.818 0 0 0-.812.815v2.507c0 .39.93.71.876.783h1.156v3.82h-.47c-.443 0-.728.345-.78.784v16.666h-12.567c.04-.01.07-.004.09-.03.145-.104.35-.27.563-.532.168-.08.456-.235.594-.658.11-.276.04-.57-.09-.846.33-.81.165-1.302-.125-1.786-.01-.06 0-.11 0-.22.01-.14 0-.252-.03-.564v-.125l.406-.44a.8.8 0 0 0 0-1.127l-.813-.752c-.32-.317-.82-.286-1.126.03l-10.973 11.654h-6.47l-1.906 2.036h-2.47l-5.438-5.138 3-3.226-2.78-2.632-3.003 3.227-6.752-6.36 3.033-3.226-2.782-2.63-3.03 3.226-6.785-6.36 3.033-3.226-2.752-2.632-3.032 3.227-6.752-6.36 3-3.226-2.782-2.633-3.03 3.227-6.722-6.39 3-3.196-2.78-2.632-3.034 3.196-6.752-6.36 3.033-3.226-2.783-2.6-3 3.195-6.784-6.36 3.032-3.225-6.846-6.454-1.78-1.66a.736.736 0 0 0-.533-.25c-.193-.03-.462.106-.624.25l-1.47 1.63c-.16.166-.263.38-.25.596l-4.406 4.7a.81.81 0 0 0-.564.25l-1.125 1.19a.78.78 0 0 0-.22.376.725.725 0 0 0-.31.188l-.595.627a.783.783 0 0 0-.22.563c.01.207.107.45.25.595l61.24 57.768h-5.44c-.457 0-.726.35-.814.783v9.962h-26.507v20.99H1452.76V934.65c0-.252-.1-.48-.28-.627l-1.908 1.817h-8.72l6.563-6.203 1.782 1.88 2.782-2.632-1.782-1.88 6.752-6.358 1.78 1.88 2.784-2.632-1.783-1.88 6.754-6.36 1.782 1.88 2.782-2.63-1.782-1.912 6.752-6.33 1.783 1.88 2.78-2.63-1.78-1.91 6.753-6.36 1.78 1.91 2.783-2.63-1.78-1.912 6.75-6.36 1.783 1.912 2.78-2.63-1.78-1.912 6.75-6.36 1.784 1.91 2.78-2.63-1.78-1.91 5.408-5.076-1-1.097a.858.858 0 0 0-.595-.25l-4.44-4.73a.818.818 0 0 0-.22-.564l-1.47-1.63a.847.847 0 0 0-1.155-.03l-9.722 9.18-14.036-14.943c-.143-.174-.47-.287-.594-.25a.838.838 0 0 0-.563.22l-.375.344-.125.125-.28.28c-.332.318-.367.81-.06 1.128l.436.438c-.01.08-.02.17-.03.282-.01.172 0 .313 0 .44.01.106.02.16-.03.312-.242.416-.43.89-.156 1.504 0 .07-.02.134-.03.187-.04.25-.08.55 0 .847.146.38.45.53.625.627.194.268.386.42.53.532.146.09.147.08.19.187.407.808 1.553.797 1.875-.03.1-.27.11-.558.125-.877.01-.17.1-.277.22-.47l10.315 10.965-7.503 7.08-14.067-14.942a.767.767 0 0 0-1.126-.03l-.81.752c-.305.305-.305.796 0 1.127l.405.44c0 .08.01.17 0 .28-.02.166-.01.302 0 .44 0 .12 0 .16-.06.312-.232.41-.434.853-.156 1.503 0 .06-.02.15-.03.22-.03.25-.07.544.03.815.12.41.4.56.593.658.195.255.417.412.562.5.13.106.118.122.188.22.352.714 1.363 1.127 1.845-.06.1-.235.135-.478.156-.845.01-.18.08-.29.22-.47l10.284 10.965-7.502 7.08-14.036-14.943c-.31-.332-.845-.35-1.158-.03l-.78.72a.883.883 0 0 0-.25.564c0 .208.06.43.187.595l.436.44c-.01.07-.03.146-.03.25-.03.187-.01.33 0 .47.01.105.02.143-.03.283-.235.4-.43.9-.156 1.535 0 .06-.02.12-.03.19-.05.263-.06.54.03.845.144.374.41.545.594.626.2.28.4.435.532.53.138.1.146.12.188.19.317.738 1.45 1.14 1.906-.06.08-.267.07-.534.09-.846.01-.172.09-.29.22-.47l10.313 10.965-7.534 7.08-14.037-14.944c-.316-.317-.794-.342-1.124-.03l-.782.72c-.165.145-.282.35-.282.564-.02.215.09.442.25.595l.407.44-.03.25c-.01.18 0 .355 0 .5 0 .12-.01.14-.06.25-.235.418-.41.893-.125 1.537 0 .05-.02.157-.03.22-.04.243-.07.526.03.814.122.388.39.537.563.627.207.28.42.437.564.532.13.105.165.13.22.22.33.74 1.456 1.05 1.842-.06.105-.28.12-.53.126-.878 0-.165.07-.285.22-.47l10.315 10.995-7.503 7.08-14.068-14.974c-.16-.16-.46-.283-.594-.25-.185 0-.374.09-.53.22l-.376.344c-.01.007-.144.156-.156.156l-.28.282a.79.79 0 0 0-.03 1.128l.437.44c0 .08-.02.146-.03.25-.01.172-.01.313 0 .44.01.128 0 .174-.06.312-.23.416-.393.884-.125 1.535 0 .06-.02.12-.03.188-.05.256-.07.535 0 .846.154.38.415.54.594.625.207.268.424.435.563.532.143.1.13.104.186.22.358.725 1.48.998 1.845-.03.126-.302.152-.586.157-.877.02-.186.08-.315.22-.5l10.315 10.963-7.533 7.08-14.037-14.943c-.304-.32-.807-.362-1.126-.03l-.813.752a.806.806 0 0 0-.03 1.128l.437.438c-.02.104-.01.2-.03.282-.01.172 0 .306 0 .44.01.117-.01.16-.06.312-.234.407-.4.868-.124 1.504 0 .06-.02.15-.03.22-.05.25-.104.524 0 .815.13.387.42.546.594.628.2.276.418.442.563.532.132.108.14.1.19.187.387.838 1.487.898 1.874-.06.1-.27.11-.505.125-.814.01-.186.09-.31.22-.5l10.315 10.963-5.19 4.887 5.69 6.078-7.565 7.08-5.66-6.014v-9.367a.772.772 0 0 0-.78-.784h-.438v-1.597l-7.658-8.147c-.22-.246-.544-.3-.875-.188a.68.68 0 0 0-.22-.03h-1.22v-3.258a.824.824 0 0 0-.81-.815h-1.688l-5.065-4.636c.577-.555.906-1.343.906-2.193a3.027 3.027 0 0 0-3.03-3.04 3.038 3.038 0 0 0-3.033 3.04c0 .788.302 1.568.844 2.13l-5.034 4.7h-1.687c-.44 0-.578.43-.813.814v3.258h-1.19a.81.81 0 0 0-.812.814v2.537c0 .394.965.71.906.783h1.095v3.822h-.438c-.45 0-.736.348-.782.783v18.953h-.47c-.45 0-.78.374-.78.815v2.506c0 .325.192.595.47.72h-.845c-.447 0-.78.36-.78.814v17.575h-1.283V654.42h-25.352v-4.292h-9.16v-5.294h-12.003v5.294h-21.163v4.292h-8.91v199.87l-26.04-12.25v-1.91h-1.53v-1.38h-1.596V837.5h-1.937v1.253h-1.594v1.38h-1.53v1.91l-51.393 24.185v-.282h-1.25v-1.848h-.72v-1.535h-1.97v5.106h.595v9.367h-15.442V608.15h-10.942v-11.56h-32.417v11.56h-10.972v348.8h-8.752V636.97h-67.242v-13.658h-14.38v-18.014h-4.812v6.83h-8.722v-6.83h-1.75v-35.556h-2.22V605.3h-5.22v-46.74h-1.75v53.568h-11.786v-6.83h-4.813v18.014h-8.285v13.658H973.72v177.69h-7.065v-5.67h-7.596v-9.587h-13.255v-9.586H930.05v9.586h-13.223v9.586h-7.596v5.67h-33.26v5.075h-6.064v7.894h6.064v129.82h-8.44V776.315h-5.658v-33.71h-4V721.9l-24.793-14.88v-3.102h-2.5l-.033-.47-.656-.313.188-3.602.282-3.79h.47s.13-4.27-.25-4.45c-.384-.187-1.283-.376-1.283-.376v-.532l.063-.25c.176-.2.312-.542.312-.91 0-.64-.35-1.19-.78-1.19-.446 0-.814.55-.814 1.19 0 .368.134.712.313.91l.064.25v.532s-.893.18-1.282.376c-.373.18-.22 4.45-.22 4.45h.47l.25 3.79.22 3.602-.658.313-.062.47h-2.5v3.102l-24.79 14.88v20.707h-4v33.71h-5.66V957.45h-6.25V616.42h-20.383V480.114h-16.32V386.79h-13.88v-66.257h-3.53v61.34h-4.064v-4.7h-.157V255.685h-7.253v61.496h-2.532v59.992h-5.69v-90.6h-2.03v-34.428h-5.566v34.43h-2.033v95.297h-1.5V349.45h-4.033v37.34h-2.532v-62.716h-4.032v62.717h-6.503v93.325H665.62V616.42h-20.413v145.42h-.188v12.72h-4.502v-37.687h3.595v-7.613h-3.595v-13.565h-5.283v-8.458h-4.22v-5.075H628.7v-6.767h-4.657v-11.842h-1.688v-5.513h-5.596v-3.79h-3.377v-8.49h-3.595v8.49h-3.376v3.79h-5.596v5.513h-1.688v11.842h-4.658v6.767h-2.313v5.075h-4.22v8.458h-5.283v13.565h-3.595v7.613h3.594v37.686h-4.5v-12.72h-23.54v12.72h-4.72v182.89h-5.033V613.882H529.7V601.79h-23.1v12.092h-15.192v166.944h-9.003v-16.008H466.43v-10.996h-3.5v-9.994h-3.97v-5.012h-9.973v-47.962h-4.002v47.962h-1.25v-6.485h-4.97v6.486h-7.753v5.012h-6.47v9.994h-13.474v10.996h-13.723v-61.935H377.9v-7.487h-41.95V662.47h-37.48v32.926h-41.953v7.487h-19.443v254.535h-5.784V682.834h-7.19v-30.576h-4.094v-11.466h-3.377v-7.142h2.5v-3.947h-2.5v-26.096h-7.378l-18.506-24.623-18.506 24.623h-7.378v26.096h-2.5v3.947h2.5v7.142h-3.376v11.466h-4.126v30.576h-7.19v274.584h-8.378V368.37l-4.657-.595v-47.587l-.125.03c-1.775-3.914-22.373-1.934-46.578 4.51-22.536 6.004-40.388 13.817-42.39 18.328l-.187.03v13l-7.596-.97v23.59h-7.347V488.57H21.378v3.947H16.22v145.296H.87v476.52l3498.3 2.507V534.59h-38.42v212.994h-8.502v-6.798h-9.127V729.32h-15.85v-11.528h-18.88v11.53h-15.88v11.464h-9.096v6.798h-39.858v6.078h-7.283v9.492h7.283v155.603h-10.128v-217.13h-6.783v-40.412h-4.783v-24.812l-29.728-17.856v-3.697h-2.97l-.06-.563-.782-.376.22-4.322.313-4.542h.594s.175-5.11-.28-5.326c-.46-.223-1.565-.47-1.565-.47v-.595l.09-.345c.213-.24.344-.626.344-1.065 0-.77-.424-1.41-.938-1.41-.535 0-.938.64-.938 1.41 0 .44.13.824.344 1.065l.09.345v.595s-1.063.24-1.533.47c-.446.216-.28 5.326-.28 5.326h.563l.312 4.542.25 4.323-.813.377-.06.563h-2.968v3.697l-29.73 17.856v24.812h-4.783v40.412h-6.815v217.13h-7.47v-408.79h-24.415V346.562h-19.6v-111.87h-16.63V155.31h-4.22v73.525h-4.877v-5.67h-.156V77.555h-8.69v73.714h-3.033v71.895h-6.877v-108.58h-2.406v-41.26zM1431.94 915.68l6.408 6.83 2.345-2.225-4.627-4.92c-.145.202-.22.314-.22.502-.02.306-.02.575-.124.846-.318.92-1.55.876-1.906.03-.04-.06-.06-.08-.187-.187a1.983 1.983 0 0 1-.533-.5c-.187-.08-.455-.267-.594-.69-.1-.247-.07-.52-.03-.783.01-.07.05-.163.06-.22-.16-.345-.21-.638-.156-.908h-.438zm81.87-47.712l.09.09a.826.826 0 0 1 .19.376c.136.04.276.07.374.188l.563.627a.806.806 0 0 1-.03 1.16l-4.815 4.54 2.345 2.475 6.752-6.39-4.127-4.355zm-6.408 9.618l-6.752 6.36 2.313 2.474 6.752-6.39zm-9.534 8.99l-6.753 6.36 2.314 2.475 6.75-6.36zm-9.535 8.992l-6.752 6.36 2.314 2.474 6.753-6.36zm-9.534 8.99l-6.753 6.36 2.312 2.475 6.752-6.36zm-9.535 8.99l-6.753 6.36 2.314 2.476 6.75-6.36zm-9.535 8.992l-6.752 6.36 2.313 2.475 6.754-6.36zm-9.535 8.99l-2.468 2.32h4.25c.193 0 .364.08.5.19l.03-.03zm103.972-66.162l1.094 1.034 1.096-1.16-1.095-1.033zm2.19-.125l1.936 1.817 9.222-9.774c.145.192.197.312.22.658 0 .172.02.427.124.69.405 1.12 1.537.773 1.875.03.04-.09.07-.09.19-.187.144-.1.354-.255.562-.532.157-.08.47-.244.594-.658.105-.278.05-.532 0-.783-.01-.08-.06-.17-.06-.09.29-.787.136-1.26-.155-1.723-.01-.07 0-.133 0-.25.01-.13.01-.245 0-.563-.01-.05-.03-.07-.03-.125l.437-.438a.902.902 0 0 0 .22-.596.853.853 0 0 0-.25-.563l-.813-.752c-.33-.302-.822-.257-1.128.06zm1.936 1.817l-1.093 1.19 3.72 3.51 1.093-1.19zm5.41 7.3l1.03.97 1.063-1.16-1-.938zm2.093-.188l1.97 1.88 9.253-9.837c.13.18.206.306.218.595 0 .186.02.453.125.752.317.807 1.433.87 1.875.06.03-.11.05-.154.188-.25.14-.104.325-.233.53-.502.18-.08.467-.232.627-.658.07-.277.01-.535-.03-.783 0-.06.01-.16-.06-.06.31-.79.16-1.278-.125-1.755-.01-.08-.03-.14-.03-.25.01-.126.01-.266 0-.44-.01-.09.01-.16 0-.25l.406-.44a.816.816 0 0 0-.03-1.16l-.782-.72a.83.83 0 0 0-.563-.22h-.03a.807.807 0 0 0-.564.252zm1.97 1.88l-1.063 1.128 3.75 3.57 1.095-1.158zm5.47 7.33l.97.908 1.093-1.16-.97-.907zm2.063-.25l1.97 1.848 9.22-9.837c.145.184.214.32.22.595.01.21.01.477.09.783.317.814 1.52.82 1.875.03.06-.11.08-.126.188-.22.16-.103.362-.255.562-.53a1.08 1.08 0 0 0 .594-.628c.1-.285.05-.59 0-.846-.01-.06 0-.125-.03-.06.28-.776.11-1.25-.157-1.723-.01-.06-.03-.08-.03-.188.01-.146.03-.293 0-.5 0-.08.01-.145 0-.22l.406-.47c.13-.153.25-.352.25-.564-.01-.206-.14-.417-.282-.562l-.78-.752c-.14-.144-.282-.15-.564-.22-.22 0-.416.1-.563.25zm1.97 1.848l-1.096 1.16 3.814 3.6 1.095-1.158zm5.5 7.393l.906.846 1.095-1.16-.905-.846zm2-.313l1.94 1.848 9.22-9.837c.15.187.21.327.22.502 0 .01.03.22.03.22.01.186.04.423.125.627.422 1.173 1.54.76 1.845.06.05-.1.09-.123.22-.22.137-.1.323-.238.53-.5.172-.08.48-.253.625-.66.08-.278.04-.557 0-.814-.02-.07-.07-.118-.09-.06.32-.775.165-1.274-.125-1.723-.01-.08 0-.13 0-.25 0-.13.01-.257 0-.533 0-.05-.03-.1-.03-.156l.406-.44c.317-.34.315-.845-.03-1.158l-.75-.72a.896.896 0 0 0-.594-.22.78.78 0 0 0-.564.25zm1.94 1.848l-1.064 1.128 3.908 3.697 1.062-1.128zm5.595 7.456l.844.783 1.093-1.16-.844-.782zm1.937-.376l1.97 1.848 9.222-9.805c.14.195.204.33.22.66.01.194.02.408.09.657.42 1.17 1.553.81 1.905.06.04-.09.03-.1.155-.187.145-.11.376-.277.564-.532a1.13 1.13 0 0 0 .624-.69c.07-.25.03-.51 0-.752-.01-.05-.05-.137-.06-.125.264-.766.12-1.226-.156-1.69a.67.67 0 0 1-.03-.22c.01-.145.04-.278 0-.596v-.125l.438-.44a.846.846 0 0 0-.06-1.16l-.78-.72c-.312-.317-.825-.275-1.127.03zm1.97 1.848l-1.094 1.16 3.97 3.728 1.063-1.16zm5.66 7.52l.78.72 1.062-1.128-.78-.72zm1.842-.408l1.94 1.848 9.25-9.836c.152.194.212.312.22.595.01.2.02.492.126.783.42 1.12 1.48.763 1.875 0 .05-.102.06-.1.188-.187.13-.11.33-.264.53-.53.166-.08.47-.257.595-.66.1-.275.06-.533 0-.782 0-.06.02-.14-.03-.06.32-.79.125-1.3-.156-1.755-.01-.06 0-.09 0-.22.01-.138.03-.276 0-.47-.01-.07-.03-.168-.03-.25l.406-.44a.81.81 0 0 0-.03-1.16l-.782-.72c-.33-.318-.853-.28-1.156.03zm1.94 1.848l-1.065 1.128 4.002 3.79 1.062-1.158zm5.72 7.55l.72.69 1.06-1.128-.718-.69zm1.78-.438l1.97 1.848 9.253-9.836c.132.185.2.302.22.595 0 .213.02.458.09.72.435 1.176 1.577.783 1.876.06.05-.104.07-.13.22-.218.144-.104.344-.232.53-.5.16-.08.455-.253.594-.66.09-.277.06-.557.03-.813-.02-.06-.01-.16-.06-.06.318-.802.12-1.268-.156-1.723v-.25c0-.137.01-.266 0-.44-.01-.09-.03-.184-.03-.28l.44-.44c.304-.32.284-.81-.03-1.128l-.813-.752c-.316-.29-.82-.258-1.125.06zm1.97 1.848l-1.062 1.128 4.032 3.79h.09l1.032-1.096zm419.637-369.82v1.66c0 6.923 4.827 12.734 11.318 14.192v8.27a127.16 127.16 0 0 0-42.952 8.553l-1.875-4.51c3.372-2.67 5.565-6.792 5.565-11.435v-11.403a152.194 152.194 0 0 1 27.946-5.325zm28.98 0c9.588.912 18.94 2.722 27.947 5.326v11.403c0 4.643 2.185 8.765 5.564 11.435l-1.874 4.51a127.28 127.28 0 0 0-42.953-8.55v-8.27c6.48-1.428 11.317-7.262 11.317-14.193zm-85.935 17.074c.177 7.876 6.618 14.19 14.505 14.19 1.117 0 2.177-.174 3.22-.406l1.75 4.23a128.275 128.275 0 0 0-36.418 24.404l-10.66-10.62v-13.062c8.473-7.204 17.71-13.504 27.603-18.734zm142.89 0c8.293 4.393 16.098 9.532 23.415 15.32a14.442 14.442 0 0 0-.595 4.04v15.1c0 .662.06 1.335.156 1.974l-6.03 6.015c-10.58-10.09-22.865-18.387-36.42-24.405l1.75-4.26c1.044.23 2.135.406 3.252.406 7.888 0 14.295-6.315 14.474-14.19zm-74.617 11.278v55.67c-7.015.315-13.768 1.664-20.1 3.977l-21.257-52.692c12.884-4.958 26.785-6.607 41.358-6.955zm6.314 0h.03a123.24 123.24 0 0 1 41.357 8.176l-21.257 51.47c-6.32-2.303-13.092-3.662-20.132-3.977zm-53.517 10.62l21.257 51.47a68.803 68.803 0 0 0-17.037 11.404l-39.263-39.347c10.21-9.724 22.022-17.716 35.043-23.527zm100.752 0a124.364 124.364 0 0 1 35.042 23.527l-39.263 39.347a68.125 68.125 0 0 0-17.068-11.403zm-150.393 17.856l7.158 7.175c-10.08 10.61-18.375 22.915-24.383 36.495l-10.785-4.48v-9.492c0-4.122-1.72-7.843-4.47-10.463a147.09 147.09 0 0 1 9.033-13.94c2.594 2.452 6.08 3.977 9.94 3.977 6.16 0 11.396-3.844 13.506-9.273zm221.166 2.256c4.123 5.396 7.92 11.052 11.316 16.98a14.468 14.468 0 0 0-4.44 10.463v9.46l-10.815 4.48c-6.004-13.578-14.286-25.885-24.35-36.496l4.063-4.073c2.618 3.75 6.965 6.203 11.88 6.203 5.243 0 9.814-2.822 12.347-7.017zm-211.038 7.863l39.263 39.38c-4.62 5.07-8.43 10.803-11.38 17.072l-51.36-21.302a123.914 123.914 0 0 1 23.477-35.15zm179.777 0a124.247 124.247 0 0 1 23.476 35.15l-51.36 21.302c-2.933-6.27-6.79-12-11.38-17.073zm-93.06 19.298v50.407l-19.227-46.584c6.06-2.213 12.496-3.506 19.225-3.822zm6.343 0c6.73.317 13.18 1.61 19.226 3.823l-19.227 46.584zm-31.416 6.266l19.257 46.584-35.574-35.682a65.728 65.728 0 0 1 16.317-10.902zm56.488 0a66.556 66.556 0 0 1 16.317 10.902l-35.574 35.682zm-156.333 10.307l8.44 3.54c-5.17 13.396-8.122 27.882-8.502 43.044h-13.318v-3.32c0-6.492-4.227-11.982-10.097-13.847.77-5.878 1.885-11.615 3.283-17.262a14.745 14.745 0 0 0 5.752 1.19c7.6 0 13.83-5.87 14.442-13.345zm256.146 0c.613 7.46 6.86 13.346 14.474 13.346 2.034 0 3.967-.43 5.72-1.19a154.216 154.216 0 0 1 3.314 17.26c-5.852 1.865-10.128 7.355-10.128 13.846v3.32h-13.286c-.373-15.16-3.333-29.647-8.503-43.043zm-177.09 5.075l35.576 35.62-46.485-19.267a67.327 67.327 0 0 1 10.91-16.352zm98.065 0a66.295 66.295 0 0 1 10.91 16.353l-46.485 19.3zm-164.805.03l51.33 21.334c-2.288 6.318-3.64 13.09-3.97 20.144h-55.55c.362-14.58 3.22-28.552 8.19-41.478zm231.545 0c4.964 12.926 7.818 26.897 8.19 41.478h-55.55a67.73 67.73 0 0 0-3.97-20.144zm-178.152 22.18l46.485 19.298h-50.266a66.767 66.767 0 0 1 3.78-19.298zm124.73 0a65.378 65.378 0 0 1 3.813 19.298h-50.298zm-203.818 25.657h13.318c.373 15.137 3.336 29.627 8.502 43.075l-8.47 3.51a14.482 14.482 0 0 0-14.41-12.908c-1.996 0-3.9.366-5.63 1.096a153.427 153.427 0 0 1-3.125-15.57 14.518 14.518 0 0 0 9.815-13.752zm17.506 0h55.55c.33 7.046 1.682 13.788 3.97 20.112l-51.33 21.303c-4.964-12.908-7.818-26.833-8.19-41.415zm57.8 0h50.267l-46.484 19.267a67.11 67.11 0 0 1-3.78-19.267zm82.027 0h50.298a65.357 65.357 0 0 1-3.814 19.267zm52.55 0h55.55c-.366 14.582-3.23 28.507-8.19 41.415l-51.33-21.303a67.066 67.066 0 0 0 3.97-20.112zm59.737 0h13.286v5.45c0 6.386 4.11 11.82 9.847 13.754a148.475 148.475 0 0 1-3.126 15.57 14.717 14.717 0 0 0-5.628-1.13c-7.47 0-13.606 5.65-14.41 12.94l-8.473-3.54c5.177-13.423 8.13-27.908 8.502-43.045zm-144.828 7.143l-1.345 3.258-31.01 31.045a66.35 66.35 0 0 1-10.91-16.32zm33.354 0l43.265 17.982a66.025 66.025 0 0 1-10.91 16.32l-31.01-31.044zm-19.85 5.576v50.406c-6.738-.32-13.173-1.624-19.225-3.822zm6.345 0l19.226 46.584c-6.057 2.198-12.498 3.5-19.227 3.822zm-65.177 13.25c2.95 6.25 6.76 12.024 11.38 17.106l-39.264 39.347c-9.7-10.23-17.68-22.1-23.477-35.15zm77.463 0l5.22 9.055 8.846 21.176c-.435.2-.844.473-1.28.69zm-30.95.03l-12.753 30.89c-.43-.208-.86-.48-1.282-.69l8.847-21.176zm77.776.09l51.36 21.304c-6.08 12.924-14.066 24.794-23.757 35.024l-39.263-39.347c4.59-5.083 8.442-10.837 11.66-16.98zm-92.717 5.64l-11.91 16.103c-.73-.63-1.484-1.225-2.22-1.88zm60.83.03l14.16 14.19c-.72.658-1.474 1.252-2.25 1.88zm-76.555 15.758c.804.73 1.67 1.42 2.5 2.1l-33.103 44.766c-3-2.355-5.89-4.873-8.66-7.52zm92.312 0l39.262 39.38a126.757 126.757 0 0 1-8.66 7.486l-33.104-44.767c.84-.677 1.686-1.37 2.5-2.098zm-163.398 1.38c6.007 13.56 14.303 25.868 24.382 36.464l-7.252 7.3c-2.185-5.224-7.37-8.96-13.41-8.96a14.39 14.39 0 0 0-9.754 3.79c-3.296-4.445-6.25-9.077-9.034-13.878a14.518 14.518 0 0 0 4.283-10.338v-9.93zm234.45 0l10.817 4.447v9.93a14.47 14.47 0 0 0 4.282 10.307 152.663 152.663 0 0 1-11.285 16.885c-2.582-4.037-7.082-6.767-12.223-6.767-4.802 0-9.057 2.34-11.692 5.92l-4.25-4.26a128.366 128.366 0 0 0 24.35-36.464zm-147.64 9.334c.45.24.874.505 1.312.72l-21.257 51.41a131.72 131.72 0 0 1-1.563-.69zm60.83 0l21.508 51.44c-.517.235-1.006.466-1.53.69l-21.29-51.408c.46-.216.88-.48 1.313-.72zm-53.672 3.133a68.475 68.475 0 0 0 20.1 4.01v55.636c-14.564-.347-28.49-3.203-41.388-8.176zm46.546 0l21.288 51.44c-12.9 4.99-26.832 7.86-41.39 8.206V772.07a68.4 68.4 0 0 0 20.1-4.01zm-68.867 2.82l-21.413 37.184a199.83 199.83 0 0 1-4.064-2.757zm91.187 0l25.477 34.427a151.645 151.645 0 0 1-4.094 2.757zm-94.406 19.735l-9.44 22.587c-.908-.497-1.81-.998-2.69-1.504zm97.625 0l12.13 21.083c-.88.505-1.79 1.006-2.69 1.504zm-137.2 5.92c2.912 2.794 5.99 5.42 9.16 7.926l-14.724 19.926a153.762 153.762 0 0 1-5.066-4.167v-13.03zm176.776 0l6.063 6.11a15.365 15.365 0 0 0-.156 2.286v15.133c0 1.253.168 2.487.47 3.665-.252.19-.532.45-.814.658l-14.723-19.924c3.167-2.505 6.24-5.127 9.16-7.926zm-161.96 12.156c1.468 1.028 2.96 2.03 4.47 3.008l-12.38 21.46a198.04 198.04 0 0 1-6.814-4.574zm147.142 0l14.724 19.925c-2.248 1.594-4.52 3.09-6.846 4.574l-12.38-21.492c1.527-.987 3.02-1.98 4.502-3.007zm-136.608 6.673c1.036.606 2.09 1.136 3.157 1.692l-4.906 11.623a14.42 14.42 0 0 0-6.534 10.37c-1.368-.757-2.74-1.453-4.063-2.225zm126.073 0l12.38 21.46c-1.357.772-2.752 1.468-4.096 2.224-.58-4.377-3.05-8.123-6.564-10.37l-4.845-11.622c1.043-.556 2.084-1.086 3.127-1.692zm-116.6 4.856c.515.225 1.035.52 1.594.75l-2.344 5.67a11.37 11.37 0 0 0-1.845-.22zm107.128 0l2.595 6.202c-.614.03-1.24.1-1.845.22l-2.345-5.67c.535-.222 1.062-.517 1.595-.752zm-99.72 3.163c13.384 5.158 27.86 8.147 42.983 8.52v5.296c-6.49 1.45-11.348 7.235-11.348 14.16v4.666a152.02 152.02 0 0 1-27.947-5.294v-9.805c.01-4.866-2.378-9.176-6.063-11.81zm92.28 0l2.376 5.733c-3.65 2.644-6.063 6.945-6.063 11.81v9.806a152.317 152.317 0 0 1-27.947 5.294v-4.667c0-6.925-4.836-12.71-11.317-14.16v-5.296c15.115-.375 29.576-3.363 42.953-8.52zm-137.514 9.43c2.39 1.7 4.84 3.32 7.347 4.887l-9.907 17.2c-2.974-2.073-6.12-4.045-9.473-5.827zm182.78 0l30.353 40.976h-16.912l-20.786-36.09c2.498-1.59 4.944-3.187 7.346-4.887zm-169.4 8.52a158.323 158.323 0 0 0 6.503 3.51l-9.13 21.803c-2.29-2.58-4.877-5.015-7.657-7.362zm155.99 0l18.693 32.456h-13.036l-12.128-28.947a200.08 200.08 0 0 0 6.47-3.51zm-120.447 14.756a153.85 153.85 0 0 0 27.947 5.137v5.23c0 8.027 6.486 14.537 14.505 14.537 8 0 14.505-6.51 14.505-14.536v-5.23a156.162 156.162 0 0 0 27.947-5.14c.05 8.008 6.55 14.474 14.536 14.474 6.278 0 11.627-4.038 13.63-9.65l5.375 12.877h-10.034v24.278h-132.95c-.222-8.637-3.29-17.172-8.658-25.03l5.063-12.125c2.002 5.61 7.348 9.65 13.66 9.65 7.98 0 14.423-6.467 14.473-14.474zm-106.91 50.28c10.8 5.222 20.44 9.324 29.01 12.374h-57.174c8.49-3.115 17.828-7.167 28.164-12.375zm-466.715 25l3.722 3.915-.595.563h-3.127z" fill="#f0b54d"/><path d="M3500 1095.155H0V1340h3500z" fill="#6d6e70"/></svg>