<svg xmlns="http://www.w3.org/2000/svg" preserveAspectRatio="xMinYMin slice" width="350" height="134"><defs><clipPath><path d="M0 980h1400V0H0v980z"/></clipPath><clipPath id="a"><path d="M42.936 700.188h187.217V590.553H42.936v109.635z"/></clipPath><clipPath id="b"><path d="M927.512 845.306h178.028v-112.11H927.512v112.11z"/></clipPath><clipPath id="c"><path d="M467.984 930.662h178.104V821.857H467.984v108.805z"/></clipPath><clipPath id="d"><path d="M1170.11 618.77h150.17v-90.757h-150.17v90.758z"/></clipPath><clipPath><path d="M0 980h1400V0H0v980z"/></clipPath><clipPath id="e"><path d="M66.936 713.518h187.217V603.884H66.936v109.634z"/></clipPath><clipPath id="f"><path d="M927.512 845.306h178.028v-112.11H927.512v112.11z"/></clipPath><clipPath id="g"><path d="M467.984 930.662h178.104V821.857H467.984v108.805z"/></clipPath><clipPath id="h"><path d="M1170.11 618.77h150.17v-90.757h-150.17v90.758z"/></clipPath></defs><g><path d="M.086 108.76H349.77V0H.087z" fill="#f8daa6"/><g><g><path d="M50.92 38.85c.002-.507.09-.98.343-1.382.392-.62 1.27-.89 1.958-.637.36.133.57.085.837-.198 1.65-1.747 3.692-2.376 6.007-1.818 2.415.583 3.95 2.176 4.598 4.572.168.624.174 1.29.26 1.978.28-.035.572-.07.865-.11 1.797-.24 3.552 1.07 3.878 2.854.197 1.08-.057 2.058-.712 2.878-.71.89-1.694 1.34-2.867 1.334-3.643-.014-7.285-.013-10.928-.02-1.428 0-2.857.008-4.285-.007-2.26-.025-4.287-1.89-4.517-4.14-.275-2.687 1.496-4.888 4.213-5.237.153-.02.305-.057.35-.066" fill="#e8e8e8" fill-rule="evenodd" clip-path="url(#a)" opacity=".7"/></g><g><path d="M170.836 20.944c1.62-.768 3.15-.76 4.455.525 1.314 1.294 1.253 2.844.58 4.5.387 0 .7-.01 1.01.002 1.146.047 2.012.77 2.233 1.854.2.978-.34 2.03-1.33 2.47-.32.143-.71.184-1.07.185-3.12.015-6.24.01-9.36.01-2.29 0-4.58 0-6.873-.002-1.97-.004-3.572-1.585-3.58-3.53-.007-1.93 1.602-3.535 3.564-3.55.26-.002.517 0 .86 0-.584-1.827-.485-3.508.68-5.017.744-.96 1.72-1.565 2.907-1.808 1.427-.293 2.738.033 3.91.867 1.177.835 1.713 2.073 2.016 3.494" fill="#e8e8e8" fill-rule="evenodd" clip-path="url(#b)" opacity=".7"/></g><g><path d="M118.913 14.758c.578.143 1.103.19 1.55.402 1.004.48 1.445 1.512 1.186 2.558-.243.976-1.133 1.66-2.2 1.687-.156.004-.314 0-.47 0-5.31 0-10.62.007-15.93-.004-1.492 0-2.594-.713-3.23-2.047-.633-1.332-.413-2.605.496-3.752.4-.502.92-.857 1.532-1.056.24-.08.31-.21.316-.457.083-3.252 2.301-5.82 5.492-6.228 2.958-.38 5.682 1.363 6.67 4.195.216.62.214.62.865.58 1.95-.12 3.674 1.458 3.722 3.408.006.26 0 .52 0 .715" fill="#e8e8e8" fill-rule="evenodd" clip-path="url(#c)" opacity=".7"/></g><g><path d="M201.724 50.524c.662-.03 1.268-.144 1.85-.07 1.47.183 2.516 1.53 2.415 3-.1 1.45-1.305 2.636-2.757 2.67-1.18.027-2.358.008-3.538.008-2.96 0-5.922.006-8.884-.002-1.72-.005-3.092-1.106-3.494-2.775-.537-2.232 1.356-4.463 3.648-4.298.558.04.558.04.72-.514.604-2.09 2.44-3.58 4.61-3.737 2.037-.148 4.07 1.06 4.956 2.962.336.723.46 1.5.473 2.292.004.17 0 .337 0 .464" fill="#e8e8e8" fill-rule="evenodd" clip-path="url(#d)" opacity=".7"/></g><g><path d="M116.492 65.47c0-.507.09-.98.342-1.382.393-.62 1.27-.89 1.958-.637.36.133.57.085.836-.198 1.65-1.747 3.692-2.377 6.007-1.818 2.415.583 3.95 2.176 4.598 4.572.168.624.175 1.29.26 1.978.28-.035.572-.07.865-.11 1.797-.24 3.552 1.068 3.878 2.854.197 1.08-.057 2.058-.712 2.878-.71.89-1.694 1.34-2.867 1.334-3.643-.014-7.285-.013-10.928-.02-1.43 0-2.858.008-4.286-.007-2.26-.025-4.287-1.89-4.517-4.14-.275-2.687 1.496-4.888 4.213-5.237.154-.02.306-.057.352-.066" fill="#e8e8e8" fill-rule="evenodd" clip-path="url(#e)" opacity=".7"/></g><g><path d="M300.836 41.23c1.62-.768 3.15-.76 4.455.525 1.314 1.295 1.253 2.845.58 4.5.387 0 .7-.01 1.01.003 1.146.047 2.012.77 2.233 1.854.2.978-.34 2.03-1.33 2.47-.32.143-.71.184-1.07.185-3.12.014-6.24.008-9.36.008-2.29 0-4.58.002-6.872-.002-1.97-.003-3.572-1.584-3.58-3.528-.007-1.932 1.602-3.536 3.564-3.55.26-.003.517 0 .86 0-.584-1.828-.485-3.51.68-5.018.744-.96 1.72-1.566 2.907-1.81 1.427-.29 2.738.034 3.91.868 1.177.836 1.714 2.074 2.016 3.495" fill="#e8e8e8" fill-rule="evenodd" clip-path="url(#f)" opacity=".7"/></g><g><path d="M248.913 35.044c.578.143 1.103.19 1.55.402 1.004.48 1.446 1.512 1.186 2.558-.243.976-1.133 1.66-2.2 1.687-.156.005-.314.002-.47.002-5.31 0-10.62.006-15.93-.005-1.492-.003-2.594-.714-3.23-2.048-.633-1.333-.413-2.606.496-3.753.4-.503.92-.858 1.532-1.057.24-.08.31-.21.316-.457.083-3.252 2.302-5.82 5.492-6.228 2.958-.38 5.682 1.364 6.67 4.196.216.62.214.62.865.58 1.95-.12 3.674 1.46 3.722 3.41.006.258 0 .518 0 .714" fill="#e8e8e8" fill-rule="evenodd" clip-path="url(#g)" opacity=".7"/></g><g><path d="M331.724 70.81c.662-.03 1.268-.144 1.85-.07 1.47.183 2.516 1.53 2.415 3-.1 1.45-1.305 2.636-2.757 2.67-1.18.027-2.358.008-3.538.008-2.96 0-5.922.006-8.884-.002-1.72-.005-3.092-1.106-3.494-2.775-.537-2.23 1.356-4.462 3.648-4.297.558.04.558.04.72-.514.604-2.092 2.44-3.58 4.61-3.738 2.037-.148 4.07 1.06 4.956 2.962.336.723.46 1.5.474 2.292.003.17 0 .337 0 .464" fill="#e8e8e8" fill-rule="evenodd" clip-path="url(#h)" opacity=".7"/></g></g><path d="M313.568 7.332v4.126h-.243v11.425h-.182v-3.888h-.484v4.474h-.3v-7.52h-.486v7.52h-.78v11.186h-1.958v16.34h-2.445V68.43h-.02v1.522h-.54v-4.517h.43v-.912h-.43v-1.626h-.633v-1.015h-.506v-.604h-.278v-.815h-.56V59.045h-.2v-.662h-.67v-.457h-.405v-1.012h-.43v1.012h-.407v.457h-.672v.66h-.2v1.42h-.557v.815h-.28v.604h-.507v1.015h-.63v1.626h-.432v.912h.432v4.517h-.538V68.43h-2.823v1.522h-.564v21.923h-.604V50.692h-1.82v-1.447h-2.766v1.447h-1.82v20.012h-1.08v-1.917h-1.914v-1.32h-.42v-1.2h-.477v-.597h-1.197v-5.75h-.478v5.75h-.15v-.777h-.597v.777h-.926v.598h-.778v1.2h-1.617v1.32h-1.642V61.36h-2.334v-.9h-5.026v-3.946h-4.492v3.947h-5.03v.9h-2.332v30.51h-.69V58.958h-.86v-3.67h-.495v-1.37h-.405v-.856h.3v-.473h-.3v-3.13h-.885l-2.216-2.95-2.216 2.95h-.885v3.13h-.3v.474h.3v.855h-.406v1.37h-.494v3.67h-.86V91.87h-1.006v-70.61l-.56-.07v-5.703l-.016.002c-.21-.47-2.677-.236-5.58.536-2.7.72-4.842 1.66-5.08 2.2l-.026.005v1.557l-.907-.12v2.83h-.882v13.173h-1.384v.473h-.615v17.412h-4.41v11.73H226v22.09h-1.294V85.64h-.028l-2.873-2.998-.1.098-2.776 2.9h-.124v1.74h-.828l-3.282-4.44c.265.315.662.52 1.11.52.8 0 1.45-.654 1.45-1.457v-1.51c0-.07-.006-.14-.016-.206.498-.618.947-1.273 1.348-1.96.18.078.382.124.593.124.803 0 1.45-.65 1.45-1.453v-1.51c0-.406-.167-.773-.433-1.037.157-.583.284-1.182.372-1.788.777-.025 1.4-.664 1.4-1.45V69.7c0-.778-.61-1.412-1.373-1.45-.09-.674-.22-1.332-.39-1.972.26-.265.422-.627.422-1.027v-1.507c0-.804-.65-1.454-1.452-1.454-.205 0-.396.04-.572.116-.406-.697-.86-1.362-1.363-1.986.006-.058.01-.118.01-.176v-1.51c0-.802-.648-1.453-1.448-1.453-.474 0-.89.226-1.157.576-.8-.63-1.662-1.183-2.575-1.645v-.962c0-.804-.65-1.454-1.45-1.454-.747 0-1.362.564-1.445 1.29-.902-.254-1.84-.43-2.8-.517v-.824c0-.806-.652-1.45-1.452-1.45-.802 0-1.45.645-1.45 1.45v.823c-.963.088-1.9.263-2.807.517-.083-.726-.693-1.29-1.44-1.29-.8 0-1.45.65-1.45 1.453v.962c-1.038.527-2.007 1.166-2.897 1.9-.23-.492-.73-.832-1.31-.832-.802 0-1.45.65-1.45 1.454v1.51c0 .22.05.432.14.62-.367.492-.71 1.006-1.02 1.538-.175-.075-.37-.116-.57-.116-.802 0-1.452.65-1.452 1.456v1.507c0 .4.163.763.426 1.027-.17.642-.305 1.298-.393 1.97-.767.04-1.376.67-1.376 1.448v1.513c0 .787.623 1.426 1.404 1.452.09.606.217 1.206.373 1.788-.27.265-.432.63-.432 1.037v1.51c0 .802.65 1.454 1.452 1.454.21 0 .41-.047.59-.124.31.527.648 1.035 1.013 1.52-.096.194-.153.417-.153.647v1.51c0 .803.65 1.454 1.45 1.454.593 0 1.1-.353 1.326-.865.105.09.21.176.32.26l-1.283 1.736c-1.164-.515-2.497-.84-3.926-.884-4.648-.144-8.716 3.16-8.813 6.263-.025.818.16 1.455.55 1.904h-4.23c.046-.536.083-1.07.09-1.606.01-.508-.077-1.02-.068-1.528.05.034.114.056.187.056.026 0 .053-.005.078-.006.096.073.195.125.284.125.078 0 .034-.09-.035-.184.07-.026.13-.067.188-.112.114.054.237.09.36.09h.105c.078 0 .157-.046.157-.13 0-.04-.014-.078-.032-.117.083.026.166.038.25.038h.213c.183 0 .543-.08.472-.345-.016-.06-.054-.114-.1-.157l.02-.01.1-.077c.05-.046.09-.1.108-.17v-.044c.062-.038.116-.094.122-.172.005-.054-.018-.104-.056-.146-.002-.048-.012-.1-.025-.148.25-.224.324-.604-.022-.698.082-.03.13-.11.13-.198v-.04c.14-.132.176-.25-.055-.26.1-.07.184-.157.225-.273.012-.035.016-.07.02-.1.038-.007.074-.017.083-.047.018-.06-.105-.125-.137-.14l-.005-.004c-.016-.022-.033-.045-.057-.066l-.012-.025-.016-.02c.24-.153.162-.56-.13-.657.133-.096.222-.246.2-.416-.006-.036-.024-.066-.045-.094-.02-.065-.084-.117-.147-.14v-.02c0-.07-.065-.142-.11-.188-.04-.04-.087-.076-.137-.11.06-.005.123-.014.18-.028.017-.004.126-.027.12-.072-.005-.053-.05-.096-.086-.132-.022-.024-.065-.034-.106-.043l.037-.054c.034-.034-.014-.114-.03-.143-.052-.085-.12-.162-.192-.232-.03-.028-.06-.055-.09-.08.03-.02.048-.04.047-.064-.004-.113-.308-.106-.407-.102l.003-.02V82.73c.082-.12-.004-.26-.11-.342.08.002.157-.008.063-.062-.083-.052-.177-.088-.273-.116.054-.114-.124-.185-.228-.185l-.057.003c.045-.033.073-.07.084-.116.022-.006.046-.012.07-.016.178-.027-.034-.32-.076-.366-.11-.126-.292-.27-.474-.244l-.053.01c-.07-.08-.272-.218-.37-.246l-.002-.006c-.083-.103-.223-.17-.352-.106l-.006.003c-.07-.04-.135-.06-.166-.03l-.022.03-.05-.014c-.015-.036-.032-.07-.056-.103-.08-.107-.218-.098-.322-.035-.034.018-.072.053-.103.094l-.04-.022c-.065-.028-.192-.053-.16.057.007.028.017.054.028.08-.04-.028-.09-.054-.14-.068-.048-.013-.1-.015-.147 0l-.034.015c-.032-.018-.063-.032-.095-.044-.022-.01-.075-.03-.097-.002-.02.025.01.076.025.094.038.05.075.094.122.135-.08-.027-.158-.05-.19-.05-.122 0-.055.05.052.093-.06.02-.116.042-.12.06-.03.002-.056.01-.083.02-.025 0-.035.01-.034.017-.05.034-.08.083-.078.154.003.044.01.085.025.123-.076.058-.11.14-.107.232-.028-.032-.056-.058-.09-.078-.03-.02-.02.032-.02.037.01.04.026.078.045.116-.09.002-.177.038-.22.12l-.015.04c-.052-.042-.123-.087-.118-.04.004.035.017.07.034.106.027.055.06.108.1.156-.058.014-.075.073-.075.138-.026 0-.055 0-.077.006-.07.012-.13.05-.18.094-.044.042-.078.096-.086.157-.025 0-.047.004-.06.018v.076c.012.036.022.074.035.11.008.028.022.052.038.075-.037.036-.06.083-.072.132V83.247s-.143.047-.125.16c.017.112-.004.225.228.516.233.292-.214.188-.196.3.017.113.035.333.303.374.268.04.142.216.053.338-.088.122-.274-.074-.306.3-.032.376-.085.217-.02.377.067.16.075.255.164.373.09.117.034.052.015.228-.018.177-.093.17-.162.34-.068.167.042.34.16.478.118.14.15.192.197.374.046.18.06.193.016.338-.046.145-.075.117.23.338.307.222-.153.146-.124.3.028.157.41.267.41.267.057.15.237.262.386.27.05.003.098.002.147.006.106-.008.206-.035.3-.082l.06-.033.025.012c.1.05.196.074.303.084.01.418.064.838.057 1.262-.01.567-.043 1.138-.09 1.708h-2.03v.078c-.526-.012-7.22-.163-7.19.154h-.606V90.44c0-.045-.036-.08-.08-.08h-.044v-.382h.122c.045 0 .078-.033.078-.078v-.25c0-.045-.033-.082-.078-.082h-.122v-.326c0-.045-.037-.08-.08-.08h-.17l-.51-.465c.06-.056.094-.135.094-.22 0-.166-.136-.303-.303-.303-.168 0-.306.136-.306.304 0 .08.032.156.085.21l-.5.473h-.17c-.042 0-.053.044-.077.082v.326h-.122c-.044 0-.08.037-.08.082v.25c0 .04.092.07.087.078h.115v.383h-.047c-.043 0-.072.035-.077.08v1.666h-1.257c.004 0 .007 0 .01-.003.014-.01.035-.027.056-.054.017-.01.045-.024.06-.066.01-.028.003-.057-.01-.085.033-.082.017-.13-.012-.18v-.022c0-.014 0-.025-.003-.056v-.013l.04-.044c.03-.03.032-.082 0-.113l-.08-.075c-.033-.032-.083-.03-.114.003l-1.097 1.166h-.647l-.192.204h-.247l-.542-.514.3-.323-.28-.263-.3.323-.674-.636.303-.323-.278-.263-.304.324-.678-.636.303-.323-.274-.263-.304.322-.675-.635.3-.324-.278-.263-.304.322-.672-.64.3-.318-.278-.263-.304.32-.675-.637.303-.322-.278-.26-.3.32-.678-.637.303-.323-.685-.645-.178-.166c-.014-.015-.032-.025-.053-.025-.018-.004-.045.01-.06.024l-.148.163c-.016.017-.027.038-.025.06l-.44.47c-.022 0-.042.008-.057.025l-.113.12c-.01.01-.018.022-.022.036-.014.004-.02.01-.03.02l-.06.062c-.015.015-.022.035-.022.056 0 .02.01.045.025.06l6.123 5.776h-.542c-.046 0-.073.035-.082.08v.995h-2.65v2.1h-11.12v-2.282c0-.025-.01-.048-.028-.063l-.19.182h-.873l.657-.62.178.188.278-.263-.178-.19.675-.635.178.188.278-.263-.177-.188.675-.636.18.188.277-.264-.178-.19.675-.633.178.188.278-.264-.178-.19.675-.636.178.19.28-.262-.18-.19.676-.637.177.19.278-.262-.178-.19.675-.637.178.19.278-.262-.178-.19.54-.51-.1-.108c-.014-.016-.036-.025-.058-.025l-.444-.472c0-.02-.007-.04-.022-.057l-.147-.162c-.032-.03-.083-.033-.117-.003l-.972.918-1.403-1.494c-.014-.018-.047-.03-.06-.026-.02 0-.04.008-.055.022l-.038.034-.012.013-.028.028c-.034.033-.037.082-.006.114l.043.044c0 .008 0 .017-.002.028v.044c0 .01.002.016-.003.03-.024.043-.043.09-.015.152 0 .007-.002.013-.003.018-.004.025-.008.055 0 .085.014.038.045.053.062.063.02.026.038.042.052.053.015.01.015.01.02.02.04.08.154.08.187-.004.01-.027.01-.055.01-.087.002-.018.01-.03.023-.048l1.032 1.096-.75.708-1.407-1.494c-.03-.033-.08-.036-.113-.003l-.08.074c-.03.03-.03.08 0 .113l.04.044v.03c-.002.015 0 .03 0 .043 0 .012 0 .016-.006.03-.025.042-.045.086-.017.15l-.003.023c-.003.025-.007.055.003.082.012.04.04.056.06.066.02.025.04.04.056.05.01.01.01.012.017.022.036.07.137.112.185-.006.01-.024.013-.048.015-.085 0-.018.008-.03.022-.047l1.028 1.097-.75.708-1.404-1.495c-.03-.033-.085-.035-.116-.003l-.078.072c-.014.015-.023.035-.025.057 0 .02.006.043.02.06l.043.043c0 .007-.003.015-.003.025-.003.02 0 .033 0 .047 0 .01.002.013-.003.027-.024.04-.043.09-.016.154 0 .007-.002.013-.003.02-.005.026-.006.054.003.084.014.038.04.055.06.063.02.028.04.044.053.053.012.01.013.012.017.02.032.073.145.113.19-.007.01-.027.008-.053.01-.084 0-.02.01-.03.022-.048l1.03 1.096-.753.708-1.404-1.494c-.03-.032-.08-.035-.112-.003l-.077.07c-.017.015-.028.036-.028.057-.002.022.01.044.025.06l.04.043c0 .01-.002.016-.003.026v.05c0 .01 0 .014-.006.025-.022.042-.04.09-.01.154l-.004.022c-.004.025-.007.053.003.082.01.038.038.053.055.062.02.028.042.044.056.054.014.01.018.012.023.02.033.076.146.106.185-.005.01-.03.012-.054.012-.088 0-.017.007-.03.022-.047l1.032 1.1-.75.707-1.407-1.497c-.016-.016-.046-.028-.06-.025-.018 0-.037.01-.053.022l-.037.034-.016.016-.027.028c-.032.03-.034.08-.003.113l.044.044-.003.025v.044c.002.013 0 .017-.005.03-.023.043-.04.09-.013.155 0 .007-.002.012-.003.02-.006.025-.008.053 0 .084.015.038.04.054.06.063.02.026.04.043.055.053.014.01.013.01.02.022.034.072.146.1.183-.003.013-.03.015-.06.016-.09.002-.018.008-.03.022-.05l1.03 1.097-.752.708-1.404-1.494c-.03-.03-.08-.035-.112-.002l-.082.075c-.03.032-.032.08-.003.113l.044.044c-.002.01 0 .02-.003.028v.044c0 .012 0 .016-.006.03-.023.042-.04.088-.012.152l-.003.022c-.005.025-.01.052 0 .08.013.04.042.056.06.064.02.027.04.044.055.053.013.01.014.01.02.02.038.083.148.09.187-.007.01-.027.01-.05.012-.082 0-.018.01-.03.022-.05l1.03 1.097-.518.49.57.607-.758.708-.566-.6v-.938c0-.044-.034-.078-.078-.078h-.044v-.16l-.765-.816c-.02-.024-.054-.03-.087-.018-.006-.002-.013-.003-.022-.003h-.12v-.326c0-.045-.04-.082-.082-.082h-.17l-.505-.463c.057-.056.09-.135.09-.22 0-.168-.134-.303-.303-.303-.167 0-.303.134-.303.302 0 .08.03.157.084.213l-.502.47h-.17c-.043 0-.057.044-.08.082v.326h-.12c-.044 0-.08.036-.08.08v.255c0 .04.096.07.09.078h.11v.382h-.044c-.045 0-.073.035-.078.08V93.5h-.047c-.046 0-.08.037-.08.08v.252c0 .033.02.06.048.072h-.084c-.045 0-.08.036-.08.082v1.757h-.127V65.442h-2.535v-.43h-.916v-.53h-1.2v.53H133v.43h-.892V85.43l-2.604-1.226v-.19h-.153v-.14h-.158v-.124h-.194v.125h-.16v.138h-.153v.19l-5.14 2.42v-.03h-.124v-.184h-.07v-.154h-.198v.51h.06v.936h-1.544V60.815h-1.095V59.66h-3.24v1.155h-1.1v34.88h-.874V63.697h-6.725V62.33h-1.438v-1.8h-.48v.683h-.873v-.683h-.175v-3.556h-.223v3.556h-.522v-4.674h-.176v5.357h-1.18v-.683h-.48V62.33h-.83v1.367h-4.888v17.77h-.706v-.568h-.76v-.96H94.58v-.958h-1.575v.958h-1.322v.96h-.76v.566h-3.326v.507h-.606v.79h.607v12.982h-.844V77.63h-.566v-3.37h-.4v-2.07l-2.48-1.488v-.31h-.25l-.002-.047-.066-.032.018-.36.028-.38h.047s.013-.426-.025-.444c-.038-.02-.128-.038-.128-.038v-.054l.006-.025c.018-.02.03-.054.03-.09 0-.064-.034-.12-.077-.12-.045 0-.082.056-.082.12 0 .036.013.07.03.09l.007.025v.054s-.09.018-.128.037c-.037.017-.022.444-.022.444h.047l.025.38.022.36-.067.03-.006.048h-.25v.31l-2.48 1.488v2.07h-.4v3.37h-.565v18.115h-.625V61.642H76.36v-13.63h-1.633v-9.333H73.34v-6.627h-.354v6.134h-.406v-.47h-.016v-12.15h-.725v6.15h-.255v6h-.568v-9.06h-.204v-3.443h-.556v3.443h-.203v9.53h-.15v-3.242H69.5v3.734h-.253v-6.273h-.403v6.272h-.65v9.33h-1.632v13.632h-2.04v14.542h-.02v1.272h-.45v-3.77h.36v-.76h-.36V71.57h-.53v-.846h-.42v-.508h-.232v-.676h-.466v-1.185h-.168v-.55h-.56v-.38h-.338v-.85h-.36v.85h-.337v.38h-.558v.55h-.17v1.186h-.465v.676h-.23v.508h-.423v.846h-.528v1.356h-.36v.76h.36v3.77h-.45v-1.272H55.46v1.272h-.47v18.29h-.504V61.387H52.97v-1.21h-2.31v1.21h-1.52v16.695h-.9v-1.6h-1.597v-1.1h-.35v-1h-.397v-.5H44.9v-4.798h-.4v4.797h-.127v-.65h-.497v.65H43.1v.5h-.646v1h-1.347v1.1h-1.373v-6.194H37.79v-.748h-4.195v-3.293h-3.748v3.293h-4.195v.748h-1.945v25.454h-.578v-27.46h-.72v-3.056H22V64.08h-.337v-.715h.25v-.395h-.25v-2.61h-.738l-1.85-2.462-1.85 2.463h-.74v2.61h-.25v.395h.25v.714h-.336v1.146h-.414v3.057h-.72v27.46h-.837V36.837l-.467-.06V32.02l-.012.002c-.176-.392-2.236-.194-4.657.45-2.253.6-4.04 1.382-4.24 1.834l-.017.003v1.3l-.76-.098v2.36H3.29v10.985H2.14v.395h-.516v14.53H.087v47.652l349.83.25V53.46h-3.842v21.3h-.85v-.68h-.913V72.93h-1.585V71.78h-1.888v1.152h-1.59v1.147h-.91v.68h-3.984v.606h-.73v.95h.73v15.56h-1.013V70.163h-.68v-4.04h-.477V63.64l-2.973-1.785v-.37h-.297l-.006-.056-.078-.04.022-.43.032-.455h.06s.017-.51-.03-.533c-.045-.022-.156-.047-.156-.047v-.06l.01-.034c.02-.023.034-.06.034-.105 0-.078-.042-.14-.094-.14-.053 0-.094.063-.094.14 0 .044.013.082.035.106l.01.036v.06s-.106.023-.153.046c-.045.022-.03.533-.03.533h.058l.03.454.026.43-.08.04-.006.055h-.297v.37l-2.973 1.785v2.482h-.478v4.04h-.682v21.714h-.747v-40.88h-2.44v-16.34h-1.96V23.47h-1.664v-7.94h-.422v7.354h-.487v-.568h-.016V7.756h-.87v7.37h-.302v7.19h-.688V11.458h-.24V7.333zm-170.374 718.27l.64.684.235-.223-.463-.492c-.015.02-.022.033-.022.05-.002.032-.002.06-.013.086-.032.092-.155.088-.19.003-.004-.007-.006-.01-.02-.02s-.032-.024-.052-.05c-.02-.008-.046-.026-.06-.07-.01-.023-.007-.05-.003-.077 0-.007.005-.016.006-.022-.016-.034-.02-.063-.015-.09h-.044zm8.187-4.77l.01.008c.01.012.016.024.02.038.013.004.027.007.036.02l.057.062c.032.033.03.086-.003.115l-.482.455.235.247.675-.64-.413-.434zm-.64.96l-.675.637.23.247.677-.64zm-.953.9l-.675.636.23.248.676-.636zm-.954.9l-.675.635.232.248.675-.636zm-.953.898l-.675.636.23.248.676-.636zm-.953.9l-.676.636.233.247.675-.636zm-.954.9l-.675.635.23.247.676-.636zm-.953.898l-.247.232h.425c.02 0 .036.008.05.018l.003-.003zm10.397-6.617l.11.105.11-.116-.11-.104zm.22-.01l.192.18.922-.977c.014.02.02.03.022.066 0 .016.002.042.012.068.04.112.154.077.188.003.004-.008.007-.008.018-.018.015-.01.036-.025.057-.053.014-.01.046-.025.058-.067.01-.027.005-.053 0-.078 0-.008-.006-.017-.006-.01.03-.078.014-.125-.015-.17v-.084c0-.005-.003-.007-.003-.012l.043-.044c.014-.015.022-.038.022-.06-.002-.02-.01-.04-.026-.056l-.08-.075c-.034-.03-.083-.026-.114.006zm.192.18l-.11.12.372.35.11-.118zm.54.73l.103.098.107-.116-.1-.094zm.21-.018l.197.188.925-.984c.013.018.02.03.022.06 0 .018.002.045.012.075.032.082.144.088.188.007.003-.01.005-.016.02-.025.013-.01.03-.023.052-.05.018-.008.046-.024.062-.066.007-.028 0-.054-.003-.078 0-.006 0-.016-.006-.006.03-.08.015-.128-.013-.176 0-.008-.003-.014-.003-.025v-.068l.04-.044c.032-.033.03-.085-.003-.116l-.077-.072c-.016-.015-.037-.022-.056-.022h-.003c-.02 0-.04.01-.056.025zm.197.188l-.107.113.376.357.11-.116zm.547.733l.097.09.11-.115-.097-.09zm.206-.025l.197.185.922-.984c.014.017.02.03.02.058.002.02.002.048.01.08.032.08.152.08.188.002.006-.01.008-.013.018-.022.016-.01.037-.026.057-.053.016-.007.044-.024.06-.063.01-.03.004-.06 0-.085-.002-.006 0-.012-.004-.006.027-.076.01-.124-.017-.17 0-.007-.003-.01-.003-.02 0-.014.003-.03 0-.05v-.022l.04-.047c.014-.014.026-.034.026-.055 0-.02-.014-.042-.028-.057l-.078-.075c-.014-.014-.028-.015-.057-.022-.022 0-.04.01-.056.026zm.197.185l-.11.116.382.36.108-.117zm.55.74l.09.084.11-.116-.09-.084zm.2-.032l.194.185.923-.983c.015.018.02.032.022.05l.003.022c0 .018.004.042.013.063.043.117.155.076.185.006.005-.01.01-.013.022-.022.014-.01.032-.023.053-.05.017-.008.048-.025.063-.065.008-.028.004-.056 0-.082-.002-.007-.007-.012-.01-.006.032-.077.017-.127-.012-.172v-.025c0-.013.002-.026 0-.053l-.002-.016.04-.043c.032-.034.032-.084-.002-.116l-.075-.07c-.015-.015-.038-.023-.06-.023-.02 0-.04.01-.055.025zm.194.185l-.105.113.39.37.107-.113zm.56.746l.085.08.11-.117-.085-.078zm.194-.037l.197.185.924-.98c.013.02.02.033.02.066.002.02.003.04.01.065.042.116.156.08.19.005.005-.01.004-.01.017-.018.015-.01.038-.028.057-.054.017-.008.047-.024.063-.07.007-.024.003-.05 0-.074 0-.006-.005-.014-.006-.013.026-.077.01-.123-.016-.17-.002-.006-.003-.01-.003-.02 0-.016.004-.03 0-.06v-.014l.044-.043c.027-.033.026-.086-.007-.116l-.078-.072c-.03-.032-.083-.028-.113.003zm.197.185l-.108.116.397.373.105-.116zm.567.752l.078.072.107-.113-.08-.073zm.185-.04l.193.184.926-.983c.016.02.022.032.023.06 0 .02.002.05.012.078.042.113.148.077.188 0 .005-.01.006-.01.018-.018.015-.01.035-.027.055-.054.016-.008.046-.025.06-.065.01-.027.005-.053 0-.078 0-.006 0-.014-.004-.006.033-.08.013-.13-.015-.175v-.02c0-.015.003-.03 0-.048l-.003-.025.04-.044c.033-.033.03-.086-.002-.116l-.078-.072c-.033-.032-.086-.028-.116.003zm.193.184l-.106.113.4.38.106-.117zm.572.755l.072.068.106-.113-.072-.07zm.18-.045l.196.185.925-.983c.013.018.02.03.022.06 0 .02.002.045.01.07.042.12.156.08.186.007.005-.01.007-.013.022-.022.015-.01.035-.023.053-.05.017-.008.047-.025.06-.066.01-.027.007-.055.004-.08-.002-.007 0-.017-.006-.007.032-.08.012-.128-.016-.173v-.069l-.003-.03.043-.042c.03-.032.028-.08-.003-.113l-.08-.075c-.033-.03-.083-.026-.114.006zm.196.185l-.107.113.403.38h.008l.104-.11zm41.963-36.982v.166c0 .693.483 1.274 1.132 1.42v.827c-1.513.037-2.957.338-4.295.856l-.188-.45c.337-.268.557-.68.557-1.145v-1.14c.9-.26 1.834-.44 2.794-.532zm2.898 0c.96.09 1.894.272 2.795.533v1.14c0 .465.217.878.555 1.145l-.187.45c-1.34-.517-2.785-.818-4.296-.854v-.827c.65-.142 1.132-.726 1.132-1.42zm-8.593 1.708c.018.787.662 1.42 1.45 1.42.113 0 .22-.02.323-.042l.175.423c-1.354.602-2.585 1.432-3.642 2.44l-1.066-1.062v-1.306c.848-.72 1.77-1.35 2.76-1.874zm14.29 0c.83.44 1.61.953 2.34 1.532-.036.13-.058.263-.058.404v1.51c0 .066.006.133.015.197l-.603.6c-1.058-1.008-2.286-1.838-3.642-2.44l.175-.426c.104.023.214.04.325.04.79 0 1.43-.63 1.448-1.418zm-7.462 1.127v5.567c-.702.032-1.377.167-2.01.398l-2.126-5.27c1.29-.495 2.68-.66 4.136-.695zm.63 0h.004c1.456.035 2.846.322 4.136.818l-2.126 5.148c-.632-.23-1.31-.366-2.013-.398zm-5.35 1.062l2.125 5.148c-.624.294-1.2.68-1.703 1.14l-3.927-3.935c1.02-.972 2.202-1.772 3.505-2.353zm10.075 0c1.302.584 2.484 1.38 3.504 2.353l-3.926 3.935c-.505-.462-1.08-.847-1.706-1.14zm-15.04 1.786l.716.718c-1.01 1.062-1.838 2.292-2.44 3.65l-1.077-.448v-.95c0-.41-.172-.783-.447-1.045.276-.484.577-.95.903-1.394.258.246.607.398.993.398.616 0 1.14-.384 1.35-.927zm22.117.227c.412.54.792 1.105 1.132 1.698-.274.262-.444.634-.444 1.046v.947l-1.082.448c-.6-1.358-1.43-2.59-2.435-3.65l.407-.407c.262.375.697.62 1.188.62.525 0 .982-.282 1.235-.7zm-21.104.786l3.927 3.938c-.462.508-.843 1.08-1.138 1.708l-5.136-2.13c.577-1.307 1.376-2.494 2.346-3.515zm17.978 0c.97 1.02 1.768 2.208 2.348 3.515l-5.136 2.13c-.294-.627-.68-1.2-1.138-1.707zm-9.306 1.93v5.04l-1.923-4.658c.606-.22 1.25-.35 1.923-.382zm.634 0c.673.03 1.318.16 1.923.382l-1.923 4.658zm-3.14.626l1.924 4.658-3.557-3.57c.482-.44 1.032-.807 1.63-1.09zm5.648 0c.597.28 1.146.65 1.63 1.09l-3.556 3.568zm-15.634 1.03l.844.354c-.517 1.34-.812 2.788-.85 4.304h-1.332v-.332c0-.65-.422-1.198-1.01-1.384.078-.588.19-1.162.33-1.727.175.075.37.12.574.12.76 0 1.383-.587 1.444-1.335zm25.615 0c.062.746.687 1.334 1.448 1.334.204 0 .397-.042.572-.12.142.566.254 1.14.332 1.728-.586.186-1.013.735-1.013 1.384v.332h-1.33c-.037-1.516-.333-2.964-.85-4.304zm-17.708.507l3.557 3.562-4.65-1.927c.284-.6.653-1.15 1.092-1.636zm9.806 0c.44.486.81 1.036 1.09 1.636l-4.647 1.93zm-16.48.003l5.133 2.134c-.228.632-.363 1.31-.396 2.014h-5.555c.035-1.458.32-2.855.818-4.148zm23.154 0c.497 1.293.782 2.69.82 4.148h-5.556c-.03-.705-.168-1.382-.397-2.014zm-17.815 2.218l4.65 1.93h-5.028c.03-.674.16-1.324.377-1.93zm12.473 0c.22.607.35 1.256.38 1.93h-5.028zm-20.382 2.566h1.332c.037 1.514.334 2.963.85 4.308l-.847.35c-.08-.728-.694-1.29-1.44-1.29-.2 0-.39.036-.564.11-.13-.51-.235-1.027-.313-1.557.57-.194.98-.737.98-1.376zm1.75 0h5.556c.033.705.168 1.38.397 2.01l-5.132 2.132c-.496-1.29-.782-2.684-.82-4.142zm5.78 0h5.028l-4.65 1.927c-.214-.608-.346-1.254-.377-1.926zm8.204 0h5.03c-.03.672-.163 1.318-.382 1.927zm5.254 0h5.555c-.035 1.458-.32 2.85-.818 4.142l-5.133-2.13c.23-.633.367-1.307.396-2.012zm5.974 0h1.33v.545c0 .638.41 1.18.984 1.375-.078.53-.183 1.05-.313 1.556-.172-.07-.362-.11-.562-.11-.747 0-1.36.564-1.44 1.293l-.848-.354c.518-1.344.813-2.792.85-4.306zm-14.483.714l-.134.326-3.1 3.105c-.44-.485-.81-1.034-1.092-1.633zm3.336 0l4.326 1.8c-.282.598-.652 1.147-1.092 1.63l-3.1-3.104zm-1.985.558v5.04c-.674-.03-1.317-.162-1.923-.382zm.634 0l1.923 4.658c-.606.22-1.25.35-1.923.383zm-6.517 1.325c.295.626.676 1.203 1.138 1.712l-3.927 3.934c-.97-1.023-1.768-2.21-2.347-3.515zm7.746 0l.523.907.885 2.117c-.044.02-.085.048-.128.07zm-3.094.004l-1.275 3.09c-.042-.022-.085-.05-.127-.07l.884-2.118zm7.778.01l5.136 2.13c-.608 1.292-1.407 2.48-2.376 3.502l-3.926-3.935c.46-.507.844-1.083 1.166-1.697zm-9.272.563l-1.19 1.61c-.074-.063-.15-.122-.223-.188zm6.083.003l1.416 1.42c-.07.065-.146.124-.224.187zm-7.655 1.576c.08.073.167.142.25.21l-3.31 4.476c-.3-.235-.59-.487-.867-.75zm9.23 0l3.927 3.938c-.28.263-.566.512-.866.748l-3.31-4.476c.085-.068.17-.137.25-.21zm-16.34.138c.602 1.356 1.43 2.587 2.44 3.646l-.726.73c-.218-.522-.737-.896-1.34-.896-.378 0-.72.145-.976.38-.33-.445-.625-.908-.904-1.39.265-.26.43-.628.43-1.032v-.993zm23.446 0l1.082.445v.992c0 .403.164.768.428 1.03-.34.59-.717 1.154-1.128 1.69-.26-.405-.71-.678-1.223-.678-.48 0-.905.234-1.17.592l-.424-.426c1.008-1.06 1.836-2.29 2.436-3.646zm-14.764.933c.045.024.088.05.13.072l-2.124 5.14c-.052-.022-.104-.045-.157-.07zm6.083 0l2.15 5.144c-.05.025-.1.048-.152.07l-2.13-5.14c.047-.022.09-.05.132-.073zm-5.367.314c.632.23 1.308.368 2.01.402v5.563c-1.457-.034-2.85-.32-4.14-.817zm4.654 0l2.13 5.144c-1.29.5-2.684.787-4.14.82v-5.562c.704-.034 1.378-.173 2.01-.4zm-6.886.282l-2.14 3.72c-.14-.09-.273-.183-.408-.277zm9.12 0l2.546 3.443c-.133.094-.27.186-.41.276zm-9.442 1.974l-.944 2.26c-.09-.05-.18-.1-.27-.152zm9.762 0l1.213 2.108-.27.15zm-13.72.592c.292.28.6.542.916.793l-1.472 1.993c-.173-.135-.34-.275-.507-.416v-1.303zm17.678 0l.606.61c-.01.076-.015.15-.015.23v1.513c0 .126.017.25.047.367-.025.02-.053.045-.082.066l-1.472-1.992c.317-.25.624-.512.916-.792zm-16.196 1.216c.147.102.296.203.447.3l-1.238 2.146c-.23-.148-.458-.3-.68-.457zm14.714 0l1.473 1.992c-.225.16-.452.31-.685.458l-1.238-2.15c.153-.098.302-.198.45-.3zm-13.66.667c.103.062.21.115.315.17l-.49 1.162c-.352.225-.6.6-.654 1.037-.137-.076-.274-.146-.406-.223zm12.607 0l1.237 2.147c-.136.077-.275.147-.41.222-.058-.438-.305-.813-.656-1.038l-.484-1.162c.104-.055.208-.108.313-.17zm-11.66.487c.05.022.102.052.158.075l-.234.567c-.06-.014-.122-.02-.185-.023zm10.712 0l.26.62c-.062.003-.125.01-.185.022l-.235-.568c.054-.022.106-.052.16-.075zm-9.972.316c1.338.516 2.786.815 4.298.852v.53c-.65.144-1.135.723-1.135 1.415v.467c-.96-.09-1.895-.27-2.795-.53v-.98c0-.486-.237-.917-.606-1.18zm9.228 0l.237.573c-.365.265-.606.695-.606 1.18v.982c-.9.26-1.837.44-2.796.53v-.468c0-.692-.483-1.27-1.132-1.415v-.53c1.512-.037 2.958-.336 4.296-.852zm-13.752.943c.24.17.484.332.735.49l-.99 1.718c-.297-.207-.612-.404-.947-.582zm18.278 0l3.035 4.098h-1.692l-2.078-3.61c.25-.16.494-.318.734-.488zm-16.94.852c.213.122.43.238.65.35l-.912 2.18c-.23-.257-.488-.5-.766-.735zm15.6 0l1.868 3.246h-1.303l-1.214-2.895c.218-.114.434-.232.647-.352zm-12.046 1.476c.9.253 1.836.427 2.795.513v.523c0 .803.65 1.454 1.45 1.454.8 0 1.45-.65 1.45-1.454v-.523c.96-.087 1.894-.26 2.796-.513.004.8.654 1.447 1.452 1.447.628 0 1.163-.403 1.363-.964l.538 1.288h-1.004v2.427h-13.295c-.023-.862-.33-1.716-.866-2.502l.505-1.212c.2.56.735.965 1.366.965.8 0 1.443-.646 1.448-1.446zm-10.69 5.028c1.08.522 2.043.932 2.9 1.237h-5.717c.85-.312 1.784-.718 2.817-1.238zm-46.672 2.5l.372.39-.06.057h-.312z" fill="#f0b54d"/><path d="M350 109.516H0V134h350z" fill="#6d6e70"/><path d="M97.563 127.017c0 1.45-1 2.625-2.235 2.625H19.122c-1.234 0-2.235-1.175-2.235-2.625s1-2.625 2.235-2.625h76.206c1.234 0 2.235 1.175 2.235 2.625" fill="#58595b"/></g></svg>