<?xml version="1.0" encoding="UTF-8" standalone="no"?>
<!-- Created with Inkscape (http://www.inkscape.org/) -->

<svg
   xmlns:dc="http://purl.org/dc/elements/1.1/"
   xmlns:cc="http://creativecommons.org/ns#"
   xmlns:rdf="http://www.w3.org/1999/02/22-rdf-syntax-ns#"
   xmlns:svg="http://www.w3.org/2000/svg"
   xmlns="http://www.w3.org/2000/svg"
   version="1.1"
   viewbox="0 0 769 717" preserveAspectRatio="xMinYMin slice" id="moose-logo"
   id="svg10146">
  <defs
     id="defs10148" />
  <metadata
     id="metadata10151">
    <rdf:RDF>
      <cc:Work
         rdf:about="">
        <dc:format>image/svg+xml</dc:format>
        <dc:type
           rdf:resource="http://purl.org/dc/dcmitype/StillImage" />
        <dc:title></dc:title>
      </cc:Work>
    </rdf:RDF>
  </metadata>
  <g
     transform="translate(93.476697,-227.90442)"
     id="layer1">
    <g
       transform="matrix(8.4465222,0,0,8.1674141,-130.75366,178.08319)"
       id="g10173">
      <path
         d="m 10.40625,6.40625 c -7.5132775,0.7882805 -7.4727007,11.307994 -2.3125,15.125 4.747584,3.038629 1.525911,11.673976 8.28125,12.53125 8.185393,1.693837 17.277616,-6.079542 24.59375,-0.65625 1.655996,1.531709 6.489779,-1.645329 7.130411,-2.827032 -2.098132,-5.335102 4.05743,-12.737615 -1.942911,-16.485468 -4.458058,-2.34357 -8.357685,3.139856 -6.9375,7.34375 -0.583948,3.893757 -7.167263,1.794405 -6.6875,-1.875 C 33.037388,15.211578 32.208625,8.3558817 26.25,9.09375 20.621029,9.8407059 21.147973,16.554816 22.65625,20.5 23.477989,24.212199 17.968027,22.76625 18.25,19.8125 17.770715,15.184627 18.877428,8.5628191 13.15625,6.75 12.28423,6.4110012 11.330816,6.3022723 10.40625,6.40625 z"
         id="path6954"
         style="fill:#f8daa6;fill-opacity:1" />
      <g
         id="g17308">
        <path
           d="m 88.96384,6.2490166 c -0.1,0 -0.2,0 -0.3,0 -0.1,0 -0.2,0 -0.3,0 -3.3,0.3 -5.8,2.4 -6.5,5.7000004 -0.1,0.1 -0.1,0.3 -0.1,0.5 0,2.7 0.4,6 -0.8,8.6 -0.5,1 -2.2,2.5 -3.3,1.4 -0.9,-0.8 0,-3.2 0.2,-4.2 0.5,-2.6 1.1,-5.3 -0.9,-7.5 -1.9,-2.0000004 -5,-2.4000004 -7.3,-0.8000005 -2.2,1.5000005 -2.4,3.8000005 -2.3,6.2000005 0.1,2.1 0.3,5.6 -1.8,6.8 -0.9,0.5 -3.4,0.6 -4.2,-0.1 -0.8,-0.7 -0.5,-2.3 -0.4,-3.2 0.1,-2.6 -0.9,-5.2 -3.6,-6 -3.1,-0.9 -6.5,1.6 -6.4,4.9 0,1.5 0.6,3.1 0.9,4.6 0.4,2.2 0.7,4.5 0.2,6.8 -1.3,-0.2 -2.6,-0.2 -3.9,0 -0.7,-3.4 0.2,-6.8 0.9,-10.1 0.4,-2.5 -0.5,-4.9 -2.899999,-5.9 -2.300001,-1 -5.200001,0 -6.400001,2.2 -0.6,1 -0.6,2.2 -0.6,3.3 0,0.8 0.4,2.2 0,3 -0.5,1.1 -2.4,1 -3.4,0.9 -1.4,-0.2 -2.2,-1 -2.6,-2.3 -1.3,-4 1.3,-9.5 -3.7,-11.6000004 -2.5,-1.1 -5.3,-0.3 -6.8,1.7000004 -1.5,2.1 -1.1,4.5 -0.6,6.8 0.2,1 1,3.1 0.4,4.1 -0.9,1.5 -2.9,0.2 -3.4,-0.8 -1.3,-2.5 -0.9,-6 -0.9,-8.8 0,-0.2 0,-0.3 -0.1,-0.5 -1,-4.8000004 -6.7,-7.4000004 -10.7999984,-4.4000004 -4.1,2.9000004 -3.3,8.9000004 -0.6,12.5000004 1.4,1.9 3.4999984,3.2 4.0999984,5.5 0.4,1.7 0.5,3.4 1.1,5.1 1.7,4.6 7.1,4 11.1,3.4 5,-0.8 13.1,-4.7 17.6,-0.9 -0.9,0.8 -1.7,1.7 -2.5,2.7 -4.7,-1.3 -11,-2.7 -15.4,-0.3 -2.7,1.5 -3.4,4.5 -2.9,7.4 0.6,3.399994 3,5.499994 6.5,5.199994 3.3,-0.3 6.4,-2 9.2,-3.899994 0,4.099994 1.4,7.899994 2.9,11.699994 0.6,1.5 1.4,3.2 1.2,4.9 -0.2,1.5 -1.1,2.7 -1.9,3.9 -2.2,3.3 -4,6.5 -4.4,10.5 -0.5,4.6 0.9,9.3 3.9,12.8 5.9,7 16.7,7.9 23.6,2 7,-5.9 7.5,-16 2.7,-23.5 -0.9,-1.4 -2,-2.7 -2.7,-4.2 -0.8,-1.8 -0.4,-3.5 0.2,-5.3 1.6,-4.4 3.4,-8.4 3.4,-12.999994 4.7,2.999994 12.6,6.999994 15.2,0.399995 1.1,-2.799995 1,-6.499995 -1.5,-8.499995 -2.3,-1.8 -5.5,-1.9 -8.2,-1.7 -2.7,0.2 -5.4,0.7 -8,1.4 -0.7,-1 -1.6,-1.9 -2.5,-2.7 4.4,-3.8 12.3,0 17.3,0.8 4.4,0.7 10,1.2 11.6,-4.1 0.6,-1.9 0.4,-4.1 1.4,-5.8 1.2,-2.3 3.699998,-3.7 4.799998,-6.1 2.5,-4.7 0.5,-11.0000004 -5.499998,-11.5000004 z m -60.9,24.5000004 c -2.8,0.7 -5.6,1.4 -8.5,1.6 -2.7,0.1 -5.1,-0.1 -5.9,-2.9 -0.5,-1.8 -0.5,-3.7 -1.2,-5.4 -0.8,-2.1 -2.5999998,-3.3 -3.9999984,-5 -1.9,-2.4 -3.1,-6.7 -0.6,-9.2000005 C 10.76384,6.9490166 15.26384,9.0490166 15.96384,12.849017 l 0,0 c 0,3.7 -0.6,10.1 3.5,11.7 1.7,0.7 4,0.4 4.9,-1.4 0.9,-1.9 0,-4.3 -0.4,-6.1 -0.3,-1.6 -0.7,-3.3 0.5,-4.7 1.3,-1.6 3.8,-1.5 5.2,0 1.4,1.6 0.6,4.5 0.8,6.4 0.3,4.6 3,7.8 7.9,6.6 2.1,-0.5 2.9,-2.1 2.9,-4.2 0,-1.4 -0.4,-3 0.5,-4.2 1.9,-2.7 5.6,-0.6 5.200001,2.4 -0.7,3.6 -1.6,7.3 -0.9,11 -1.3,0.4 -2.500001,1 -3.700001,1.7 -3.8,-3.7 -9.8,-2.5 -14.3,-1.3 z"
           id="path16227-3"
           style="fill:#f0b54d;fill-opacity:1" />
        <path
           d="m 89,6.1 c -0.1,0 -0.2,0 -0.3,0 -0.1,0 -0.2,0 -0.3,0 -3.3,0.3 -5.8,2.4 -6.5,5.7 -0.1,0.1 -0.1,0.3 -0.1,0.5 0,2.7 0.4,6 -0.8,8.6 -0.5,1 -2.2,2.5 -3.3,1.4 -0.9,-0.8 0,-3.2 0.2,-4.2 0.5,-2.6 1.1,-5.3 -0.9,-7.5 -1.9,-2 -5,-2.4 -7.3,-0.8 -2.2,1.5 -2.4,3.8 -2.3,6.2 0.1,2.1 0.3,5.6 -1.8,6.8 -0.9,0.5 -3.4,0.6 -4.2,-0.1 -0.8,-0.7 -0.5,-2.3 -0.4,-3.2 0.1,-2.6 -0.9,-5.2 -3.6,-6 -3.1,-0.9 -6.5,1.6 -6.4,4.9 0,1.5 0.6,3.1 0.9,4.6 0.4,2.2 0.7,4.5 0.2,6.8 -1.3,-0.2 -2.6,-0.2 -3.9,0 -0.7,-3.4 0.2,-6.8 0.9,-10.1 0.4,-2.5 -0.5,-4.9 -2.9,-5.9 -2.3,-1 -5.2,0 -6.4,2.2 -0.6,1 -0.6,2.2 -0.6,3.3 0,0.8 0.4,2.2 0,3 -0.5,1.1 -2.4,1 -3.4,0.9 -1.4,-0.2 -2.2,-1 -2.6,-2.3 -1.3,-4 1.3,-9.5 -3.7,-11.6 C 27,8.2 24.2,9 22.7,11 c -1.5,2.1 -1.1,4.5 -0.6,6.8 0.2,1 1,3.1 0.4,4.1 -0.9,1.5 -2.9,0.2 -3.4,-0.8 -1.3,-2.5 -0.9,-6 -0.9,-8.8 0,-0.2 0,-0.3 -0.1,-0.5 C 17.1,7 11.4,4.4 7.3,7.4 3.2,10.3 4,16.3 6.7,19.9 c 1.4,1.9 3.5,3.2 4.1,5.5 0.4,1.7 0.5,3.4 1.1,5.1 1.7,4.6 7.1,4 11.1,3.4 5,-0.8 13.1,-4.7 17.6,-0.9 -0.9,0.8 -1.7,1.7 -2.5,2.7 -4.7,-1.3 -11,-2.7 -15.4,-0.3 -2.7,1.5 -3.4,4.5 -2.9,7.4 0.6,3.4 3,5.5 6.5,5.2 3.3,-0.3 6.4,-2 9.2,-3.9 0,4.1 1.4,7.9 2.9,11.7 0.6,1.5 1.4,3.2 1.2,4.9 -0.2,1.5 -1.1,2.7 -1.9,3.9 -2.2,3.3 -4,6.5 -4.4,10.5 -0.5,4.6 0.9,9.3 3.9,12.8 5.9,7 16.7,7.9 23.6,2 7,-5.9 7.5,-16 2.7,-23.5 -0.9,-1.4 -2,-2.7 -2.7,-4.2 -0.8,-1.8 -0.4,-3.5 0.2,-5.3 1.6,-4.4 3.4,-8.4 3.4,-13 4.7,3 12.6,7 15.2,0.4 1.1,-2.8 1,-6.5 -1.5,-8.5 -2.3,-1.8 -5.5,-1.9 -8.2,-1.7 -2.7,0.2 -5.4,0.7 -8,1.4 -0.7,-1 -1.6,-1.9 -2.5,-2.7 4.4,-3.8 12.3,0 17.3,0.8 4.4,0.7 10,1.2 11.6,-4.1 0.6,-1.9 0.4,-4.1 1.4,-5.8 1.2,-2.3 3.7,-3.7 4.8,-6.1 C 97,12.9 95,6.6 89,6.1 z M 28.1,30.6 c -2.8,0.7 -5.6,1.4 -8.5,1.6 -2.7,0.1 -5.1,-0.1 -5.9,-2.9 -0.5,-1.8 -0.5,-3.7 -1.2,-5.4 -0.8,-2.1 -2.6,-3.3 -4,-5 -1.9,-2.4 -3.1,-6.7 -0.6,-9.2 2.9,-2.9 7.4,-0.8 8.1,3 0,0 0,0 0,0 0,3.7 -0.6,10.1 3.5,11.7 1.7,0.7 4,0.4 4.9,-1.4 0.9,-1.9 0,-4.3 -0.4,-6.1 -0.3,-1.6 -0.7,-3.3 0.5,-4.7 1.3,-1.6 3.8,-1.5 5.2,0 1.4,1.6 0.6,4.5 0.8,6.4 0.3,4.6 3,7.8 7.9,6.6 2.1,-0.5 2.9,-2.1 2.9,-4.2 0,-1.4 -0.4,-3 0.5,-4.2 1.9,-2.7 5.6,-0.6 5.2,2.4 -0.7,3.6 -1.6,7.3 -0.9,11 -1.3,0.4 -2.5,1 -3.7,1.7 -3.8,-3.7 -9.8,-2.5 -14.3,-1.3 z m 49.5,7.8 c 2.1,2.9 0.1,7.9 -3.7,7.5 -3.6,-0.3 -7.2,-2.8 -10.1,-4.8 -0.6,-0.4 -1.7,0.1 -1.6,0.9 0.6,4.8 -1,9 -2.7,13.3 -1.1,2.6 -1.8,5.2 -0.6,7.9 1.3,2.8 3.5,5 4.7,7.9 1.7,4.3 1.5,9.3 -0.8,13.3 -4.8,8.5 -16.8,9.9 -23.5,2.7 -3.4,-3.6 -4.6,-8.7 -3.6,-13.5 0.7,-3.5 2.8,-6.1 4.6,-9 1.8,-2.8 1.7,-5.5 0.5,-8.5 -1.8,-4.7 -3.7,-9 -3.1,-14.1 0.1,-0.8 -1,-1.4 -1.6,-0.9 -2.9,2.1 -6.4,4.5 -10.1,4.8 -3.8,0.3 -5.8,-4.6 -3.7,-7.5 1.7,-2.3 5.6,-2.1 8.2,-1.9 2.6,0.2 5.1,0.8 7.6,1.5 0.5,0.1 1,-0.1 1.2,-0.5 5,-7.8 16.2,-7.8 21.2,0 0.1,0.1 0.1,0.2 0.2,0.2 0.2,0.3 0.6,0.4 1,0.3 2.5,-0.7 5,-1.3 7.6,-1.5 2.6,-0.2 6.6,-0.4 8.3,1.9 z M 93.2,15.6 c -0.7,2.7 -2.8,4.2 -4.5,6.2 -2.2,2.6 -1,6.6 -3.1,9.1 -1.6,1.9 -5,1.3 -7.2,1 -2.7,-0.3 -5.3,-1.2 -8,-1.8 -4.1,-0.9 -9.3,-1.6 -12.6,1.5 -1.2,-0.7 -2.4,-1.3 -3.7,-1.7 0.6,-3.2 0,-6.5 -0.7,-9.6 -0.4,-2 -0.5,-4.5 2.1,-4.9 2.7,-0.4 3.4,2.1 3.3,4.2 -0.1,1.9 -0.2,3.9 1.6,4.9 1.9,1.1 5.2,1 6.9,-0.4 1.7,-1.4 2.1,-3.8 2.2,-5.9 0.1,-2.6 -0.9,-6.5 2.5,-7.3 2.3,-0.6 4.2,1.3 4.2,3.5 0,1.5 -0.5,3.1 -0.8,4.6 -0.3,1.9 -0.5,4.3 1.6,5.2 2.6,1.1 5.1,-0.5 6,-2.9 1.1,-2.7 0.9,-5.9 0.9,-8.8 0,0 0,0 0,0 0.4,-2.5 2.2,-4.2 4.7,-4.3 4.1,0.2 5.5,4 4.6,7.4 z"
           id="path16227"
           style="fill:#cb8400;fill-opacity:1" />
        <ellipse
           cx="47.400002"
           cy="46.900002"
           rx="1.4"
           ry="2.0999999"
           id="ellipse16229" />
        <ellipse
           cx="52.599998"
           cy="46.900002"
           rx="1.4"
           ry="2.0999999"
           id="ellipse16231" />
        <ellipse
           cx="46.700001"
           cy="85.900002"
           rx="1.4"
           ry="1.4"
           id="ellipse16233" />
        <ellipse
           cx="53.299999"
           cy="85.900002"
           rx="1.4"
           ry="1.4"
           id="ellipse16235" />
      </g>
    </g>
  </g>
</svg>
