<svg xmlns="http://www.w3.org/2000/svg" viewbox="0 0 350 134" preserveAspectRatio="xMinYMin slice"><defs><clipPath id="a"><path d="M42.936 700.188h187.217V590.553H42.936v109.635z"/></clipPath><clipPath id="b"><path d="M927.512 845.306h178.028v-112.11H927.512v112.11z"/></clipPath><clipPath id="c"><path d="M467.984 930.662h178.104V821.857H467.984v108.805z"/></clipPath><clipPath id="d"><path d="M1170.11 618.771h150.17v-90.758h-150.17v90.758z"/></clipPath><clipPath id="e"><path d="M66.936 713.518h187.217V603.884H66.936v109.634z"/></clipPath><clipPath id="f"><path d="M927.512 845.306h178.028v-112.11H927.512v112.11z"/></clipPath><clipPath id="g"><path d="M467.984 930.662h178.104V821.857H467.984v108.805z"/></clipPath><clipPath id="h"><path d="M1170.11 618.771h150.17v-90.758h-150.17v90.758z"/></clipPath></defs><path d="M.086 108.76H349.77V0H.086z" fill="#f8daa6"/><g clip-path="url(#a)" opacity=".7" transform="matrix(.12504 0 0 -.12531 40.928 122.429)"><path d="M79.682 666.317c.008 4.06.712 7.848 2.74 11.054 3.136 4.96 10.151 7.125 15.66 5.1 2.871-1.055 4.553-.676 6.691 1.588 13.194 13.975 29.535 19.014 48.051 14.547 19.323-4.663 31.601-17.407 36.783-36.581 1.347-4.988 1.4-10.327 2.085-15.821 2.227.283 4.572.568 6.916.884 14.38 1.928 28.421-8.551 31.025-22.837 1.574-8.634-.459-16.465-5.696-23.02-5.683-7.114-13.548-10.714-22.938-10.678-29.139.113-58.28.11-87.42.152-11.428.017-22.857-.055-34.284.07-18.073.198-34.296 15.128-36.135 33.111-2.2 21.501 11.97 39.109 33.702 41.902 1.236.157 2.453.458 2.82.529" fill="#e8e8e8" fill-rule="evenodd"/></g><g clip-path="url(#b)" opacity=".7" transform="matrix(.12504 0 0 -.12531 40.928 122.429)"><path d="M1038.997 809.567c12.967 6.146 25.197 6.092 35.637-4.201 10.51-10.362 10.02-22.762 4.63-36.008 3.104 0 5.604.088 8.096-.016 9.158-.373 16.086-6.16 17.85-14.828 1.592-7.826-2.713-16.242-10.627-19.762-2.576-1.144-5.69-1.472-8.565-1.484-24.959-.11-49.917-.062-74.876-.062-18.33.004-36.659-.016-54.989.013-15.77.026-28.576 12.678-28.64 28.229-.063 15.459 12.814 28.29 28.511 28.404 2.067.016 4.135.002 6.87.002-4.665 14.619-3.876 28.065 5.458 40.137 5.938 7.683 13.758 12.53 23.245 14.472 11.41 2.34 21.894-.265 31.281-6.94 9.406-6.686 13.7-16.591 16.12-27.956" fill="#e8e8e8" fill-rule="evenodd"/></g><g clip-path="url(#c)" opacity=".7" transform="matrix(.12504 0 0 -.12531 40.928 122.429)"><path d="M623.616 859.056c4.62-1.146 8.827-1.51 12.396-3.212 8.034-3.836 11.568-12.102 9.493-20.466-1.938-7.808-9.054-13.276-17.585-13.498-1.258-.032-2.518-.006-3.776-.006-42.478 0-84.957-.053-127.435.034-11.934.024-20.745 5.716-25.827 16.389-5.074 10.656-3.316 20.84 3.96 30.015 3.19 4.02 7.358 6.863 12.255 8.459 1.928.628 2.477 1.685 2.527 3.65.66 26.015 18.412 46.564 43.939 49.83 23.66 3.026 45.453-10.915 53.355-33.574 1.727-4.956 1.716-4.96 6.918-4.638 15.594.963 29.39-11.664 29.773-27.266.05-2.073.007-4.15.007-5.717" fill="#e8e8e8" fill-rule="evenodd"/></g><g clip-path="url(#d)" opacity=".7" transform="matrix(.12504 0 0 -.12531 40.928 122.429)"><path d="M1286.107 572.927c5.295.251 10.141 1.152 14.801.568 11.758-1.473 20.127-12.25 19.322-24.009-.79-11.59-10.437-21.089-22.053-21.357-9.427-.217-18.865-.065-28.3-.065-23.692-.003-47.38-.05-71.073.02-13.779.038-24.746 8.84-27.96 22.196-4.296 17.856 10.85 35.7 29.181 34.382 4.47-.32 4.47-.32 5.752 4.114a41.52 41.52 0 0 0 36.898 29.897c16.287 1.185 32.551-8.48 39.637-23.7 2.693-5.783 3.672-11.989 3.791-18.336.027-1.347.004-2.694.004-3.71" fill="#e8e8e8" fill-rule="evenodd"/></g><g><g clip-path="url(#e)" opacity=".7" transform="matrix(.12504 0 0 -.12531 103.52 150.784)"><path d="M103.682 679.648c.008 4.06.712 7.848 2.74 11.054 3.136 4.96 10.151 7.125 15.66 5.1 2.871-1.055 4.553-.676 6.691 1.588 13.194 13.975 29.535 19.014 48.051 14.547 19.323-4.663 31.601-17.407 36.783-36.581 1.347-4.988 1.4-10.327 2.085-15.821 2.227.283 4.572.568 6.916.884 14.38 1.928 28.421-8.551 31.025-22.837 1.574-8.634-.459-16.465-5.696-23.02-5.683-7.114-13.548-10.714-22.938-10.678-29.139.113-58.28.11-87.42.152-11.428.017-22.857-.055-34.284.07-18.073.198-34.296 15.128-36.135 33.11-2.2 21.502 11.97 39.11 33.702 41.903 1.236.157 2.453.458 2.82.529" fill="#e8e8e8" fill-rule="evenodd"/></g></g><g><g clip-path="url(#f)" opacity=".7" transform="matrix(.12504 0 0 -.12531 170.97 142.765)"><path d="M1038.997 809.567c12.967 6.146 25.197 6.092 35.637-4.201 10.51-10.362 10.02-22.762 4.63-36.008 3.104 0 5.604.088 8.096-.016 9.158-.373 16.086-6.16 17.85-14.828 1.592-7.826-2.713-16.242-10.627-19.762-2.576-1.144-5.69-1.472-8.565-1.484-24.959-.11-49.917-.062-74.876-.062-18.33.004-36.659-.016-54.989.013-15.77.026-28.576 12.678-28.64 28.229-.063 15.459 12.814 28.29 28.511 28.404 2.067.016 4.135.002 6.87.002-4.665 14.619-3.876 28.065 5.458 40.137 5.938 7.683 13.758 12.53 23.245 14.472 11.41 2.34 21.894-.265 31.281-6.94 9.406-6.686 13.7-16.591 16.12-27.956" fill="#e8e8e8" fill-rule="evenodd"/></g></g><g><g clip-path="url(#g)" opacity=".7" transform="matrix(.12504 0 0 -.12531 170.97 142.765)"><path d="M623.616 859.056c4.62-1.146 8.827-1.51 12.396-3.212 8.034-3.836 11.568-12.102 9.493-20.466-1.938-7.808-9.054-13.276-17.585-13.498-1.258-.032-2.518-.006-3.776-.006-42.478 0-84.957-.053-127.435.034-11.934.024-20.745 5.716-25.827 16.389-5.074 10.656-3.316 20.84 3.96 30.015 3.19 4.02 7.358 6.863 12.255 8.459 1.928.628 2.477 1.685 2.527 3.65.66 26.015 18.412 46.564 43.939 49.83 23.66 3.026 45.453-10.915 53.355-33.574 1.727-4.956 1.716-4.96 6.918-4.638 15.594.963 29.39-11.664 29.773-27.266.05-2.073.007-4.15.007-5.717" fill="#e8e8e8" fill-rule="evenodd"/></g></g><g><g clip-path="url(#h)" opacity=".7" transform="matrix(.12504 0 0 -.12531 170.97 142.765)"><path d="M1286.107 572.927c5.295.251 10.141 1.152 14.801.568 11.758-1.473 20.127-12.25 19.322-24.009-.79-11.59-10.437-21.089-22.053-21.357-9.427-.217-18.865-.065-28.3-.065-23.692-.003-47.38-.05-71.073.02-13.779.038-24.746 8.84-27.96 22.196-4.296 17.856 10.85 35.7 29.181 34.382 4.47-.32 4.47-.32 5.752 4.114a41.52 41.52 0 0 0 36.898 29.897c16.287 1.185 32.551-8.48 39.637-23.7 2.693-5.783 3.672-11.989 3.791-18.336.027-1.347.004-2.694.004-3.71" fill="#e8e8e8" fill-rule="evenodd"/></g></g><path d="M313.568 7.332v4.126h-.243v11.425h-.182v-3.888h-.484v4.474h-.3V15.95h-.485v7.519h-.781v11.187h-1.957v16.34h-2.445V68.43h-.022v1.522h-.54v-4.517h.43v-.912h-.43v-1.626h-.632v-1.015h-.506v-.604h-.279v-.815h-.56v-1.419h-.2v-.661h-.671v-.457h-.404v-1.012h-.431v1.012h-.406v.457h-.672v.661h-.2v1.419h-.557v.815h-.281v.604h-.507v1.015h-.631v1.626h-.431v.912h.43v4.517h-.537V68.43h-2.823v1.522h-.565v21.923h-.604V50.692h-1.819v-1.447h-2.767v1.447h-1.819v20.012h-1.081v-1.917h-1.914v-1.32h-.419v-1.199h-.478v-.598h-1.197V59.92h-.478v5.749h-.15v-.777h-.597v.777h-.926v.598h-.778v1.2h-1.616v1.319h-1.642v-7.425h-2.335v-.899h-5.026v-3.947h-4.492v3.947h-5.03v.9h-2.332v30.509h-.69V58.959h-.86v-3.668h-.495v-1.372h-.406v-.855h.3v-.473h-.3v-3.13h-.885l-2.216-2.951-2.216 2.95h-.885v3.13h-.3v.474h.3v.855h-.406v1.372h-.494v3.668h-.86v32.913h-1.006V21.263l-.56-.072V15.49l-.016.003c-.212-.469-2.678-.236-5.58.536-2.7.72-4.843 1.66-5.082 2.2l-.025.005v1.557l-.907-.119v2.83h-.882v13.172h-1.384v.473h-.616v17.412h-4.411v11.73h-.882v22.091h-1.294V85.64h-.028l-2.873-2.998-.1.098-2.776 2.9h-.125v1.74h-.828l-3.282-4.44c.265.315.662.52 1.11.52.8 0 1.45-.654 1.45-1.457v-1.51c0-.07-.006-.14-.016-.206.498-.618.947-1.273 1.348-1.961a1.45 1.45 0 0 0 2.041-1.328v-1.51c0-.407-.166-.774-.432-1.038.157-.583.284-1.182.372-1.788a1.449 1.449 0 0 0 1.4-1.45v-1.51c0-.778-.608-1.412-1.372-1.451a16.14 16.14 0 0 0-.39-1.97 1.46 1.46 0 0 0 .422-1.028v-1.507a1.452 1.452 0 0 0-2.023-1.338 16.044 16.044 0 0 0-1.363-1.986 1.73 1.73 0 0 0 .01-.176v-1.51a1.447 1.447 0 1 0-2.604-.877 15.606 15.606 0 0 0-2.576-1.644v-.962a1.452 1.452 0 0 0-2.895-.163 15.587 15.587 0 0 0-2.801-.517v-.824c0-.805-.651-1.45-1.45-1.45-.803 0-1.451.646-1.451 1.45v.824c-.963.088-1.9.263-2.807.517a1.449 1.449 0 0 0-2.889.163v.962a15.753 15.753 0 0 0-2.897 1.901 1.442 1.442 0 0 0-1.31-.833c-.802 0-1.45.651-1.45 1.454v1.51c0 .22.05.432.14.62a16.26 16.26 0 0 0-1.02 1.538 1.453 1.453 0 0 0-2.022 1.34v1.508c0 .4.162.763.425 1.027-.17.642-.305 1.298-.393 1.97a1.449 1.449 0 0 0-1.376 1.448v1.513a1.45 1.45 0 0 0 1.404 1.45c.088.607.216 1.207.372 1.79-.269.264-.432.63-.432 1.036v1.51a1.453 1.453 0 0 0 2.042 1.329c.308.527.647 1.035 1.012 1.519a1.472 1.472 0 0 0-.153.648v1.51c0 .803.65 1.454 1.45 1.454.593 0 1.1-.353 1.326-.865.105.089.209.176.319.26l-1.282 1.736a10.53 10.53 0 0 0-3.926-.884c-4.647-.144-8.715 3.159-8.812 6.263-.025.818.161 1.455.55 1.904h-4.23c.046-.537.083-1.071.091-1.607.01-.508-.078-1.02-.069-1.528.051.034.115.056.188.056.026 0 .053-.005.078-.006.096.073.195.125.284.125.08 0 .035-.09-.034-.185a.715.715 0 0 0 .188-.112c.114.054.237.09.36.09h.105c.078 0 .157-.046.157-.131a.28.28 0 0 0-.032-.116.834.834 0 0 0 .25.038h.213c.183 0 .543-.08.472-.345a.355.355 0 0 0-.1-.157l.019-.009c.034-.026.065-.052.1-.078a.348.348 0 0 0 .11-.17v-.043c.06-.038.115-.094.121-.172a.196.196 0 0 0-.056-.147.709.709 0 0 0-.025-.148c.249-.224.324-.604-.022-.698a.207.207 0 0 0 .131-.198v-.04c.14-.132.175-.251-.056-.26.1-.07.184-.157.225-.273a.424.424 0 0 0 .019-.1c.039-.007.075-.017.084-.047.018-.06-.105-.125-.137-.141l-.006-.003a.385.385 0 0 0-.057-.066l-.012-.025-.016-.019c.239-.154.162-.56-.131-.658.134-.096.223-.246.2-.416a.208.208 0 0 0-.044-.094c-.019-.065-.084-.117-.147-.141v-.02c0-.07-.065-.14-.109-.187a.962.962 0 0 0-.138-.11c.06-.005.122-.014.179-.028.017-.004.126-.027.121-.072-.006-.053-.05-.096-.087-.132-.022-.024-.065-.034-.106-.043l.037-.054c.034-.035-.014-.115-.031-.144a1.166 1.166 0 0 0-.19-.232 2.04 2.04 0 0 0-.091-.081c.029-.018.048-.038.047-.063-.004-.114-.308-.107-.407-.103l.003-.019v-.031c.082-.121-.004-.259-.11-.342.08.002.157-.008.063-.062a1.095 1.095 0 0 0-.272-.116c.054-.114-.124-.185-.228-.185l-.056.003a.208.208 0 0 0 .084-.116c.022-.006.046-.012.07-.016.178-.027-.034-.32-.076-.366-.112-.126-.293-.271-.475-.244l-.053.009a1.131 1.131 0 0 0-.37-.245l-.002-.006c-.084-.103-.224-.17-.353-.106l-.006.003c-.069-.039-.135-.06-.166-.029l-.022.029-.05-.013a.48.48 0 0 0-.056-.103c-.08-.107-.218-.098-.322-.035a.357.357 0 0 0-.103.094l-.04-.022c-.065-.028-.192-.053-.16.057.007.028.017.054.028.081a.466.466 0 0 0-.141-.069.274.274 0 0 0-.147 0l-.034.016a.622.622 0 0 0-.094-.044c-.022-.01-.075-.031-.097-.003-.02.025.011.076.025.094.038.05.075.094.122.135a.914.914 0 0 0-.19-.05c-.122 0-.055.049.052.093-.06.02-.116.042-.121.06a.296.296 0 0 0-.082.019c-.025.002-.035.011-.034.018a.17.17 0 0 0-.078.154.47.47 0 0 0 .025.122.27.27 0 0 0-.107.232.405.405 0 0 0-.09-.078c-.03-.02-.02.032-.02.037a.57.57 0 0 0 .045.116c-.09.002-.177.038-.22.12l-.015.04c-.052-.042-.123-.087-.118-.04a.33.33 0 0 0 .034.106.845.845 0 0 0 .1.156c-.058.014-.075.073-.075.138a.37.37 0 0 0-.26.1.279.279 0 0 0-.084.157c-.025 0-.047.004-.06.018v.076c.012.035.022.073.035.11a.252.252 0 0 0 .038.074.28.28 0 0 0-.072.132V83.247s-.143.047-.125.16c.017.112-.004.225.228.516.232.292-.215.188-.197.301.017.112.035.332.303.373.268.04.142.216.053.338-.088.122-.274-.074-.306.3-.032.376-.085.217-.019.377s.074.255.163.373c.089.117.034.052.015.228-.018.177-.093.17-.162.339-.069.168.041.341.16.479a.72.72 0 0 1 .196.373c.046.181.061.193.016.338-.046.145-.075.117.231.338.306.222-.154.146-.125.301.03.156.41.266.41.266.058.15.238.262.387.27.049.003.098.002.147.006a.809.809 0 0 0 .3-.082l.06-.034.025.012a.78.78 0 0 0 .303.085c.01.418.063.838.056 1.262-.01.567-.043 1.138-.09 1.708h-2.03v.078c-.526-.012-7.22-.163-7.19.154h-.606v-1.667a.08.08 0 0 0-.08-.078h-.045v-.383h.122a.076.076 0 0 0 .078-.078v-.25a.079.079 0 0 0-.078-.082h-.122v-.326a.082.082 0 0 0-.08-.081h-.17l-.51-.464a.304.304 0 1 0-.431-.01l-.5.474h-.169c-.043 0-.054.043-.078.081v.326h-.122a.082.082 0 0 0-.08.082v.25c0 .04.092.071.087.078h.115v.383h-.047c-.044 0-.073.034-.078.078v1.667h-1.257c.004-.001.007 0 .01-.003a.285.285 0 0 0 .056-.054.105.105 0 0 0 .06-.065c.01-.028.003-.057-.01-.085a.176.176 0 0 0-.012-.179v-.022a.327.327 0 0 0-.003-.056v-.013l.04-.043a.08.08 0 0 0 0-.113l-.081-.075a.079.079 0 0 0-.113.003l-1.097 1.165h-.647l-.19.204h-.248l-.543-.514.3-.323-.279-.263-.3.323-.675-.636.303-.323-.278-.263-.303.323-.678-.636.303-.323-.275-.263-.304.322-.675-.635.3-.323-.278-.263-.303.322-.672-.639.3-.32-.278-.262-.304.32-.675-.637.303-.322-.278-.26-.3.32-.678-.637.303-.323-.685-.645-.178-.166a.074.074 0 0 0-.053-.025c-.02-.003-.046.01-.062.025l-.147.163a.08.08 0 0 0-.025.06l-.441.47a.081.081 0 0 0-.056.025l-.113.119a.078.078 0 0 0-.022.037.073.073 0 0 0-.031.019l-.06.063a.078.078 0 0 0-.021.056c0 .02.01.045.025.06l6.123 5.776h-.543c-.046 0-.073.035-.082.079v.996h-2.65v2.099h-11.12v-2.28a.08.08 0 0 0-.028-.064l-.19.182h-.873l.657-.62.178.188.278-.263-.178-.188.675-.636.178.188.278-.263-.178-.188.675-.636.179.188.278-.264-.178-.19.675-.633.178.188.278-.264-.178-.19.675-.637.178.191.279-.263-.178-.19.675-.637.178.191.278-.263-.178-.19.675-.637.178.191.278-.263-.178-.191.541-.508-.1-.11a.086.086 0 0 0-.06-.024l-.443-.473c0-.021-.007-.04-.022-.057l-.147-.163a.085.085 0 0 0-.116-.003l-.972.918-1.404-1.494c-.014-.017-.047-.029-.059-.025-.02 0-.04.008-.056.022l-.038.034-.012.013-.028.028c-.034.032-.037.081-.006.113l.043.044a.762.762 0 0 0-.003.028v.044c.001.01.002.016-.003.031-.024.042-.043.09-.015.15 0 .008-.002.014-.003.02a.2.2 0 0 0 0 .084c.014.038.045.053.062.063.02.026.039.042.053.053.015.009.015.008.02.018.04.081.154.08.187-.003.01-.027.01-.055.012-.087.001-.017.01-.028.022-.047l1.032 1.096-.75.708-1.407-1.494a.077.077 0 0 0-.113-.003l-.081.075c-.03.03-.03.08 0 .113l.04.044c0 .008.002.017 0 .028v.044c0 .012 0 .016-.005.031-.024.04-.044.085-.016.15l-.003.022c-.003.025-.007.055.003.082.012.04.04.056.06.066.019.025.041.04.056.05.012.01.011.012.018.022.036.071.137.112.185-.006a.243.243 0 0 0 .015-.085c.001-.018.008-.029.022-.047l1.029 1.097-.75.708-1.404-1.495a.08.08 0 0 0-.116-.003l-.078.072a.088.088 0 0 0-.025.057c0 .02.006.043.019.06l.044.043c-.001.007-.003.015-.003.025-.003.019-.001.033 0 .047 0 .01.002.014-.003.028-.024.04-.043.09-.016.154l-.003.019a.175.175 0 0 0 .003.084.11.11 0 0 0 .06.063c.02.028.04.044.053.053.013.01.014.012.018.02.032.073.145.113.191-.007.008-.027.007-.053.009-.084.001-.018.009-.03.022-.047l1.031 1.096-.753.708-1.404-1.494a.079.079 0 0 0-.112-.003l-.078.072a.077.077 0 0 0-.028.056.076.076 0 0 0 .025.06l.04.043c0 .01-.002.016-.003.026v.05c0 .011 0 .014-.006.025-.023.041-.04.089-.012.153l-.003.022a.163.163 0 0 0 .003.082.102.102 0 0 0 .056.062c.02.028.042.044.056.054.013.01.017.012.022.021.033.075.146.105.185-.006a.243.243 0 0 0 .012-.087c0-.017.007-.029.022-.047l1.032 1.1-.75.707-1.407-1.497c-.016-.016-.046-.028-.06-.025a.087.087 0 0 0-.053.022l-.037.034-.016.016-.028.028a.08.08 0 0 0-.003.113l.044.044-.003.025a.32.32 0 0 0 0 .044.052.052 0 0 1-.006.031.162.162 0 0 0-.013.154l-.003.018a.2.2 0 0 0 0 .085.113.113 0 0 0 .06.063c.02.026.042.043.056.053.014.01.013.01.019.022.035.072.147.1.184-.003a.23.23 0 0 0 .016-.088.093.093 0 0 1 .022-.05l1.031 1.096-.753.708-1.404-1.494c-.03-.032-.08-.036-.112-.003l-.082.075a.08.08 0 0 0-.003.113l.044.044c-.002.01 0 .02-.003.028v.044c.001.012 0 .016-.006.031-.023.041-.04.087-.012.15l-.003.023a.146.146 0 0 0 0 .081.106.106 0 0 0 .059.063c.02.027.042.044.056.053.013.01.014.01.02.019.038.084.148.09.187-.006a.25.25 0 0 0 .012-.082c.001-.018.01-.03.022-.05l1.032 1.097-.52.488.57.608-.757.708-.566-.601v-.937a.077.077 0 0 0-.078-.078h-.044v-.16l-.765-.815c-.022-.024-.055-.03-.088-.018a.068.068 0 0 0-.022-.003h-.122v-.326a.082.082 0 0 0-.081-.082h-.169l-.506-.463a.303.303 0 0 0 .09-.22.303.303 0 1 0-.606 0c0 .08.03.157.084.213l-.503.47h-.169c-.044 0-.058.044-.081.082v.326h-.119a.081.081 0 0 0-.081.081v.254c0 .04.096.07.09.078h.11v.382h-.044c-.045 0-.073.035-.078.079v1.895h-.047a.08.08 0 0 0-.078.081v.251c0 .033.02.06.047.072h-.084a.079.079 0 0 0-.079.082v1.757h-.128V65.442h-2.535v-.43h-.916v-.529h-1.2v.53h-2.117v.429h-.89v19.987l-2.605-1.225v-.191h-.153v-.138h-.16v-.125h-.193v.125h-.16v.138h-.153v.191l-5.139 2.418v-.028h-.125v-.185h-.072v-.153h-.197V86.767h.06v.936h-1.544V60.815h-1.095v-1.156h-3.241v1.156h-1.098v34.88h-.875V63.697h-6.724v-1.366h-1.438V60.53h-.481v.683h-.872v-.683h-.175v-3.556h-.222v3.556h-.522v-4.674h-.176v5.357h-1.178v-.683h-.481V62.33h-.829v1.366h-4.889v17.769h-.706v-.567h-.76v-.959h-1.325v-.958h-1.576v.958h-1.322v.959h-.76v.567h-3.326v.507h-.606v.79h.606v12.982h-.844V77.631h-.566v-3.37h-.4V72.19l-2.48-1.488v-.31h-.25l-.002-.047-.066-.032.019-.36.028-.379h.047s.013-.427-.025-.445a.784.784 0 0 0-.128-.037v-.054l.006-.025a.142.142 0 0 0 .031-.09c0-.064-.035-.12-.078-.12-.044 0-.081.056-.081.12a.14.14 0 0 0 .031.09l.006.025v.054s-.089.018-.128.037c-.037.018-.022.445-.022.445h.047l.025.38.022.36-.066.03-.006.048h-.25v.31l-2.479 1.488v2.07h-.4v3.371h-.566v18.114h-.625V61.642H76.36v-13.63h-1.632v-9.333H73.34v-6.626h-.353v6.134h-.406v-.47h-.016V25.568h-.725v6.15h-.254v6h-.568v-9.06h-.204v-3.444h-.556v3.443h-.203v9.53h-.15v-3.242H69.5v3.734h-.253v-6.272h-.403v6.272h-.65v9.332h-1.632v13.631h-2.041v14.542h-.02v1.272h-.45v-3.769h.36v-.76h-.36V71.57h-.528v-.846h-.422v-.508h-.23v-.676h-.467v-1.185h-.168v-.55h-.56v-.38h-.338v-.849h-.36v.849h-.337v.38h-.56v.55h-.168v1.185h-.466v.676h-.231v.508h-.422v.846h-.528v1.356h-.36v.761h.36v3.769h-.45v-1.272H55.46v1.272h-.472v18.289h-.503V61.388H52.97V60.18h-2.31v1.21h-1.52v16.694h-.9v-1.601h-1.597v-1.1h-.35v-1h-.397v-.5h-.997v-4.797h-.4v4.797h-.126v-.649h-.497v.649h-.775v.5h-.647v1h-1.347v1.1h-1.373v-6.194H37.79v-.748h-4.195v-3.293h-3.748v3.293h-4.195v.748h-1.945v25.454h-.578V68.283h-.719v-3.057H22v-1.147h-.337v-.714h.25v-.395h-.25v-2.61h-.738l-1.85-2.462-1.851 2.463h-.738v2.61h-.25v.394h.25v.714h-.337v1.147h-.413v3.057h-.719v27.459h-.838V36.837l-.466-.06V32.02l-.012.003c-.177-.392-2.237-.194-4.658.45-2.253.601-4.039 1.382-4.239 1.834l-.018.003v1.3l-.76-.097v2.359H3.29v10.986H2.138v.395h-.516v14.53H.087v47.652l349.83.25V53.46h-3.842v21.3h-.85v-.68h-.913v-1.147h-1.585V71.78h-1.888v1.153h-1.588v1.147h-.91v.68h-3.985v.607h-.729v.95h.729v15.56h-1.013V70.163h-.679v-4.041h-.478V63.64l-2.973-1.785v-.37h-.297l-.006-.056-.078-.038.022-.432.032-.454h.059s.018-.511-.028-.533c-.046-.022-.157-.047-.157-.047v-.06l.01-.034a.162.162 0 0 0 .034-.106c0-.078-.042-.141-.094-.141-.053 0-.094.064-.094.14 0 .045.013.083.035.107l.009.035v.06s-.106.023-.153.046c-.045.022-.029.533-.029.533h.057l.031.454.025.432-.081.038-.006.056h-.297v.37l-2.973 1.785v2.482h-.478v4.04h-.682v21.714h-.747v-40.88h-2.441v-16.34h-1.96V23.47h-1.663v-7.938h-.422v7.353h-.488v-.568h-.016V7.756h-.869v7.37h-.303v7.19h-.688V11.458h-.24V7.333zM143.194 91.568l.64.683.235-.222-.462-.492c-.015.02-.022.031-.022.05-.002.03-.002.057-.013.084-.032.093-.155.088-.19.003a.077.077 0 0 0-.019-.018.198.198 0 0 1-.053-.05.107.107 0 0 1-.06-.07.148.148 0 0 1-.003-.078l.006-.022a.145.145 0 0 1-.015-.09h-.044zm8.187-4.771l.01.009c.01.012.015.024.018.038.014.004.028.007.037.018l.057.063a.08.08 0 0 1-.003.116l-.482.454.235.248.675-.64-.413-.435zm-.64.962l-.676.636.231.247.676-.639zm-.954.899l-.675.636.231.247.675-.636zm-.954.899l-.675.636.232.247.675-.636zm-.953.899l-.675.636.231.247.675-.636zm-.953.899l-.676.636.232.247.675-.635zm-.954.9l-.675.635.231.248.675-.636zm-.953.898l-.247.232h.425a.08.08 0 0 1 .05.019l.003-.003zm10.397-6.616l.11.103.109-.116-.11-.103zm.219-.013l.193.182.923-.977c.014.019.02.03.022.065 0 .018.002.043.012.07.04.112.154.077.188.002.004-.009.007-.009.018-.018a.23.23 0 0 0 .057-.053.107.107 0 0 0 .06-.066c.01-.028.004-.053 0-.079-.002-.008-.007-.016-.007-.009.03-.078.014-.125-.015-.172v-.025a.496.496 0 0 0 0-.056c-.001-.005-.003-.007-.003-.013l.043-.044a.09.09 0 0 0 .022-.06.085.085 0 0 0-.025-.055l-.081-.076a.08.08 0 0 0-.113.006zm.193.182l-.109.12.372.35.11-.119zm.541.73l.103.097.107-.116-.1-.094zm.21-.019l.197.188.925-.983c.013.018.02.03.022.06 0 .018.002.044.012.074.032.081.144.087.188.006.003-.01.005-.015.019-.025.014-.01.032-.023.053-.05a.11.11 0 0 0 .062-.066c.007-.027.001-.053-.003-.078 0-.006.001-.016-.006-.006a.177.177 0 0 0-.012-.175c-.001-.008-.003-.014-.003-.026a.32.32 0 0 0 0-.043v-.026l.04-.043a.082.082 0 0 0-.003-.116l-.078-.072a.083.083 0 0 0-.056-.022h-.003a.08.08 0 0 0-.056.025zm.197.188l-.107.113.376.357.109-.116zm.547.733l.097.091.109-.116-.097-.09zm.206-.025l.197.185.922-.984a.085.085 0 0 1 .022.06c.001.02.001.048.009.078.032.081.152.082.188.003.006-.01.008-.013.018-.022a.203.203 0 0 0 .057-.053.108.108 0 0 0 .059-.063.162.162 0 0 0 0-.084c-.001-.006 0-.013-.003-.006a.183.183 0 0 0-.016-.173c0-.006-.003-.008-.003-.018.001-.015.003-.03 0-.05v-.023l.041-.047a.09.09 0 0 0 .025-.056.093.093 0 0 0-.028-.056l-.078-.075c-.014-.015-.028-.015-.057-.022a.079.079 0 0 0-.056.025zm.197.185l-.11.116.382.36.11-.116zm.55.74l.09.084.11-.116-.09-.085zm.2-.032l.194.185.922-.984c.015.019.021.033.022.05l.003.022a.196.196 0 0 0 .013.063c.042.117.154.076.184.006.005-.01.01-.012.022-.022a.241.241 0 0 0 .053-.05.114.114 0 0 0 .063-.066.186.186 0 0 0 0-.081c-.002-.007-.007-.012-.01-.006.032-.078.017-.128-.012-.173v-.025-.053l-.003-.015.04-.044a.08.08 0 0 0-.002-.116l-.075-.072a.09.09 0 0 0-.06-.022.078.078 0 0 0-.056.025zm.194.185l-.106.113.39.37.107-.113zm.56.746l.084.078.11-.116-.085-.078zm.193-.038l.197.185.923-.98c.013.019.02.032.021.065.001.02.002.04.01.066.041.117.155.08.19.006.004-.01.003-.01.016-.019.014-.011.037-.028.056-.053a.113.113 0 0 0 .063-.07c.007-.024.003-.05 0-.074-.001-.005-.005-.014-.006-.013a.18.18 0 0 0-.016-.169.067.067 0 0 1-.003-.022c0-.014.004-.028 0-.06v-.012l.044-.044a.085.085 0 0 0-.006-.116l-.078-.072c-.031-.032-.083-.027-.113.003zm.197.185l-.11.116.398.372.106-.115zm.566.752l.078.072.107-.113-.079-.072zm.185-.041l.193.185.926-.984c.015.02.02.031.022.06 0 .02.002.049.012.078.042.112.148.076.188 0 .005-.01.006-.01.018-.019.014-.01.034-.026.054-.053a.108.108 0 0 0 .059-.066.13.13 0 0 0 0-.078c0-.006.002-.014-.003-.006a.175.175 0 0 0-.016-.176v-.022c.001-.013.003-.027 0-.047 0-.007-.003-.016-.003-.025l.04-.044a.081.081 0 0 0-.002-.115l-.078-.073a.083.083 0 0 0-.116.003zm.193.185l-.106.113.4.379.107-.116zm.572.755l.072.069.107-.113-.072-.07zm.179-.044l.197.185.925-.984c.013.019.02.03.022.06 0 .02.002.045.009.072.043.117.157.078.187.006.005-.01.007-.013.022-.022.015-.01.035-.023.053-.05a.113.113 0 0 0 .06-.066.188.188 0 0 0 .003-.082c-.002-.006-.001-.015-.006-.006a.17.17 0 0 0-.016-.172v-.025-.044c0-.009-.003-.018-.003-.028l.044-.044a.08.08 0 0 0-.003-.113l-.081-.075a.08.08 0 0 0-.113.006zm.197.185l-.107.113.403.379h.01l.103-.11zm41.963-36.982v.166c0 .692.483 1.273 1.132 1.419v.827a12.716 12.716 0 0 0-4.295.855l-.188-.45c.337-.268.557-.68.557-1.144v-1.14c.9-.261 1.834-.442 2.794-.533zm2.898 0a15.26 15.26 0 0 1 2.795.532v1.14c0 .465.218.877.556 1.144l-.187.451a12.728 12.728 0 0 0-4.296-.855v-.827a1.451 1.451 0 0 0 1.132-1.42zm-8.593 1.707c.017.788.661 1.42 1.45 1.42.112 0 .218-.018.322-.041l.175.422a12.827 12.827 0 0 0-3.642 2.44l-1.066-1.061v-1.244-.062c.848-.72 1.771-1.35 2.76-1.874zm14.289 0c.829.44 1.61.953 2.341 1.532-.037.13-.06.263-.06.404v1.51c0 .066.007.134.016.197l-.603.602a12.81 12.81 0 0 0-3.642-2.44l.175-.426c.104.023.214.04.325.04a1.45 1.45 0 0 0 1.448-1.419zm-7.462 1.128v5.567a6.73 6.73 0 0 0-2.01.398l-2.126-5.27c1.289-.495 2.679-.66 4.136-.695zm.631 0h.003c1.456.035 2.846.322 4.136.818l-2.126 5.147a6.753 6.753 0 0 0-2.013-.398zm-5.351 1.062l2.125 5.147a6.88 6.88 0 0 0-1.703 1.14l-3.927-3.934a12.419 12.419 0 0 1 3.505-2.353zm10.075 0a12.436 12.436 0 0 1 3.504 2.353l-3.926 3.934a6.813 6.813 0 0 0-1.707-1.14zm-15.04 1.786l.716.717a12.849 12.849 0 0 0-2.438 3.65l-1.078-.448v-.95c0-.412-.172-.784-.447-1.046.276-.483.577-.949.903-1.394.26.245.608.398.994.398.616 0 1.14-.385 1.35-.927zm22.117.225c.412.54.792 1.105 1.132 1.698a1.447 1.447 0 0 0-.444 1.046v.946l-1.082.448a12.866 12.866 0 0 0-2.435-3.65l.406-.406a1.441 1.441 0 0 0 2.423-.081zm-21.104.786l3.927 3.938a6.869 6.869 0 0 0-1.138 1.708l-5.136-2.13a12.391 12.391 0 0 1 2.347-3.516zm17.978 0a12.425 12.425 0 0 1 2.348 3.515l-5.136 2.13a6.908 6.908 0 0 0-1.138-1.707zm-9.306 1.93v5.04l-1.923-4.658a6.468 6.468 0 0 1 1.923-.382zm.634 0c.673.032 1.318.161 1.923.382l-1.923 4.659zm-3.141.627l1.925 4.658-3.557-3.568a6.573 6.573 0 0 1 1.632-1.09zm5.649 0c.597.282 1.146.65 1.631 1.09l-3.557 3.568zm-15.634 1.03l.844.354a12.82 12.82 0 0 0-.85 4.305h-1.332v-.332a1.45 1.45 0 0 0-1.01-1.385c.078-.588.19-1.161.329-1.726a1.452 1.452 0 0 0 2.02-1.216zm25.615 0a1.455 1.455 0 0 0 1.447 1.335c.204 0 .397-.043.572-.12.142.566.254 1.14.332 1.727a1.456 1.456 0 0 0-1.013 1.385v.332h-1.329a12.803 12.803 0 0 0-.85-4.305zm-17.71.508l3.558 3.562-4.648-1.927c.283-.6.652-1.149 1.09-1.635zm9.807 0a6.63 6.63 0 0 1 1.091 1.635l-4.648 1.93zm-16.48.003l5.133 2.133a6.853 6.853 0 0 0-.397 2.015h-5.555c.036-1.458.322-2.856.819-4.148zm23.154 0c.497 1.292.782 2.69.82 4.148h-5.556a6.773 6.773 0 0 0-.397-2.015zm-17.815 2.218l4.649 1.93h-5.027a6.677 6.677 0 0 1 .378-1.93zm12.473 0c.22.607.351 1.256.381 1.93h-5.03zm-20.382 2.566h1.332c.037 1.513.334 2.962.85 4.307l-.847.351a1.448 1.448 0 0 0-1.44-1.29c-.2 0-.39.036-.564.109a15.343 15.343 0 0 1-.312-1.557c.57-.194.981-.737.981-1.375zm1.75 0h5.556a6.84 6.84 0 0 0 .397 2.01l-5.133 2.131a12.388 12.388 0 0 1-.82-4.141zm5.781 0h5.027l-4.649 1.926a6.711 6.711 0 0 1-.378-1.926zm8.203 0h5.03a6.536 6.536 0 0 1-.382 1.926zm5.254 0h5.555a12.374 12.374 0 0 1-.819 4.141l-5.133-2.13c.23-.633.368-1.307.397-2.011zm5.974 0h1.329v.545c0 .638.411 1.182.985 1.375-.078.53-.183 1.05-.313 1.557a1.451 1.451 0 0 0-2.004 1.181l-.847-.354c.518-1.342.813-2.79.85-4.304zm-14.483.714l-.134.326-3.101 3.104a6.635 6.635 0 0 1-1.091-1.632zm3.336 0l4.326 1.798a6.602 6.602 0 0 1-1.09 1.632l-3.102-3.104zm-1.985.558v5.04a6.522 6.522 0 0 1-1.923-.382zm.634 0l1.923 4.658a6.53 6.53 0 0 1-1.923.382zm-6.517 1.325a6.94 6.94 0 0 0 1.138 1.71l-3.927 3.935a12.468 12.468 0 0 1-2.347-3.515zm7.746 0l.522.905.885 2.118c-.044.02-.085.047-.128.069zm-3.095.003l-1.275 3.089c-.043-.021-.086-.049-.128-.07l.884-2.117zm7.778.009l5.136 2.13a13.352 13.352 0 0 1-2.376 3.502l-3.926-3.934a8.2 8.2 0 0 0 1.166-1.698zm-9.272.564l-1.191 1.61c-.073-.063-.148-.123-.222-.188zm6.083.003l1.416 1.419c-.072.065-.147.125-.225.188zm-7.655 1.575c.08.073.167.142.25.21l-3.31 4.477c-.3-.236-.59-.487-.867-.752zm9.23 0l3.927 3.938c-.279.264-.566.513-.866.749l-3.31-4.477c.084-.068.168-.137.25-.21zm-16.339.138c.6 1.356 1.43 2.587 2.438 3.647l-.725.73a1.459 1.459 0 0 0-1.341-.896c-.377 0-.72.144-.975.379-.33-.445-.625-.908-.904-1.388.265-.263.429-.63.429-1.034v-.993zm23.445 0l1.082.445v.993c0 .404.164.769.428 1.03-.34.59-.717 1.155-1.128 1.69a1.452 1.452 0 0 0-1.223-.677c-.48 0-.905.234-1.169.592l-.425-.426a12.837 12.837 0 0 0 2.435-3.647zm-14.764.934c.045.024.088.05.131.072l-2.125 5.14a13.172 13.172 0 0 1-.157-.068zm6.083 0l2.15 5.144-.152.069-2.13-5.141c.047-.022.089-.048.132-.072zm-5.367.313a6.848 6.848 0 0 0 2.01.401v5.564a12.293 12.293 0 0 1-4.139-.818zm4.654 0l2.13 5.144a12.26 12.26 0 0 1-4.14.82v-5.563a6.84 6.84 0 0 0 2.01-.401zm-6.886.282l-2.141 3.718c-.138-.09-.272-.182-.407-.275zm9.119 0l2.547 3.443c-.133.093-.271.185-.41.275zm-9.441 1.974l-.944 2.258-.269-.15zm9.762 0l1.213 2.108-.269.15zm-13.72.592c.292.279.6.542.916.792l-1.472 1.993c-.173-.136-.34-.275-.507-.417v-1.303zm17.678 0l.606.61c-.01.075-.015.15-.015.23v1.512c0 .126.017.25.047.367-.025.019-.053.045-.082.066l-1.472-1.993c.317-.25.624-.512.916-.792zm-16.196 1.215c.147.103.296.203.447.3l-1.238 2.147c-.23-.149-.458-.3-.681-.458zm14.714 0l1.473 1.993c-.225.159-.452.308-.685.457l-1.238-2.15c.153-.098.302-.197.45-.3zm-13.66.667c.103.061.209.114.315.17l-.49 1.162c-.352.225-.599.6-.654 1.037-.137-.076-.274-.145-.406-.223zm12.607 0l1.238 2.146c-.136.078-.275.147-.41.223a1.455 1.455 0 0 0-.656-1.037l-.485-1.162c.104-.056.208-.109.313-.17zm-11.66.486c.051.023.103.052.16.075l-.235.567a1.137 1.137 0 0 0-.185-.022zm10.713 0l.26.62c-.062.003-.125.01-.185.022l-.235-.567c.054-.022.106-.051.16-.075zm-9.972.316c1.338.516 2.786.815 4.298.853v.529a1.452 1.452 0 0 0-1.135 1.416v.467c-.96-.09-1.895-.27-2.795-.53v-.98a1.445 1.445 0 0 0-.606-1.181zm9.228 0l.237.574a1.458 1.458 0 0 0-.606 1.18v.981c-.9.26-1.836.44-2.795.53v-.467a1.45 1.45 0 0 0-1.132-1.416v-.53a12.8 12.8 0 0 0 4.296-.852zm-13.752.943c.239.17.484.332.735.49l-.991 1.719a9.236 9.236 0 0 0-.947-.583zm18.278 0l3.035 4.098h-1.69l-2.08-3.609c.25-.16.495-.319.735-.489zm-16.94.852c.213.122.43.239.65.351l-.912 2.18a7.445 7.445 0 0 0-.766-.735zm15.6 0l1.868 3.246h-1.303l-1.213-2.895c.218-.112.434-.23.647-.35zm-12.046 1.476c.9.254 1.836.428 2.795.514v.523a1.452 1.452 0 1 0 2.901 0v-.523a15.616 15.616 0 0 0 2.795-.514c.005.8.655 1.447 1.453 1.447a1.45 1.45 0 0 0 1.363-.965l.538 1.288h-1.004v2.428h-13.294c-.023-.864-.33-1.717-.866-2.503l.506-1.213c.2.561.735.965 1.366.965a1.45 1.45 0 0 0 1.447-1.447zm-10.69 5.028c1.08.522 2.043.932 2.9 1.237h-5.717c.849-.311 1.783-.716 2.816-1.237zm-46.672 2.5l.372.392-.06.056h-.312z" fill="#f0b54d"/><path d="M350 109.516H0V134h350z" fill="#6d6e70"/><g><path d="M97.563 127.017c0 1.454-1 2.632-2.235 2.632h-76.23c-1.236 0-2.237-1.178-2.237-2.632 0-1.453 1.001-2.631 2.236-2.631h76.23c1.235 0 2.236 1.178 2.236 2.631" fill="#58595b"/></g></svg>