<svg xmlns="http://www.w3.org/2000/svg" viewbox="0 0 3500 1340" preserveAspectRatio="xMinYMin slice" id="city"><defs><clipPath id="a"><path d="M42.936 700.188h187.217V590.553H42.936v109.635z"/></clipPath><clipPath id="b"><path d="M927.512 845.306h178.028v-112.11H927.512v112.11z"/></clipPath><clipPath id="c"><path d="M467.984 930.662h178.104V821.857H467.984v108.805z"/></clipPath><clipPath id="d"><path d="M1170.11 618.771h150.17v-90.758h-150.17v90.758z"/></clipPath><clipPath id="e"><path d="M66.936 713.518h187.217V603.884H66.936v109.634z"/></clipPath><clipPath id="f"><path d="M927.512 845.306h178.028v-112.11H927.512v112.11z"/></clipPath><clipPath id="g"><path d="M467.984 930.662h178.104V821.857H467.984v108.805z"/></clipPath><clipPath id="h"><path d="M1170.11 618.771h150.17v-90.758h-150.17v90.758z"/></clipPath></defs><path d="M.857 1087.597h3496.856V0H.857z" fill="#f8daa6"/><g clip-path="url(#a)" opacity=".7" transform="matrix(1.2504 0 0 -1.2531 409.276 1224.286)"><path d="M79.682 666.317c.008 4.06.712 7.848 2.74 11.054 3.136 4.96 10.151 7.125 15.66 5.1 2.871-1.055 4.553-.676 6.691 1.588 13.194 13.975 29.535 19.014 48.051 14.547 19.323-4.663 31.601-17.407 36.783-36.581 1.347-4.988 1.4-10.327 2.085-15.821 2.227.283 4.572.568 6.916.884 14.38 1.928 28.421-8.551 31.025-22.837 1.574-8.634-.459-16.465-5.696-23.02-5.683-7.114-13.548-10.714-22.938-10.678-29.139.113-58.28.11-87.42.152-11.428.017-22.857-.055-34.284.07-18.073.198-34.296 15.128-36.135 33.111-2.2 21.501 11.97 39.109 33.702 41.902 1.236.157 2.453.458 2.82.529" fill="#e8e8e8" fill-rule="evenodd"/></g><g clip-path="url(#b)" opacity=".7" transform="matrix(1.2504 0 0 -1.2531 409.276 1224.286)"><path d="M1038.997 809.567c12.967 6.146 25.197 6.092 35.637-4.201 10.51-10.362 10.02-22.762 4.63-36.008 3.104 0 5.604.088 8.096-.016 9.158-.373 16.086-6.16 17.85-14.828 1.592-7.826-2.713-16.242-10.627-19.762-2.576-1.144-5.69-1.472-8.565-1.484-24.959-.11-49.917-.062-74.876-.062-18.33.004-36.659-.016-54.989.013-15.77.026-28.576 12.678-28.64 28.229-.063 15.459 12.814 28.29 28.511 28.404 2.067.016 4.135.002 6.87.002-4.665 14.619-3.876 28.065 5.458 40.137 5.938 7.683 13.758 12.53 23.245 14.472 11.41 2.34 21.894-.265 31.281-6.94 9.406-6.686 13.7-16.591 16.12-27.956" fill="#e8e8e8" fill-rule="evenodd"/></g><g clip-path="url(#c)" opacity=".7" transform="matrix(1.2504 0 0 -1.2531 409.276 1224.286)"><path d="M623.616 859.056c4.62-1.146 8.827-1.51 12.396-3.212 8.034-3.836 11.568-12.102 9.493-20.466-1.938-7.808-9.054-13.276-17.585-13.498-1.258-.032-2.518-.006-3.776-.006-42.478 0-84.957-.053-127.435.034-11.934.024-20.745 5.716-25.827 16.389-5.074 10.656-3.316 20.84 3.96 30.015 3.19 4.02 7.358 6.863 12.255 8.459 1.928.628 2.477 1.685 2.527 3.65.66 26.015 18.412 46.564 43.939 49.83 23.66 3.026 45.453-10.915 53.355-33.574 1.727-4.956 1.716-4.96 6.918-4.638 15.594.963 29.39-11.664 29.773-27.266.05-2.073.007-4.15.007-5.717" fill="#e8e8e8" fill-rule="evenodd"/></g><g clip-path="url(#d)" opacity=".7" transform="matrix(1.2504 0 0 -1.2531 409.276 1224.286)"><path d="M1286.107 572.927c5.295.251 10.141 1.152 14.801.568 11.758-1.473 20.127-12.25 19.322-24.009-.79-11.59-10.437-21.089-22.053-21.357-9.427-.217-18.865-.065-28.3-.065-23.692-.003-47.38-.05-71.073.02-13.779.038-24.746 8.84-27.96 22.196-4.296 17.856 10.85 35.7 29.181 34.382 4.47-.32 4.47-.32 5.752 4.114a41.52 41.52 0 0 0 36.898 29.897c16.287 1.185 32.551-8.48 39.637-23.7 2.693-5.783 3.672-11.989 3.791-18.336.027-1.347.004-2.694.004-3.71" fill="#e8e8e8" fill-rule="evenodd"/></g><g><g clip-path="url(#e)" opacity=".7" transform="matrix(1.2504 0 0 -1.2531 1035.195 1507.843)"><path d="M103.682 679.648c.008 4.06.712 7.848 2.74 11.054 3.136 4.96 10.151 7.125 15.66 5.1 2.871-1.055 4.553-.676 6.691 1.588 13.194 13.975 29.535 19.014 48.051 14.547 19.323-4.663 31.601-17.407 36.783-36.581 1.347-4.988 1.4-10.327 2.085-15.821 2.227.283 4.572.568 6.916.884 14.38 1.928 28.421-8.551 31.025-22.837 1.574-8.634-.459-16.465-5.696-23.02-5.683-7.114-13.548-10.714-22.938-10.678-29.139.113-58.28.11-87.42.152-11.428.017-22.857-.055-34.284.07-18.073.198-34.296 15.128-36.135 33.11-2.2 21.502 11.97 39.11 33.702 41.903 1.236.157 2.453.458 2.82.529" fill="#e8e8e8" fill-rule="evenodd"/></g></g><g><g clip-path="url(#f)" opacity=".7" transform="matrix(1.2504 0 0 -1.2531 1709.7 1427.645)"><path d="M1038.997 809.567c12.967 6.146 25.197 6.092 35.637-4.201 10.51-10.362 10.02-22.762 4.63-36.008 3.104 0 5.604.088 8.096-.016 9.158-.373 16.086-6.16 17.85-14.828 1.592-7.826-2.713-16.242-10.627-19.762-2.576-1.144-5.69-1.472-8.565-1.484-24.959-.11-49.917-.062-74.876-.062-18.33.004-36.659-.016-54.989.013-15.77.026-28.576 12.678-28.64 28.229-.063 15.459 12.814 28.29 28.511 28.404 2.067.016 4.135.002 6.87.002-4.665 14.619-3.876 28.065 5.458 40.137 5.938 7.683 13.758 12.53 23.245 14.472 11.41 2.34 21.894-.265 31.281-6.94 9.406-6.686 13.7-16.591 16.12-27.956" fill="#e8e8e8" fill-rule="evenodd"/></g></g><g><g clip-path="url(#g)" opacity=".7" transform="matrix(1.2504 0 0 -1.2531 1709.7 1427.645)"><path d="M623.616 859.056c4.62-1.146 8.827-1.51 12.396-3.212 8.034-3.836 11.568-12.102 9.493-20.466-1.938-7.808-9.054-13.276-17.585-13.498-1.258-.032-2.518-.006-3.776-.006-42.478 0-84.957-.053-127.435.034-11.934.024-20.745 5.716-25.827 16.389-5.074 10.656-3.316 20.84 3.96 30.015 3.19 4.02 7.358 6.863 12.255 8.459 1.928.628 2.477 1.685 2.527 3.65.66 26.015 18.412 46.564 43.939 49.83 23.66 3.026 45.453-10.915 53.355-33.574 1.727-4.956 1.716-4.96 6.918-4.638 15.594.963 29.39-11.664 29.773-27.266.05-2.073.007-4.15.007-5.717" fill="#e8e8e8" fill-rule="evenodd"/></g></g><g><g clip-path="url(#h)" opacity=".7" transform="matrix(1.2504 0 0 -1.2531 1709.7 1427.645)"><path d="M1286.107 572.927c5.295.251 10.141 1.152 14.801.568 11.758-1.473 20.127-12.25 19.322-24.009-.79-11.59-10.437-21.089-22.053-21.357-9.427-.217-18.865-.065-28.3-.065-23.692-.003-47.38-.05-71.073.02-13.779.038-24.746 8.84-27.96 22.196-4.296 17.856 10.85 35.7 29.181 34.382 4.47-.32 4.47-.32 5.752 4.114a41.52 41.52 0 0 0 36.898 29.897c16.287 1.185 32.551-8.48 39.637-23.7 2.693-5.783 3.672-11.989 3.791-18.336.027-1.347.004-2.694.004-3.71" fill="#e8e8e8" fill-rule="evenodd"/></g></g><path d="M3135.685 73.319v41.258h-2.44v114.25h-1.811V189.95h-4.847v44.736h-3V159.5h-4.846v75.186h-7.814v111.87h-19.57V509.96h-24.445v174.337h-.22v15.225h-5.406v-45.174h4.313v-9.117h-4.313v-16.258h-6.315v-10.15h-5.065v-6.047h-2.781v-8.145h-5.596V590.44h-2.001v-6.61h-6.72v-4.574h-4.034v-10.119h-4.314v10.119h-4.063v4.574h-6.721v6.61h-2.001v14.192h-5.564v8.144h-2.814v6.046h-5.063v10.15h-6.315v16.26h-4.314v9.116h4.314v45.174h-5.377v-15.225h-28.228v15.225h-5.658V918.75h-6.033V506.92h-18.193v-14.473h-27.666v14.473h-18.193v200.12h-10.816v-19.173h-19.132v-13.189h-4.188v-11.998h-4.784v-5.984h-11.972v-57.486h-4.783v57.486h-1.5v-7.769h-5.97v7.77h-9.254v5.983h-7.784v11.998h-16.162v13.189h-16.411v-74.246h-23.351v-8.99h-50.267v-39.473h-44.92v39.472h-50.299v8.991h-23.32v305.097h-6.907V589.594h-8.598v-36.685h-4.938v-13.72h-4.065v-8.553h3.001v-4.73h-3.001v-31.297h-8.846l-22.163-29.51-22.164 29.51h-8.847v31.296h-3v4.73h3v8.553h-4.063v13.721h-4.94v36.685h-8.596v329.125h-10.066V212.631l-5.596-.72v-57.016l-.156.03c-2.126-4.692-26.783-2.37-55.8 5.357-27.011 7.2-48.43 16.594-50.828 21.991l-.25.06v15.57l-9.066-1.19V225h-8.815v131.732h-13.848v4.73h-6.159v174.118h-44.108v117.29h-8.815v220.92h-12.942v-17.386h-.281l-28.728-29.98-1.001.97-27.758 29.01h-1.251v17.386h-8.284l-32.824-44.39c2.653 3.15 6.628 5.2 11.099 5.2 8 0 14.504-6.541 14.504-14.567v-15.1c0-.697-.06-1.413-.156-2.068a156.852 156.852 0 0 0 13.473-19.61 14.705 14.705 0 0 0 5.94 1.252c8.011 0 14.472-6.52 14.472-14.536v-15.1c0-4.06-1.655-7.732-4.313-10.369 1.567-5.835 2.838-11.82 3.72-17.888 7.776-.25 14.004-6.636 14.004-14.504v-15.1c0-7.768-6.092-14.115-13.723-14.505a161.406 161.406 0 0 0-3.908-19.705c2.61-2.652 4.22-6.27 4.22-10.275v-15.069c0-8.04-6.5-14.535-14.504-14.535-2.05 0-3.968.412-5.72 1.159a160.437 160.437 0 0 0-13.63-19.862c.06-.58.09-1.183.09-1.754v-15.1c0-8.025-6.474-14.536-14.473-14.536-4.741 0-8.907 2.266-11.567 5.764-8.016-6.284-16.625-11.821-25.758-16.446v-9.618c0-8.041-6.51-14.536-14.504-14.536-7.465 0-13.611 5.652-14.443 12.907a155.874 155.874 0 0 0-28.009-5.17v-8.238c0-8.049-6.51-14.505-14.504-14.505a14.48 14.48 0 0 0-14.506 14.505v8.239a157.153 157.153 0 0 0-28.072 5.169c-.814-7.255-6.914-12.907-14.38-12.907-8.01 0-14.504 6.495-14.504 14.536v9.618a157.528 157.528 0 0 0-28.978 19.015 14.417 14.417 0 0 0-13.098-8.333c-8.015 0-14.504 6.511-14.504 14.536v15.1c0 2.212.509 4.32 1.406 6.203a162.606 162.606 0 0 0-10.191 15.381 14.612 14.612 0 0 0-5.72-1.159c-8.004 0-14.505 6.509-14.505 14.567v15.069c0 3.995 1.616 7.631 4.251 10.275-1.705 6.418-3.057 12.983-3.938 19.705-7.664.39-13.755 6.706-13.755 14.474v15.13c0 7.861 6.232 14.248 14.036 14.505.881 6.068 2.159 12.061 3.72 17.888-2.683 2.645-4.314 6.3-4.314 10.37v15.1c0 8.015 6.501 14.535 14.505 14.535 2.1 0 4.103-.474 5.907-1.253a155.871 155.871 0 0 0 10.129 15.194 14.721 14.721 0 0 0-1.531 6.485v15.1c0 8.026 6.49 14.536 14.504 14.536 5.92 0 11-3.533 13.255-8.647a87.803 87.803 0 0 0 3.188 2.6l-12.817 17.356c-11.638-5.15-24.972-8.387-39.262-8.835-46.474-1.443-87.148 31.585-88.123 62.624-.244 8.181 1.614 14.552 5.501 19.047h-42.295c.46-5.373.824-10.718.906-16.071.1-5.083-.779-10.2-.688-15.288a3.36 3.36 0 0 0 1.876.563c.26 0 .53-.05.781-.06.96.731 1.95 1.253 2.846 1.253.79 0 .34-.902-.344-1.848.685-.266 1.308-.671 1.875-1.128 1.142.547 2.37.908 3.594.908h1.064c.774 0 1.563-.469 1.563-1.316 0-.397-.135-.77-.312-1.159.822.257 1.66.376 2.5.376h2.126c1.828 0 5.432-.802 4.72-3.446-.165-.59-.545-1.136-1-1.566l.186-.09c.34-.259.654-.526 1.002-.783.52-.456.9-1.011 1.093-1.692V876.93c.616-.383 1.158-.945 1.22-1.723.05-.546-.187-1.043-.564-1.472-.02-.473-.12-.986-.25-1.472 2.491-2.238 3.242-6.041-.219-6.986.817-.29 1.313-1.112 1.313-1.974v-.407c1.397-1.318 1.75-2.507-.562-2.6 1-.695 1.842-1.565 2.25-2.726.117-.347.163-.697.188-1.002.389-.07.756-.171.844-.47.178-.595-1.054-1.246-1.375-1.41l-.06-.03a3.848 3.848 0 0 0-.563-.658l-.125-.25-.156-.189c2.386-1.542 1.619-5.609-1.314-6.579 1.34-.962 2.23-2.466 2.001-4.166-.05-.357-.226-.652-.437-.94-.194-.647-.846-1.17-1.47-1.41v-.187c0-.713-.655-1.417-1.093-1.88a9.618 9.618 0 0 0-1.376-1.096c.6-.05 1.215-.141 1.782-.282.178-.04 1.26-.273 1.219-.721-.06-.531-.504-.958-.875-1.316-.22-.24-.65-.34-1.063-.439l.375-.532c.34-.356-.143-1.153-.312-1.44-.507-.855-1.195-1.622-1.907-2.319-.292-.283-.6-.55-.906-.814.289-.185.485-.378.469-.627-.04-1.143-3.075-1.069-4.064-1.034l.03-.189V827.278c.814-1.21-.04-2.585-1.094-3.414.795.02 1.56-.08.625-.627-.828-.515-1.763-.88-2.72-1.16.535-1.136-1.24-1.848-2.282-1.848l-.563.03c.448-.332.733-.712.845-1.159.22-.06.453-.124.688-.156 1.791-.275-.33-3.203-.75-3.665-1.124-1.262-2.928-2.71-4.752-2.444l-.53.09c-.696-.797-2.72-2.164-3.69-2.443l-.03-.06c-.839-1.03-2.24-1.694-3.532-1.065l-.06.03c-.687-.382-1.345-.59-1.657-.282l-.22.282-.5-.125a4.8 4.8 0 0 0-.562-1.034c-.794-1.07-2.178-.975-3.22-.345-.338.18-.716.532-1.031.939l-.406-.22c-.636-.281-1.91-.53-1.595.564.07.284.174.54.28.815a4.662 4.662 0 0 0-1.406-.69c-.48-.122-1.009-.143-1.468 0l-.345.157a6.218 6.218 0 0 0-.937-.44c-.22-.107-.754-.311-.97-.03-.194.25.115.767.25.94.376.5.75.944 1.22 1.348-.799-.266-1.584-.501-1.907-.501-1.212 0-.544.492.531.939-.6.199-1.169.42-1.219.596-.29.02-.54.09-.814.187-.252.02-.352.114-.344.187-.487.339-.806.83-.78 1.535.03.43.116.84.25 1.222-.755.58-1.087 1.39-1.063 2.318-.285-.316-.567-.577-.906-.783-.307-.192-.205.327-.19.376.1.406.253.778.44 1.159-.89.02-1.771.377-2.189 1.19l-.156.407c-.526-.422-1.232-.873-1.187-.407.04.363.175.717.344 1.066a8.45 8.45 0 0 0 1 1.566c-.583.14-.75.723-.75 1.378a3.327 3.327 0 0 0-.781.06c-.687.116-1.304.484-1.814.94-.421.414-.761.96-.844 1.566-.249 0-.468.04-.594.188v.752c.115.356.215.732.344 1.096.08.282.215.52.375.752-.371.354-.585.826-.719 1.316v2.005c.01.03-.01.06 0 .09 0 0-1.426.473-1.251 1.597.175 1.125-.04 2.254 2.282 5.17 2.32 2.914-2.145 1.882-1.97 3.007.175 1.125.356 3.319 3.033 3.728 2.676.409 1.419 2.166.53 3.383-.885 1.217-2.74-.74-3.063 3.007-.322 3.747-.844 2.16-.187 3.76.658 1.6.734 2.55 1.626 3.728.892 1.178.338.52.156 2.287-.18 1.766-.938 1.7-1.626 3.383-.687 1.682.416 3.416 1.595 4.793 1.179 1.377 1.512 1.915 1.969 3.728.458 1.813.609 1.93.157 3.383-.453 1.454-.744 1.168 2.312 3.384 3.057 2.215-1.54 1.452-1.25 3.007.291 1.556 4.095 2.663 4.095 2.663.586 1.491 2.38 2.618 3.876 2.694.484.03.977.02 1.47.06a8.089 8.089 0 0 0 3-.815l.595-.345.25.125c.991.521 1.96.747 3.031.846.1 4.18.63 8.38.564 12.625-.104 5.67-.435 11.378-.908 17.074h-20.287v.783c-5.269-.123-72.202-1.633-71.899 1.535h-6.065v-16.667c0-.442-.37-.783-.812-.783h-.438v-3.821h1.22a.764.764 0 0 0 .781-.783v-2.507c0-.45-.334-.814-.782-.814h-1.219v-3.258a.815.815 0 0 0-.812-.815h-1.688l-5.095-4.636a3.01 3.01 0 0 0 .937-2.193 3.042 3.042 0 0 0-3.032-3.039c-1.684 0-3.064 1.358-3.064 3.039 0 .795.314 1.56.845 2.099l-5.002 4.73h-1.688c-.435 0-.544.427-.782.815v3.258h-1.218a.818.818 0 0 0-.812.814v2.507c0 .39.93.709.875.783h1.156v3.821h-.47c-.443 0-.728.344-.78.783v16.667h-12.567c.04-.01.07-.004.09-.03.145-.104.35-.27.563-.532.168-.08.456-.235.594-.658.11-.276.04-.57-.09-.846.33-.81.165-1.302-.125-1.786-.01-.06 0-.11 0-.22.01-.14 0-.252-.03-.564v-.125l.406-.44a.8.8 0 0 0 0-1.127l-.813-.752c-.32-.317-.82-.286-1.126.03l-10.973 11.654h-6.47l-1.907 2.036h-2.47l-5.438-5.138 3-3.226-2.781-2.632-3.002 3.227-6.752-6.36 3.032-3.226-2.782-2.632-3.032 3.227-6.784-6.36 3.033-3.226-2.752-2.632-3.032 3.227-6.752-6.36 3-3.226-2.782-2.632-3.03 3.227-6.722-6.39 3-3.196-2.781-2.632-3.033 3.196-6.752-6.36 3.033-3.226-2.783-2.6-3.001 3.195-6.783-6.36 3.032-3.226-6.846-6.454-1.781-1.66a.736.736 0 0 0-.532-.251c-.194-.03-.463.106-.625.25l-1.47 1.63c-.16.166-.263.38-.25.596l-4.406 4.699a.81.81 0 0 0-.564.25l-1.125 1.191a.781.781 0 0 0-.22.376.725.725 0 0 0-.312.188l-.594.627a.783.783 0 0 0-.22.563c.01.207.107.45.25.595l61.239 57.768h-5.439c-.457 0-.726.35-.814.783v9.962h-26.508v20.99H1452.76V934.65c0-.252-.1-.479-.28-.627l-1.908 1.817h-8.721l6.564-6.203 1.782 1.88 2.782-2.632-1.781-1.88 6.752-6.358 1.781 1.879 2.783-2.631-1.783-1.88 6.753-6.36 1.782 1.88 2.782-2.631-1.782-1.911 6.752-6.329 1.783 1.88 2.78-2.631-1.78-1.911 6.752-6.36 1.781 1.911 2.782-2.631-1.78-1.911 6.75-6.36 1.783 1.911 2.782-2.631-1.782-1.911 6.752-6.36 1.783 1.911 2.78-2.631-1.78-1.911 5.408-5.075-1.001-1.097a.858.858 0 0 0-.594-.25l-4.44-4.731a.818.818 0 0 0-.22-.563l-1.469-1.63a.847.847 0 0 0-1.156-.03l-9.722 9.18-14.036-14.943c-.143-.174-.47-.287-.594-.251a.838.838 0 0 0-.563.22l-.375.345-.125.125-.281.282c-.331.317-.366.81-.06 1.127l.437.438c-.01.08-.02.17-.03.282-.01.172 0 .313 0 .44.01.106.02.16-.03.312-.242.416-.431.89-.156 1.504 0 .07-.02.134-.03.187-.04.25-.08.55 0 .846.146.38.45.53.625.627.194.268.386.42.53.532.146.09.147.08.189.187.408.808 1.554.797 1.876-.03.1-.27.11-.558.125-.877.01-.17.1-.277.219-.47l10.316 10.965-7.503 7.08-14.067-14.943a.767.767 0 0 0-1.126-.03l-.812.752c-.304.305-.304.796 0 1.127l.406.44c0 .08.01.17 0 .281-.02.165-.01.301 0 .438 0 .12 0 .161-.06.313-.232.41-.434.854-.156 1.504 0 .06-.02.15-.03.22-.03.25-.07.544.03.815.122.409.401.56.594.658.195.255.417.412.562.5.13.106.118.122.188.22.352.714 1.363 1.127 1.845-.06.1-.235.135-.478.156-.845.01-.18.08-.292.22-.47l10.284 10.964-7.502 7.08-14.036-14.943c-.31-.332-.845-.35-1.158-.03l-.78.721a.883.883 0 0 0-.25.563c0 .208.06.431.187.595l.437.44c-.01.07-.03.145-.03.25-.03.186-.01.328 0 .47.01.104.02.142-.03.282-.235.4-.43.9-.156 1.535 0 .06-.02.12-.03.19-.05.263-.06.54.03.845.144.374.41.545.594.626.2.28.4.436.532.532.138.1.146.12.188.19.317.737 1.449 1.14 1.906-.06.08-.268.07-.535.09-.847.01-.172.09-.29.22-.47l10.313 10.965-7.534 7.08-14.036-14.943c-.316-.317-.794-.342-1.124-.03l-.781.72c-.165.145-.282.35-.282.564-.02.215.09.442.25.595l.407.439-.03.25c-.01.18 0 .356 0 .502 0 .118-.01.14-.06.25-.235.417-.41.892-.125 1.536 0 .05-.02.157-.03.219-.04.244-.07.527.03.815.122.388.39.537.563.627.206.279.419.437.563.532.13.105.165.129.219.219.332.742 1.457 1.05 1.843-.06.105-.28.121-.53.126-.877 0-.165.07-.285.22-.47l10.315 10.995-7.503 7.08-14.068-14.974c-.159-.16-.46-.283-.594-.251-.185 0-.374.09-.53.22l-.376.345c-.01.007-.144.156-.156.156l-.28.282a.791.791 0 0 0-.03 1.128l.437.439c0 .08-.02.147-.03.25-.01.173-.01.314 0 .44.01.129 0 .175-.06.313-.229.416-.393.884-.125 1.535 0 .06-.02.119-.03.188-.05.256-.07.535 0 .846.154.38.415.542.594.626.207.268.424.435.563.532.144.1.132.104.187.22.358.725 1.479.998 1.845-.03.125-.302.151-.586.156-.877.02-.186.08-.315.22-.501l10.315 10.964-7.533 7.08-14.036-14.943c-.304-.319-.807-.362-1.126-.03l-.813.752a.806.806 0 0 0-.03 1.128l.437.438c-.02.104-.01.199-.03.282-.01.172 0 .306 0 .439.01.118-.01.16-.06.313-.235.407-.401.868-.125 1.504 0 .06-.02.15-.03.22-.05.249-.104.524 0 .815.13.386.42.545.594.627.2.276.418.442.563.532.132.108.139.1.189.187.388.838 1.488.898 1.875-.06.1-.271.11-.505.125-.814.01-.186.09-.31.219-.501l10.316 10.964-5.19 4.887 5.69 6.078-7.565 7.08-5.659-6.015v-9.367a.772.772 0 0 0-.78-.783h-.439v-1.597l-7.658-8.146c-.22-.246-.544-.3-.875-.188a.68.68 0 0 0-.22-.03h-1.22v-3.258a.824.824 0 0 0-.811-.815h-1.688l-5.065-4.636c.577-.555.906-1.343.906-2.193a3.027 3.027 0 0 0-3.031-3.039 3.038 3.038 0 0 0-3.032 3.039c0 .788.302 1.568.844 2.13l-5.034 4.7h-1.687c-.44 0-.578.431-.813.814v3.258h-1.189a.811.811 0 0 0-.813.814v2.538c0 .394.965.709.906.783h1.095v3.822h-.437c-.449 0-.736.348-.782.783v18.953h-.469c-.45 0-.781.374-.781.815v2.506c0 .326.192.596.469.721h-.844c-.447 0-.781.36-.781.814v17.575h-1.282V654.42h-25.352v-4.292h-9.16v-5.294h-12.003v5.294h-21.163v4.292h-8.91V854.29l-26.04-12.25v-1.91h-1.53v-1.379h-1.596v-1.253h-1.937v1.253h-1.595v1.379h-1.531v1.91l-51.392 24.185v-.282h-1.25v-1.848h-.72v-1.535h-1.97v5.106h.595v9.367h-15.442V608.15h-10.942v-11.56h-32.417v11.56h-10.972v348.8h-8.752V636.97h-67.242v-13.658h-14.38v-18.014h-4.813v6.83h-8.722v-6.83h-1.75v-35.556h-2.22v35.557h-5.22v-46.74h-1.751v53.569h-11.785v-6.83h-4.813v18.014h-8.285v13.658H973.72v177.69h-7.065v-5.67h-7.596v-9.587h-13.254v-9.586H930.05v9.586h-13.223v9.586h-7.596v5.67h-33.26v5.076h-6.065v7.894h6.064v129.82h-8.44V776.316h-5.658v-33.709h-4.001V721.9l-24.792-14.88v-3.102h-2.5l-.032-.47-.656-.313.187-3.602.282-3.791h.469s.13-4.27-.25-4.449c-.383-.187-1.282-.376-1.282-.376v-.532l.063-.25c.176-.199.312-.542.312-.909 0-.64-.351-1.19-.781-1.19-.445 0-.813.55-.813 1.19 0 .367.134.711.313.908l.063.251v.532s-.893.181-1.282.376c-.373.18-.219 4.449-.219 4.449h.47l.25 3.79.218 3.603-.657.313-.062.47h-2.5v3.102l-24.79 14.88v20.707h-4v33.709h-5.659V957.45h-6.252V616.42h-20.382V480.114h-16.318V386.79h-13.88v-66.257h-3.532v61.339h-4.063v-4.7h-.157V255.686h-7.252v61.496h-2.532v59.992h-5.69v-90.6h-2.031v-34.428h-5.565v34.429h-2.032v95.298h-1.5v-32.424h-4.033v37.342h-2.532v-62.717h-4.032v62.717h-6.503v93.324H665.62V616.42h-20.413V761.84h-.188v12.72h-4.501v-37.687h3.595v-7.613h-3.595v-13.565h-5.283v-8.458h-4.22v-5.075H628.7v-6.767h-4.657v-11.842h-1.688v-5.513h-5.596v-3.79h-3.376v-8.49h-3.595v8.49h-3.376v3.79h-5.596v5.513h-1.688v11.842h-4.658v6.767h-2.313v5.075h-4.22v8.458h-5.283v13.565h-3.595v7.613h3.595v37.686h-4.501v-12.719h-23.54v12.72h-4.72V957.45h-5.032V613.882H529.7V601.79H506.6v12.092h-15.192v166.944h-9.003v-16.008H466.43v-10.996h-3.501v-9.994h-3.97v-5.012h-9.972v-47.962h-4.002v47.962h-1.25v-6.485h-4.97v6.485h-7.753v5.012h-6.471v9.994h-13.473v10.996h-13.723v-61.935H377.9v-7.487H335.95v-32.925h-37.481v32.925h-41.952v7.487h-19.443v254.535h-5.784V682.834h-7.19v-30.576h-4.094v-11.466h-3.377v-7.142h2.501v-3.947h-2.5v-26.096h-7.378l-18.506-24.623-18.506 24.623h-7.378v26.096h-2.5v3.947h2.5v7.142h-3.376v11.466h-4.126v30.576h-7.19v274.584h-8.378V368.37l-4.657-.595v-47.587l-.125.03c-1.775-3.914-22.373-1.934-46.578 4.511-22.536 6.003-40.388 13.816-42.389 18.327l-.188.03v13l-7.596-.97v23.59h-7.346V488.57H21.378v3.947H16.22v145.296H.871v476.521l3498.3 2.506v-582.25h-38.42v212.994h-8.503v-6.798h-9.127v-11.465h-15.85v-11.529h-18.88v11.529h-15.881v11.465h-9.096v6.798h-39.858v6.078h-7.283v9.492h7.283v155.603h-10.128v-217.13h-6.783v-40.412h-4.783v-24.812l-29.728-17.856v-3.697h-2.97l-.06-.563-.782-.376.22-4.323.313-4.542h.594s.176-5.11-.28-5.326c-.46-.223-1.564-.47-1.564-.47v-.595l.09-.345c.213-.241.344-.626.344-1.065 0-.771-.423-1.41-.937-1.41-.535 0-.938.64-.938 1.41 0 .44.129.824.344 1.065l.09.345v.595s-1.063.239-1.533.47c-.446.216-.28 5.326-.28 5.326h.563l.312 4.542.25 4.323-.813.376-.06.563h-2.968v3.697l-29.73 17.856v24.812h-4.782v40.412h-6.815v217.13h-7.47v-408.79h-24.415V346.562h-19.6v-111.87h-16.631V155.31h-4.22v73.525h-4.876v-5.67h-.156V77.555h-8.691v73.714h-3.032v71.896h-6.878v-108.58h-2.406V73.325zM1431.94 915.68l6.408 6.829 2.345-2.224-4.627-4.919c-.145.201-.22.313-.22.501-.02.306-.02.575-.124.846-.318.921-1.549.876-1.906.03-.04-.06-.06-.08-.187-.187a1.983 1.983 0 0 1-.532-.5c-.187-.08-.455-.267-.594-.69-.1-.247-.07-.519-.03-.783.01-.07.05-.163.06-.22-.16-.345-.21-.638-.156-.908h-.438zm81.87-47.712l.09.09a.826.826 0 0 1 .189.376c.137.04.277.07.375.188l.563.627a.806.806 0 0 1-.03 1.16l-4.815 4.542 2.345 2.474 6.752-6.39-4.126-4.355zm-6.408 9.618l-6.752 6.359 2.313 2.475 6.752-6.39zm-9.534 8.99l-6.753 6.36 2.314 2.475 6.752-6.36zm-9.535 8.992l-6.752 6.359 2.313 2.475 6.753-6.36zm-9.534 8.99l-6.752 6.36 2.312 2.475 6.753-6.36zm-9.534 8.991l-6.753 6.36 2.314 2.475 6.751-6.36zm-9.535 8.991l-6.752 6.36 2.313 2.475 6.753-6.36zm-9.535 8.991l-2.468 2.319h4.25c.193 0 .364.08.5.189l.03-.03zm103.972-66.163l1.094 1.034 1.095-1.16-1.095-1.033zm2.189-.125l1.937 1.817 9.222-9.774c.145.192.197.312.22.658 0 .172.02.427.124.69.406 1.12 1.538.773 1.876.03.04-.09.07-.09.189-.187.145-.1.355-.255.563-.532.157-.08.469-.244.594-.658.104-.278.05-.532 0-.783-.01-.08-.06-.17-.06-.09.29-.787.135-1.26-.156-1.723-.01-.07 0-.134 0-.251.01-.13.01-.245 0-.563-.01-.05-.03-.07-.03-.125l.437-.438a.902.902 0 0 0 .219-.596.853.853 0 0 0-.25-.563l-.812-.752c-.33-.302-.821-.257-1.127.06zm1.937 1.817l-1.093 1.19 3.72 3.509 1.093-1.19zm5.409 7.3l1.031.97 1.063-1.159-1-.939zm2.094-.188l1.97 1.88 9.253-9.837c.13.181.207.306.219.595 0 .186.02.453.125.752.317.807 1.433.871 1.875.06.03-.109.05-.154.188-.251.14-.103.325-.232.53-.501.18-.08.467-.232.627-.658.07-.277.01-.535-.03-.783 0-.06.01-.159-.06-.06.31-.788.159-1.277-.125-1.754-.01-.08-.03-.14-.03-.251.01-.125.01-.265 0-.44-.01-.09.01-.16 0-.25l.406-.44a.816.816 0 0 0-.03-1.158l-.782-.721a.83.83 0 0 0-.563-.22h-.03a.807.807 0 0 0-.563.252zm1.97 1.88l-1.063 1.128 3.751 3.57 1.094-1.158zm5.47 7.33l.97.908 1.093-1.159-.969-.908zm2.063-.25l1.97 1.848 9.22-9.837c.146.184.215.32.22.595.01.209.01.477.09.783.318.813 1.52.818 1.876.03.06-.111.08-.127.188-.22.16-.104.362-.256.562-.532a1.08 1.08 0 0 0 .594-.627c.1-.285.05-.59 0-.846-.01-.06 0-.125-.03-.06.281-.776.112-1.25-.156-1.723-.01-.06-.03-.08-.03-.188.01-.146.03-.293 0-.501 0-.08.01-.144 0-.22l.406-.47c.131-.152.25-.351.25-.563-.01-.207-.138-.418-.281-.563l-.781-.752c-.139-.144-.281-.15-.563-.22-.22 0-.416.1-.563.25zm1.97 1.848l-1.095 1.159 3.814 3.602 1.095-1.159zm5.5 7.393l.907.846 1.095-1.16-.906-.845zm2.002-.313l1.938 1.848 9.222-9.837c.15.186.21.326.219.501 0 .01.03.22.03.22.01.186.04.423.125.627.422 1.174 1.54.762 1.845.06.05-.1.09-.122.219-.22.138-.1.324-.237.53-.5.173-.08.48-.252.626-.659.08-.278.04-.557 0-.814-.02-.07-.07-.118-.09-.06.319-.775.165-1.274-.125-1.723-.01-.08 0-.13 0-.25 0-.13.01-.257 0-.533 0-.05-.03-.1-.03-.156l.406-.439c.317-.34.315-.846-.03-1.159l-.75-.72a.896.896 0 0 0-.594-.22.78.78 0 0 0-.564.25zm1.938 1.848l-1.063 1.128 3.908 3.697 1.062-1.128zm5.596 7.456l.844.783 1.094-1.159-.844-.783zm1.937-.376l1.97 1.848 9.222-9.805c.14.194.204.328.22.658.01.195.02.409.09.658.42 1.17 1.553.81 1.905.06.04-.09.03-.1.156-.187.145-.111.376-.277.564-.532a1.13 1.13 0 0 0 .625-.69c.07-.251.03-.511 0-.752-.01-.05-.05-.137-.06-.125.264-.767.12-1.227-.156-1.691a.67.67 0 0 1-.03-.22c.01-.145.04-.278 0-.596v-.125l.438-.44a.846.846 0 0 0-.06-1.158l-.78-.721c-.312-.317-.825-.275-1.127.03zm1.97 1.848l-1.094 1.16 3.97 3.728 1.063-1.16zm5.659 7.519l.78.721 1.063-1.128-.78-.72zm1.843-.407l1.939 1.848 9.252-9.836c.151.194.211.312.22.595.01.2.02.492.125.783.421 1.121 1.481.763 1.875 0 .05-.102.06-.1.188-.187.131-.111.331-.265.531-.532.165-.08.47-.256.594-.658.1-.276.06-.534 0-.783 0-.06.02-.14-.03-.06.32-.79.125-1.299-.156-1.755-.01-.06 0-.09 0-.22.01-.138.03-.276 0-.47-.01-.07-.03-.168-.03-.25l.406-.44a.81.81 0 0 0-.03-1.159l-.782-.72c-.33-.319-.853-.28-1.156.03zm1.939 1.848l-1.064 1.128 4.003 3.79 1.062-1.158zm5.72 7.55l.72.69 1.062-1.128-.719-.69zm1.782-.438l1.97 1.848 9.252-9.836c.132.185.201.302.22.595 0 .213.02.458.09.72.435 1.176 1.577.783 1.876.06.05-.104.07-.13.219-.218.145-.104.345-.232.53-.501.16-.08.456-.252.595-.658.09-.278.06-.558.03-.814-.02-.06-.01-.16-.06-.06.318-.802.12-1.268-.156-1.723v-.251c0-.137.01-.266 0-.44-.01-.09-.03-.184-.03-.281l.438-.44c.305-.318.285-.81-.03-1.127l-.812-.752c-.316-.291-.82-.258-1.125.06zm1.97 1.848l-1.063 1.128 4.032 3.79h.09l1.032-1.096zm419.636-369.82v1.661c0 6.922 4.826 12.733 11.317 14.191v8.27a127.16 127.16 0 0 0-42.952 8.553l-1.875-4.511c3.371-2.67 5.564-6.792 5.564-11.435v-11.403a152.194 152.194 0 0 1 27.946-5.325zm28.98 0c9.587.912 18.94 2.722 27.946 5.326v11.403c0 4.643 2.185 8.765 5.564 11.435l-1.875 4.511a127.28 127.28 0 0 0-42.953-8.552v-8.27c6.481-1.427 11.317-7.261 11.317-14.192zm-85.936 17.074c.177 7.876 6.618 14.191 14.505 14.191 1.117 0 2.177-.175 3.22-.407l1.751 4.23a128.275 128.275 0 0 0-36.419 24.404l-10.66-10.62v-12.437-.626c8.473-7.204 17.71-13.504 27.603-18.734zm142.891 0c8.292 4.393 16.097 9.532 23.414 15.32a14.442 14.442 0 0 0-.595 4.04v15.1c0 .662.06 1.335.156 1.974l-6.032 6.015c-10.58-10.09-22.864-18.386-36.419-24.404l1.751-4.261c1.043.232 2.134.407 3.251.407 7.888 0 14.295-6.316 14.474-14.191zm-74.618 11.278v55.669c-7.015.316-13.768 1.665-20.1 3.978l-21.257-52.692c12.883-4.958 26.784-6.607 41.357-6.955zm6.314 0h.03a123.241 123.241 0 0 1 41.357 8.176l-21.256 51.471c-6.32-2.304-13.092-3.663-20.132-3.978zm-53.517 10.62l21.257 51.47a68.803 68.803 0 0 0-17.037 11.404l-39.263-39.347c10.209-9.724 22.022-17.716 35.043-23.527zm100.752 0a124.364 124.364 0 0 1 35.042 23.527l-39.262 39.347a68.125 68.125 0 0 0-17.068-11.403zm-150.393 17.856l7.158 7.175c-10.08 10.612-18.375 22.916-24.383 36.496l-10.784-4.48v-9.492c0-4.122-1.72-7.843-4.47-10.463a147.091 147.091 0 0 1 9.033-13.941c2.594 2.453 6.079 3.978 9.941 3.978 6.159 0 11.395-3.844 13.505-9.273zm221.166 2.256c4.123 5.396 7.92 11.052 11.316 16.98a14.468 14.468 0 0 0-4.44 10.463v9.46l-10.815 4.48c-6.005-13.578-14.287-25.885-24.352-36.496l4.064-4.073c2.618 3.749 6.965 6.203 11.88 6.203 5.243 0 9.814-2.822 12.347-7.017zm-211.038 7.863l39.263 39.379c-4.62 5.072-8.43 10.804-11.379 17.073l-51.36-21.302a123.914 123.914 0 0 1 23.476-35.15zm179.777 0a124.247 124.247 0 0 1 23.477 35.15l-51.36 21.302c-2.933-6.27-6.79-12-11.38-17.073zm-93.06 19.298v50.406l-19.226-46.584c6.06-2.213 12.496-3.506 19.225-3.822zm6.344 0c6.729.316 13.179 1.609 19.226 3.822l-19.226 46.584zm-31.416 6.265l19.257 46.584-35.574-35.682a65.728 65.728 0 0 1 16.317-10.902zm56.488 0a66.556 66.556 0 0 1 16.317 10.902l-35.574 35.682zm-156.333 10.307l8.44 3.54c-5.17 13.396-8.122 27.882-8.502 43.044h-13.318v-3.32c0-6.492-4.227-11.982-10.097-13.847.77-5.878 1.885-11.615 3.283-17.262a14.745 14.745 0 0 0 5.752 1.19c7.599 0 13.83-5.869 14.442-13.345zm256.146 0c.613 7.461 6.859 13.346 14.474 13.346 2.034 0 3.967-.43 5.72-1.19a154.216 154.216 0 0 1 3.314 17.26c-5.852 1.866-10.128 7.356-10.128 13.847v3.32h-13.286c-.373-15.161-3.333-29.647-8.503-43.043zm-177.09 5.075l35.576 35.62-46.485-19.267a67.327 67.327 0 0 1 10.91-16.353zm98.065 0a66.295 66.295 0 0 1 10.91 16.353l-46.485 19.298zm-164.805.03l51.33 21.334c-2.288 6.318-3.639 13.09-3.97 20.144h-55.55c.362-14.581 3.219-28.552 8.19-41.478zm231.545 0c4.964 12.926 7.818 26.897 8.19 41.478h-55.55a67.73 67.73 0 0 0-3.97-20.144zm-178.152 22.18l46.484 19.298h-50.266a66.767 66.767 0 0 1 3.782-19.298zm124.728 0a65.378 65.378 0 0 1 3.814 19.298h-50.298zm-203.817 25.657h13.318c.373 15.137 3.336 29.627 8.502 43.075l-8.471 3.509a14.482 14.482 0 0 0-14.41-12.907c-1.995 0-3.898.366-5.628 1.096a153.427 153.427 0 0 1-3.126-15.57 14.518 14.518 0 0 0 9.815-13.752zm17.506 0h55.55c.33 7.046 1.682 13.788 3.97 20.112l-51.33 21.303c-4.964-12.908-7.818-26.833-8.19-41.415zm57.8 0h50.267l-46.484 19.267a67.111 67.111 0 0 1-3.782-19.267zm82.027 0h50.298a65.357 65.357 0 0 1-3.814 19.267zm52.549 0h55.55c-.365 14.582-3.228 28.507-8.19 41.415l-51.33-21.303a67.066 67.066 0 0 0 3.97-20.112zm59.738 0h13.286v5.451c0 6.385 4.11 11.82 9.847 13.753a148.475 148.475 0 0 1-3.126 15.57 14.717 14.717 0 0 0-5.627-1.128c-7.47 0-13.606 5.649-14.411 12.938l-8.472-3.54c5.178-13.422 8.13-27.907 8.503-43.044zm-144.828 7.143l-1.345 3.258-31.01 31.045a66.35 66.35 0 0 1-10.91-16.321zm33.354 0l43.265 17.982a66.025 66.025 0 0 1-10.91 16.321l-31.01-31.045zm-19.85 5.576v50.406c-6.738-.321-13.173-1.624-19.225-3.822zm6.345 0l19.226 46.584c-6.056 2.198-12.497 3.501-19.226 3.822zm-65.177 13.251c2.949 6.25 6.759 12.023 11.379 17.105l-39.263 39.347c-9.7-10.23-17.68-22.1-23.477-35.149zm77.463 0l5.22 9.054 8.847 21.177c-.435.2-.844.473-1.281.69zm-30.948.03l-12.754 30.89c-.43-.209-.86-.482-1.282-.69l8.847-21.177zm77.775.09l51.361 21.303c-6.08 12.924-14.067 24.794-23.758 35.024l-39.262-39.347c4.59-5.083 8.442-10.837 11.66-16.98zm-92.717 5.64l-11.91 16.102c-.73-.63-1.483-1.225-2.22-1.88zm60.832.03l14.16 14.19c-.72.657-1.475 1.251-2.25 1.88zm-76.556 15.757c.804.73 1.67 1.421 2.5 2.099l-33.103 44.767c-3-2.355-5.889-4.873-8.66-7.519zm92.312 0l39.262 39.379a126.757 126.757 0 0 1-8.66 7.487l-33.103-44.767c.84-.678 1.686-1.37 2.5-2.099zm-163.398 1.379c6.008 13.562 14.304 25.869 24.383 36.465l-7.252 7.299c-2.185-5.223-7.37-8.96-13.41-8.96a14.39 14.39 0 0 0-9.754 3.791c-3.296-4.445-6.25-9.077-9.034-13.878a14.518 14.518 0 0 0 4.283-10.338v-9.93zm234.452 0l10.816 4.448v9.93a14.47 14.47 0 0 0 4.282 10.308 152.663 152.663 0 0 1-11.284 16.885c-2.582-4.037-7.082-6.767-12.223-6.767-4.802 0-9.057 2.34-11.692 5.921l-4.25-4.26a128.366 128.366 0 0 0 24.351-36.465zm-147.642 9.335c.45.24.875.505 1.313.721l-21.257 51.408a131.72 131.72 0 0 1-1.563-.69zm60.832 0l21.507 51.44c-.517.235-1.006.466-1.531.69l-21.288-51.408c.46-.216.88-.481 1.312-.721zm-53.673 3.133a68.475 68.475 0 0 0 20.1 4.01v55.637c-14.564-.347-28.489-3.203-41.388-8.176zm46.546 0l21.288 51.44c-12.9 4.99-26.832 7.86-41.389 8.207V772.07a68.4 68.4 0 0 0 20.1-4.01zm-68.867 2.82l-21.413 37.185a199.83 199.83 0 0 1-4.064-2.757zm91.187 0l25.477 34.428a151.645 151.645 0 0 1-4.095 2.757zm-94.406 19.736l-9.44 22.587c-.908-.497-1.81-.998-2.69-1.504zm97.625 0l12.13 21.083c-.88.505-1.79 1.006-2.69 1.504zm-137.2 5.92c2.912 2.794 5.99 5.421 9.159 7.926l-14.723 19.925a153.762 153.762 0 0 1-5.065-4.167V807.19zm176.776 0l6.064 6.11a15.365 15.365 0 0 0-.156 2.286v15.132c0 1.253.168 2.487.47 3.665-.252.19-.532.45-.814.658l-14.723-19.924c3.167-2.505 6.24-5.127 9.16-7.926zm-161.96 12.156c1.469 1.027 2.96 2.03 4.471 3.007l-12.38 21.46a198.041 198.041 0 0 1-6.814-4.574zm147.143 0l14.724 19.924c-2.248 1.594-4.52 3.089-6.846 4.574l-12.38-21.491c1.527-.987 3.021-1.98 4.502-3.007zm-136.608 6.672c1.036.606 2.091 1.136 3.157 1.692l-4.907 11.623a14.421 14.421 0 0 0-6.534 10.369c-1.368-.756-2.74-1.452-4.063-2.224zm126.073 0l12.379 21.46c-1.356.772-2.751 1.468-4.095 2.224-.58-4.377-3.05-8.123-6.565-10.37l-4.845-11.622c1.042-.556 2.083-1.086 3.126-1.692zm-116.6 4.856c.515.226 1.035.52 1.594.752l-2.345 5.67a11.371 11.371 0 0 0-1.845-.22zm107.128 0l2.595 6.203c-.614.03-1.241.1-1.845.22l-2.345-5.67c.535-.222 1.062-.517 1.595-.752zm-99.72 3.164c13.384 5.158 27.861 8.147 42.983 8.521v5.295c-6.49 1.45-11.348 7.236-11.348 14.16v4.667a152.02 152.02 0 0 1-27.947-5.294v-9.805c.01-4.866-2.378-9.176-6.063-11.81zm92.28 0l2.376 5.733c-3.65 2.644-6.064 6.945-6.064 11.81v9.806a152.317 152.317 0 0 1-27.947 5.294v-4.667c0-6.924-4.836-12.71-11.317-14.16v-5.295c15.115-.375 29.576-3.363 42.953-8.52zm-137.514 9.43c2.388 1.7 4.84 3.32 7.346 4.887L1955.3 854.9c-2.974-2.073-6.119-4.045-9.473-5.827zm182.78 0l30.352 40.976h-16.912l-20.787-36.09c2.498-1.59 4.944-3.186 7.346-4.886zm-169.4 8.52a158.323 158.323 0 0 0 6.502 3.51l-9.129 21.803c-2.29-2.579-4.878-5.015-7.658-7.362zm155.989 0l18.693 32.456h-13.036l-12.128-28.946a200.08 200.08 0 0 0 6.47-3.51zm-120.447 14.756a153.849 153.849 0 0 0 27.947 5.138v5.231c0 8.026 6.486 14.536 14.505 14.536 8 0 14.505-6.51 14.505-14.536v-5.231a156.162 156.162 0 0 0 27.947-5.138c.05 8.007 6.549 14.473 14.536 14.473 6.278 0 11.627-4.038 13.63-9.649l5.375 12.876h-10.034v24.279h-132.95c-.222-8.637-3.289-17.172-8.658-25.03l5.063-12.125c2.003 5.61 7.349 9.65 13.661 9.65 7.98 0 14.423-6.467 14.473-14.474zm-106.909 50.28c10.8 5.223 20.44 9.325 29.009 12.375h-57.174c8.49-3.115 17.829-7.167 28.165-12.375zm-466.716 25l3.722 3.916-.595.563h-3.127z" fill="#f0b54d"/><path d="M3500 1095.155H0V1340h3500z" fill="#6d6e70"/></svg>