<?xml version="1.0" encoding="UTF-8" standalone="no"?>
<!-- Created with Inkscape (http://www.inkscape.org/) -->

<svg
   xmlns:dc="http://purl.org/dc/elements/1.1/"
   xmlns:cc="http://creativecommons.org/ns#"
   xmlns:rdf="http://www.w3.org/1999/02/22-rdf-syntax-ns#"
   xmlns:svg="http://www.w3.org/2000/svg"
   xmlns="http://www.w3.org/2000/svg"
   xmlns:sodipodi="http://sodipodi.sourceforge.net/DTD/sodipodi-0.dtd"
   xmlns:inkscape="http://www.inkscape.org/namespaces/inkscape"
   version="1.1"
   viewbox="0 0 350 134"
   preserveAspectRatio="xMinYMin slice"
   id="svg4291"
   inkscape:version="0.48.4 r9939"
   width="100%"
   height="100%"
   sodipodi:docname="city.svg">
  <sodipodi:namedview
     pagecolor="#ffffff"
     bordercolor="#666666"
     borderopacity="1"
     objecttolerance="10"
     gridtolerance="10"
     guidetolerance="10"
     inkscape:pageopacity="0"
     inkscape:pageshadow="2"
     inkscape:window-width="996"
     inkscape:window-height="464"
     id="namedview80"
     showgrid="false"
     showborder="false"
     inkscape:showpageshadow="false"
     inkscape:zoom="1.2685914"
     inkscape:cx="135.43987"
     inkscape:cy="985.64292"
     inkscape:window-x="96"
     inkscape:window-y="66"
     inkscape:window-maximized="0"
     inkscape:current-layer="layer1" />
  <defs
     id="defs4293">
    <clipPath
       id="clipPath18">
      <path
         d="M 0,980 1400,980 1400,0 0,0 0,980 z"
         id="path20" />
    </clipPath>
    <clipPath
       id="clipPath36">
      <path
         d="m 42.9357,700.188 187.2173,0 0,-109.635 -187.2173,0 0,109.635 z"
         id="path38" />
    </clipPath>
    <clipPath
       id="clipPath52">
      <path
         d="m 927.512,845.306 178.028,0 0,-112.11 -178.028,0 0,112.11 z"
         id="path54" />
    </clipPath>
    <clipPath
       id="clipPath68">
      <path
         d="m 467.984,930.662 178.104,0 0,-108.805 -178.104,0 0,108.805 z"
         id="path70" />
    </clipPath>
    <clipPath
       id="clipPath84">
      <path
         d="m 1170.11,618.771 150.17,0 0,-90.758 -150.17,0 0,90.758 z"
         id="path86" />
    </clipPath>
    <clipPath
       id="clipPath3651">
      <path
         d="M 0,980 1400,980 1400,0 0,0 0,980 z"
         id="path3653" />
    </clipPath>
    <clipPath
       id="clipPath3669">
      <path
         d="m 66.9357,713.518 187.2173,0 0,-109.634 -187.2173,0 0,109.634 z"
         id="path3671" />
    </clipPath>
    <clipPath
       id="clipPath3685">
      <path
         d="m 927.512,845.306 178.028,0 0,-112.11 -178.028,0 0,112.11 z"
         id="path3687" />
    </clipPath>
    <clipPath
       id="clipPath3701">
      <path
         d="m 467.984,930.662 178.104,0 0,-108.805 -178.104,0 0,108.805 z"
         id="path3703" />
    </clipPath>
    <clipPath
       id="clipPath3717">
      <path
         d="m 1170.11,618.771 150.17,0 0,-90.758 -150.17,0 0,90.758 z"
         id="path3719" />
    </clipPath>
  </defs>
  <metadata
     id="metadata4296">
    <rdf:RDF>
      <cc:Work
         rdf:about="">
        <dc:format>image/svg+xml</dc:format>
        <dc:type
           rdf:resource="http://purl.org/dc/dcmitype/StillImage" />
        <dc:title />
      </cc:Work>
    </rdf:RDF>
  </metadata>
  <g
     transform="translate(0,-634.03454)"
     id="layer1">
    <path
       d="m 0.085738,742.7942 349.685572,0 0,-108.75966 -349.685572,0 z"
       id="path12"
       style="fill:#f8daa6;fill-opacity:1;fill-rule:nonzero;stroke:none" />
    <g
       transform="matrix(0.10003268,0,0,0.10024764,141.77484,639.74363)"
       id="g5644">
      <g
         transform="matrix(1.25,0,0,-1.25,-1008.1429,1164.3114)"
         id="g32">
        <g
           id="g34" />
        <g
           id="g40">
          <g
             clip-path="url(#clipPath36)"
             id="g42"
             style="opacity:0.69999701">
            <g
               transform="translate(79.6821,666.317)"
               id="g44">
              <path
                 d="m 0,0 c 0.008,4.06 0.712,7.848 2.739,11.054 3.137,4.96 10.152,7.125 15.66,5.1 2.872,-1.055 4.554,-0.676 6.692,1.588 13.194,13.975 29.535,19.014 48.051,14.547 19.323,-4.663 31.601,-17.407 36.783,-36.581 1.347,-4.988 1.399,-10.327 2.085,-15.821 2.227,0.283 4.572,0.568 6.916,0.884 14.38,1.928 28.421,-8.551 31.025,-22.837 1.574,-8.634 -0.459,-16.465 -5.696,-23.02 -5.683,-7.114 -13.548,-10.714 -22.938,-10.678 -29.139,0.113 -58.28,0.11 -87.42,0.152 -11.428,0.017 -22.857,-0.055 -34.284,0.07 -18.073,0.198 -34.296,15.128 -36.135,33.111 -2.2,21.501 11.97,39.109 33.702,41.902 C -1.584,-0.372 -0.367,-0.071 0,0"
                 id="path46"
                 style="fill:#e8e8e8;fill-opacity:1;fill-rule:evenodd;stroke:none" />
            </g>
          </g>
        </g>
      </g>
      <g
         transform="matrix(1.25,0,0,-1.25,-1008.1429,1164.3114)"
         id="g48">
        <g
           id="g50" />
        <g
           id="g56">
          <g
             clip-path="url(#clipPath52)"
             id="g58"
             style="opacity:0.69999701">
            <g
               transform="translate(1038.9971,809.5669)"
               id="g60">
              <path
                 d="m 0,0 c 12.967,6.146 25.197,6.092 35.637,-4.201 10.509,-10.362 10.019,-22.762 4.629,-36.008 3.105,0 5.605,0.088 8.097,-0.016 9.158,-0.373 16.086,-6.16 17.85,-14.828 1.592,-7.826 -2.713,-16.242 -10.627,-19.762 -2.576,-1.144 -5.691,-1.472 -8.565,-1.484 -24.959,-0.109 -49.917,-0.062 -74.876,-0.062 -18.331,0.004 -36.659,-0.016 -54.989,0.013 -15.771,0.026 -28.576,12.678 -28.64,28.229 -0.063,15.459 12.814,28.291 28.511,28.404 2.067,0.016 4.135,0.002 6.869,0.002 -4.664,14.619 -3.875,28.065 5.459,40.137 5.938,7.683 13.758,12.531 23.245,14.472 11.41,2.34 21.894,-0.265 31.281,-6.939 C -6.713,21.27 -2.42,11.365 0,0"
                 id="path62"
                 style="fill:#e8e8e8;fill-opacity:1;fill-rule:evenodd;stroke:none" />
            </g>
          </g>
        </g>
      </g>
      <g
         transform="matrix(1.25,0,0,-1.25,-1008.1429,1164.3114)"
         id="g64">
        <g
           id="g66" />
        <g
           id="g72">
          <g
             clip-path="url(#clipPath68)"
             id="g74"
             style="opacity:0.69999701">
            <g
               transform="translate(623.6157,859.0557)"
               id="g76">
              <path
                 d="m 0,0 c 4.62,-1.146 8.827,-1.509 12.396,-3.212 8.034,-3.836 11.568,-12.102 9.493,-20.466 -1.938,-7.808 -9.054,-13.276 -17.585,-13.498 -1.258,-0.032 -2.518,-0.006 -3.776,-0.006 -42.478,0 -84.957,-0.053 -127.435,0.034 -11.934,0.024 -20.745,5.716 -25.827,16.389 -5.074,10.656 -3.316,20.841 3.96,30.015 3.19,4.021 7.358,6.863 12.255,8.459 1.928,0.628 2.477,1.685 2.527,3.651 0.661,26.014 18.412,46.563 43.939,49.829 23.66,3.026 45.453,-10.915 53.355,-33.574 1.727,-4.956 1.716,-4.959 6.918,-4.638 C -14.186,33.946 -0.39,21.319 -0.007,5.717 0.043,3.644 0,1.568 0,0"
                 id="path78"
                 style="fill:#e8e8e8;fill-opacity:1;fill-rule:evenodd;stroke:none" />
            </g>
          </g>
        </g>
      </g>
      <g
         transform="matrix(1.25,0,0,-1.25,-1008.1429,1164.3114)"
         id="g80">
        <g
           id="g82" />
        <g
           id="g88">
          <g
             clip-path="url(#clipPath84)"
             id="g90"
             style="opacity:0.69999701">
            <g
               transform="translate(1286.1074,572.9272)"
               id="g92">
              <path
                 d="M 0,0 C 5.295,0.251 10.141,1.152 14.801,0.568 26.559,-0.905 34.928,-11.683 34.123,-23.441 33.332,-35.032 23.686,-44.53 12.07,-44.798 c -9.427,-0.217 -18.865,-0.065 -28.3,-0.065 -23.692,-0.003 -47.381,-0.051 -71.073,0.019 -13.779,0.039 -24.746,8.841 -27.961,22.197 -4.295,17.856 10.85,35.7 29.182,34.382 4.469,-0.32 4.469,-0.32 5.752,4.114 4.846,16.727 19.539,28.635 36.898,29.897 16.287,1.185 32.551,-8.481 39.637,-23.7 C -1.102,16.263 -0.123,10.057 -0.004,3.71 0.023,2.363 0,1.016 0,0"
                 id="path94"
                 style="fill:#e8e8e8;fill-opacity:1;fill-rule:evenodd;stroke:none" />
            </g>
          </g>
        </g>
      </g>
      <g
         transform="matrix(1.25,0,0,-1.25,-382.42861,1447.1685)"
         id="g3665">
        <g
           id="g3667" />
        <g
           id="g3673">
          <g
             clip-path="url(#clipPath3669)"
             id="g3675"
             style="opacity:0.69999701">
            <g
               transform="translate(103.6821,679.6475)"
               id="g3677">
              <path
                 d="m 0,0 c 0.008,4.06 0.712,7.848 2.739,11.054 3.137,4.96 10.152,7.125 15.66,5.1 2.872,-1.055 4.554,-0.676 6.692,1.588 13.194,13.975 29.535,19.014 48.051,14.547 19.323,-4.663 31.601,-17.407 36.783,-36.581 1.347,-4.988 1.399,-10.327 2.085,-15.821 2.227,0.283 4.572,0.568 6.916,0.884 14.38,1.928 28.421,-8.551 31.025,-22.837 1.574,-8.634 -0.459,-16.465 -5.696,-23.02 -5.683,-7.114 -13.548,-10.714 -22.938,-10.678 -29.139,0.113 -58.28,0.11 -87.42,0.152 -11.428,0.017 -22.857,-0.055 -34.284,0.07 -18.073,0.198 -34.296,15.128 -36.135,33.111 -2.2,21.501 11.97,39.109 33.702,41.902 C -1.584,-0.372 -0.367,-0.071 0,0"
                 id="path3679"
                 style="fill:#e8e8e8;fill-opacity:1;fill-rule:evenodd;stroke:none" />
            </g>
          </g>
        </g>
      </g>
      <g
         transform="matrix(1.25,0,0,-1.25,291.85715,1367.1685)"
         id="g3681">
        <g
           id="g3683" />
        <g
           id="g3689">
          <g
             clip-path="url(#clipPath3685)"
             id="g3691"
             style="opacity:0.69999701">
            <g
               transform="translate(1038.9971,809.5669)"
               id="g3693">
              <path
                 d="m 0,0 c 12.967,6.146 25.197,6.092 35.637,-4.201 10.509,-10.362 10.019,-22.762 4.629,-36.008 3.105,0 5.605,0.088 8.097,-0.016 9.158,-0.373 16.086,-6.16 17.85,-14.828 1.592,-7.826 -2.713,-16.242 -10.627,-19.762 -2.576,-1.144 -5.691,-1.472 -8.565,-1.484 -24.959,-0.109 -49.917,-0.062 -74.876,-0.062 -18.331,0.004 -36.659,-0.016 -54.989,0.013 -15.771,0.026 -28.576,12.678 -28.64,28.229 -0.063,15.459 12.814,28.291 28.511,28.404 2.067,0.016 4.135,0.002 6.869,0.002 -4.664,14.619 -3.875,28.065 5.459,40.137 5.938,7.683 13.758,12.531 23.245,14.472 11.41,2.34 21.894,-0.265 31.281,-6.939 C -6.713,21.27 -2.42,11.365 0,0"
                 id="path3695"
                 style="fill:#e8e8e8;fill-opacity:1;fill-rule:evenodd;stroke:none" />
            </g>
          </g>
        </g>
      </g>
      <g
         transform="matrix(1.25,0,0,-1.25,291.85715,1367.1685)"
         id="g3697">
        <g
           id="g3699" />
        <g
           id="g3705">
          <g
             clip-path="url(#clipPath3701)"
             id="g3707"
             style="opacity:0.69999701">
            <g
               transform="translate(623.6157,859.0557)"
               id="g3709">
              <path
                 d="m 0,0 c 4.62,-1.146 8.827,-1.509 12.396,-3.212 8.034,-3.836 11.568,-12.102 9.493,-20.466 -1.938,-7.808 -9.054,-13.276 -17.585,-13.498 -1.258,-0.032 -2.518,-0.006 -3.776,-0.006 -42.478,0 -84.957,-0.053 -127.435,0.034 -11.934,0.024 -20.745,5.716 -25.827,16.389 -5.074,10.656 -3.316,20.841 3.96,30.015 3.19,4.021 7.358,6.863 12.255,8.459 1.928,0.628 2.477,1.685 2.527,3.651 0.661,26.014 18.412,46.563 43.939,49.829 23.66,3.026 45.453,-10.915 53.355,-33.574 1.727,-4.956 1.716,-4.959 6.918,-4.638 C -14.186,33.946 -0.39,21.319 -0.007,5.717 0.043,3.644 0,1.568 0,0"
                 id="path3711"
                 style="fill:#e8e8e8;fill-opacity:1;fill-rule:evenodd;stroke:none" />
            </g>
          </g>
        </g>
      </g>
      <g
         transform="matrix(1.25,0,0,-1.25,291.85715,1367.1685)"
         id="g3713">
        <g
           id="g3715" />
        <g
           id="g3721">
          <g
             clip-path="url(#clipPath3717)"
             id="g3723"
             style="opacity:0.69999701">
            <g
               transform="translate(1286.1074,572.9272)"
               id="g3725">
              <path
                 d="M 0,0 C 5.295,0.251 10.141,1.152 14.801,0.568 26.559,-0.905 34.928,-11.683 34.123,-23.441 33.332,-35.032 23.686,-44.53 12.07,-44.798 c -9.427,-0.217 -18.865,-0.065 -28.3,-0.065 -23.692,-0.003 -47.381,-0.051 -71.073,0.019 -13.779,0.039 -24.746,8.841 -27.961,22.197 -4.295,17.856 10.85,35.7 29.182,34.382 4.469,-0.32 4.469,-0.32 5.752,4.114 4.846,16.727 19.539,28.635 36.898,29.897 16.287,1.185 32.551,-8.481 39.637,-23.7 C -1.102,16.263 -0.123,10.057 -0.004,3.71 0.023,2.363 0,1.016 0,0"
                 id="path3727"
                 style="fill:#e8e8e8;fill-opacity:1;fill-rule:evenodd;stroke:none" />
            </g>
          </g>
        </g>
      </g>
    </g>
    <path
       d="m 313.56846,641.3664 0,4.12581 -0.24387,0 0,11.4251 -0.18123,0 0,-3.88773 -0.48461,0 0,4.47356 -0.30012,0 0,-7.51858 -0.4845,0 0,7.51858 -0.78146,0 0,11.18701 -1.95695,0 0,16.34036 -2.44453,0 0,17.43369 -0.0219,0 0,1.52251 -0.54073,0 0,-4.51741 0.43136,0 0,-0.91162 -0.43136,0 0,-1.62589 -0.63148,0 0,-1.01501 -0.50648,0 0,-0.60463 -0.27812,0 0,-0.8145 -0.55962,0 0,-0.65788 0,-0.76125 -0.2001,0 0,-0.66101 -0.672,0 0,-0.45738 -0.40335,0 0,-1.01188 -0.43137,0 0,1.01188 -0.40635,0 0,0.45738 -0.67213,0 0,0.66101 -0.20009,0 0,0.76125 0,0.65788 -0.55636,0 0,0.8145 -0.28138,0 0,0.60463 -0.50635,0 0,1.01501 -0.63148,0 0,1.62589 -0.43137,0 0,0.91162 0.43137,0 0,4.51741 -0.53773,0 0,-1.52251 -2.8228,0 0,1.52251 -0.56575,0 0,21.92291 -0.60334,0 0,-41.18299 -1.81932,0 0,-1.44733 -2.76654,0 0,1.44733 -1.81932,0 0,20.01194 -1.08159,0 0,-1.91724 -1.91321,0 0,-1.31888 -0.41884,0 0,-1.19984 -0.47835,0 0,-0.59836 -1.19722,0 0,-5.74857 -0.47824,0 0,5.74857 -0.15011,0 0,-0.77691 -0.597,0 0,0.77691 -0.92533,0 0,0.59836 -0.77836,0 0,1.19984 -1.6162,0 0,1.31888 -1.64119,0 0,-7.42459 -2.33507,0 0,-0.89909 -5.02671,0 0,-3.94725 -4.492,0 0,3.94725 -5.02983,0 0,0.89909 -2.33206,0 0,30.50974 -0.69073,0 0,-32.91255 -0.85972,0 0,-3.66844 -0.49386,0 0,-1.37213 -0.40649,0 0,-0.85524 0.30012,0 0,-0.47305 -0.30012,0 0,-3.1296 -0.8846,0 -2.21631,-2.95104 -2.21642,2.95104 -0.88462,0 0,3.1296 -0.30011,0 0,0.47305 0.30011,0 0,0.85524 -0.40634,0 0,1.37213 -0.49399,0 0,3.66844 -0.85961,0 0,32.91255 -1.0066,0 0,-68.19032 0,-1.18104 0,-1.23743 -0.5596,-0.0721 0,-5.70159 -0.0156,0.003 c -0.21262,-0.46916 -2.67829,-0.23695 -5.57994,0.5357 -2.70119,0.72004 -4.8431,1.65948 -5.08286,2.19918 l -0.025,0.006 0,1.55698 -0.90658,-0.11905 0,2.82886 -0.88149,0 0,13.17316 -1.38484,0 0,0.47305 -0.61584,0 0,17.41176 -4.41087,0 0,11.72898 -0.88148,0 0,22.09207 -1.2942,0 0,-1.73868 -0.0281,0 -2.87281,-2.99803 -0.1001,0.0971 -2.77581,2.90091 -0.12511,0 0,1.73868 -0.82834,0 -3.2824,-4.43909 c 0.26524,0.31515 0.66273,0.52003 1.10982,0.52003 0.8,0 1.45046,-0.65411 1.45046,-1.45672 l 0,-1.50998 c 0,-0.0697 -0.006,-0.14123 -0.0156,-0.20676 0.49787,-0.61766 0.94673,-1.27227 1.34732,-1.9611 0.18025,0.0796 0.38211,0.12532 0.59388,0.12532 0.80121,0 1.44733,-0.65199 1.44733,-1.45359 l 0,-1.50999 c 0,-0.40612 -0.1655,-0.77329 -0.43137,-1.03693 0.15673,-0.58357 0.28387,-1.18205 0.37199,-1.7888 0.77759,-0.025 1.40046,-0.66363 1.40046,-1.45046 l 0,-1.50998 c 0,-0.77679 -0.60924,-1.41148 -1.37233,-1.45046 -0.0905,-0.6724 -0.22164,-1.33053 -0.39075,-1.97049 0.26099,-0.26528 0.422,-0.62705 0.422,-1.02754 l 0,-1.50685 c 0,-0.8041 -0.65,-1.45358 -1.45045,-1.45358 -0.20502,0 -0.39676,0.0412 -0.57201,0.11591 -0.40584,-0.69735 -0.86083,-1.36186 -1.36295,-1.98615 0.006,-0.058 0.009,-0.11829 0.009,-0.17545 l 0,-1.50997 c 0,-0.80248 -0.64746,-1.45359 -1.44733,-1.45359 -0.4741,0 -0.89071,0.22656 -1.1567,0.57642 -0.8016,-0.62843 -1.66246,-1.18217 -2.57579,-1.64468 l 0,-0.96176 c 0,-0.80411 -0.65098,-1.45359 -1.45046,-1.45359 -0.74649,0 -1.36109,0.56515 -1.44421,1.29069 -0.9021,-0.25362 -1.83857,-0.42893 -2.80093,-0.5169 l 0,-0.82391 c 0,-0.80486 -0.65096,-1.45045 -1.45045,-1.45045 -0.80209,0 -1.45057,0.64634 -1.45057,1.45045 l 0,0.82391 c -0.9631,0.088 -1.90082,0.26328 -2.80716,0.5169 -0.0814,-0.72554 -0.69148,-1.29069 -1.43795,-1.29069 -0.80111,0 -1.45047,0.64948 -1.45047,1.45359 l 0,0.96176 c -1.03783,0.5273 -2.00769,1.16625 -2.89778,1.90157 -0.22949,-0.49335 -0.72935,-0.83331 -1.30984,-0.83331 -0.80147,0 -1.45044,0.65111 -1.45044,1.45359 l 0,1.50997 c 0,0.22118 0.0509,0.43207 0.1406,0.6203 -0.36723,0.49233 -0.70922,1.00597 -1.01908,1.53817 -0.17613,-0.0747 -0.36937,-0.11592 -0.57199,-0.11592 -0.80035,0 -1.45045,0.65086 -1.45045,1.45672 l 0,1.50685 c 0,0.39949 0.16161,0.76315 0.4251,1.02754 -0.17049,0.64172 -0.30573,1.29822 -0.39386,1.97049 -0.76636,0.039 -1.37546,0.67054 -1.37546,1.44733 l 0,1.51311 c 0,0.78607 0.62322,1.42477 1.40359,1.45046 0.0881,0.60675 0.21586,1.20611 0.37198,1.7888 -0.26824,0.26452 -0.43135,0.62994 -0.43135,1.03693 l 0,1.50999 c 0,0.8016 0.6501,1.45359 1.45045,1.45359 0.20999,0 0.41036,-0.0474 0.59073,-0.12532 0.30812,0.52718 0.6476,1.03519 1.01284,1.51939 -0.0964,0.19548 -0.1531,0.41815 -0.1531,0.64847 l 0,1.50998 c 0,0.80261 0.64897,1.4536 1.45044,1.4536 0.59199,0 1.09997,-0.35326 1.32547,-0.86464 0.10499,0.0887 0.20874,0.17542 0.31886,0.26001 l -1.28171,1.73554 c -1.16384,-0.51502 -2.49717,-0.8387 -3.92626,-0.88344 -4.64736,-0.14435 -8.71474,3.15844 -8.81223,6.26235 -0.0244,0.81814 0.16136,1.45522 0.55011,1.90471 l -4.2295,0 c 0.0459,-0.53733 0.0824,-1.07178 0.0906,-1.6071 0.01,-0.50826 -0.0779,-1.0199 -0.0688,-1.52877 0.0509,0.034 0.11487,0.0563 0.18762,0.0563 0.026,0 0.0529,-0.005 0.0781,-0.006 0.0959,0.0731 0.19487,0.12531 0.28451,0.12531 0.079,0 0.0341,-0.0902 -0.0344,-0.18484 0.0685,-0.0266 0.13088,-0.0671 0.1875,-0.11277 0.11424,0.0547 0.23711,0.0908 0.35949,0.0908 l 0.10638,0 c 0.0774,0 0.15623,-0.0469 0.15623,-0.13157 0,-0.0397 -0.0135,-0.077 -0.0312,-0.1159 0.0822,0.0257 0.16599,0.0376 0.25011,0.0376 l 0.2125,0 c 0.18287,0 0.54323,-0.0802 0.4721,-0.34461 -0.0166,-0.0591 -0.0546,-0.11365 -0.10012,-0.15663 l 0.0187,-0.009 c 0.034,-0.0259 0.0654,-0.0526 0.10012,-0.0783 0.0521,-0.0456 0.09,-0.10113 0.10937,-0.16916 l 0,-0.0282 0,-0.0156 c 0.0616,-0.0383 0.11575,-0.0945 0.12188,-0.1723 0.005,-0.0546 -0.0186,-0.10439 -0.0563,-0.14724 -0.002,-0.0473 -0.0121,-0.0986 -0.025,-0.14725 0.24912,-0.22379 0.32422,-0.6041 -0.0219,-0.69858 0.0817,-0.029 0.13125,-0.11116 0.13125,-0.19737 l 0,-0.0407 c 0.13975,-0.13183 0.175,-0.25074 -0.0562,-0.26001 0.10012,-0.0695 0.18425,-0.15652 0.22512,-0.27256 0.0116,-0.0347 0.0162,-0.0697 0.0187,-0.10025 0.0389,-0.007 0.0756,-0.0171 0.0844,-0.047 0.0178,-0.0595 -0.10537,-0.12456 -0.13749,-0.14097 l -0.006,-0.003 c -0.016,-0.0223 -0.0331,-0.0451 -0.0563,-0.0658 l -0.0125,-0.0251 -0.0156,-0.0188 c 0.23862,-0.15426 0.16186,-0.56089 -0.13137,-0.65788 0.134,-0.0962 0.223,-0.2466 0.20012,-0.41665 -0.005,-0.0357 -0.0226,-0.0652 -0.0437,-0.094 -0.0194,-0.0647 -0.0846,-0.1169 -0.14699,-0.14096 l 0,-0.0187 c 0,-0.0713 -0.0656,-0.14173 -0.10938,-0.18798 -0.0403,-0.0399 -0.0883,-0.0763 -0.13762,-0.10964 0.06,-0.005 0.1215,-0.0141 0.17825,-0.0282 0.0178,-0.004 0.126,-0.0273 0.12187,-0.0721 -0.006,-0.0531 -0.0504,-0.0958 -0.0875,-0.13156 -0.022,-0.024 -0.0649,-0.034 -0.10625,-0.0439 l 0.0375,-0.0532 c 0.0339,-0.0356 -0.0143,-0.11529 -0.0312,-0.14411 -0.0507,-0.0854 -0.11949,-0.16215 -0.19074,-0.23182 -0.0292,-0.0283 -0.06,-0.0551 -0.0906,-0.0814 0.0289,-0.0185 0.0485,-0.0378 0.0469,-0.0627 -0.004,-0.11428 -0.30749,-0.10689 -0.40635,-0.10338 l 0.003,-0.0189 0,-0.0282 0,-0.003 c 0.0814,-0.12104 -0.004,-0.25851 -0.10939,-0.34146 0.0795,0.002 0.15601,-0.008 0.0625,-0.0627 -0.0828,-0.0515 -0.17637,-0.088 -0.27199,-0.11591 0.0534,-0.11365 -0.12399,-0.18484 -0.22822,-0.18484 l -0.0563,0.003 c 0.0448,-0.0332 0.0733,-0.0712 0.0845,-0.11591 0.022,-0.006 0.0453,-0.0124 0.0688,-0.0156 0.17911,-0.0275 -0.0331,-0.32028 -0.0751,-0.36652 -0.11238,-0.12619 -0.29276,-0.27092 -0.47512,-0.24436 l -0.0531,0.009 c -0.0695,-0.0797 -0.27201,-0.21641 -0.36888,-0.24436 l -0.003,-0.006 c -0.0839,-0.10288 -0.22411,-0.16942 -0.35324,-0.10652 l -0.006,0.003 c -0.0687,-0.0382 -0.13451,-0.0589 -0.16573,-0.0282 l -0.0219,0.0282 -0.05,-0.0125 c -0.0154,-0.0366 -0.0323,-0.0712 -0.0563,-0.10339 -0.0794,-0.10688 -0.21775,-0.0975 -0.322,-0.0345 -0.0338,0.0181 -0.0716,0.0532 -0.10311,0.0939 l -0.0406,-0.0219 c -0.0636,-0.0282 -0.19087,-0.053 -0.1595,0.0563 0.007,0.0284 0.0174,0.0541 0.0281,0.0815 -0.0405,-0.0288 -0.0898,-0.0547 -0.14064,-0.0689 -0.048,-0.0123 -0.10087,-0.0144 -0.14686,0 l -0.0345,0.0156 c -0.0306,-0.0181 -0.0615,-0.0314 -0.0937,-0.0439 -0.0219,-0.0108 -0.0754,-0.0312 -0.0969,-0.003 -0.0195,0.025 0.0114,0.0766 0.025,0.094 0.0375,0.05 0.075,0.0943 0.12187,0.1347 -0.0798,-0.0266 -0.15837,-0.0501 -0.19062,-0.0501 -0.12124,0 -0.0544,0.0492 0.0531,0.0939 -0.06,0.0199 -0.11688,0.042 -0.12188,0.0596 -0.0291,0.002 -0.0541,0.009 -0.0814,0.0187 -0.0252,0.002 -0.0352,0.0114 -0.0344,0.0187 -0.0487,0.0339 -0.0806,0.083 -0.0781,0.15351 0.003,0.043 0.0117,0.0841 0.025,0.12218 -0.0754,0.0581 -0.10862,0.13896 -0.10625,0.23182 -0.0285,-0.0316 -0.0567,-0.0577 -0.0906,-0.0783 -0.0307,-0.0192 -0.0205,0.0327 -0.0189,0.0376 0.01,0.0406 0.0252,0.0778 0.0439,0.11591 -0.089,0.002 -0.17712,0.0377 -0.21886,0.11905 l -0.0156,0.0407 c -0.0526,-0.0422 -0.12325,-0.0873 -0.11875,-0.0407 0.004,0.0363 0.0175,0.0717 0.0344,0.10652 0.027,0.0555 0.0611,0.10788 0.1,0.15663 -0.0583,0.014 -0.075,0.0723 -0.075,0.13784 -0.0269,-8e-4 -0.0561,10e-4 -0.0781,0.006 -0.0687,0.0116 -0.13037,0.0484 -0.18137,0.0939 -0.0421,0.0415 -0.0761,0.096 -0.0844,0.15663 -0.0249,0 -0.0468,0.004 -0.0594,0.0188 l 0,0.0752 c 0.0115,0.0356 0.0215,0.0732 0.0344,0.10964 0.008,0.0282 0.0215,0.052 0.0375,0.0752 -0.0371,0.0354 -0.0585,0.0826 -0.0719,0.13158 l 0,0.20048 c 0.001,0.003 -0.001,0.006 0,0.009 0,0 -0.14263,0.0473 -0.12511,0.15977 0.0175,0.1125 -0.004,0.22539 0.22824,0.5169 0.23192,0.2915 -0.2145,0.18825 -0.197,0.30074 0.0175,0.11249 0.0356,0.33192 0.30325,0.3728 0.26763,0.0409 0.14188,0.2166 0.0531,0.33834 -0.0886,0.12173 -0.27407,-0.074 -0.30637,0.30073 -0.0322,0.37471 -0.0844,0.21591 -0.0187,0.37594 0.0658,0.16003 0.0734,0.25498 0.16262,0.3728 0.0892,0.11781 0.0338,0.052 0.0156,0.22868 -0.0181,0.17664 -0.0938,0.17008 -0.16262,0.33835 -0.0687,0.16824 0.0416,0.34155 0.15949,0.4793 0.11789,0.13774 0.15117,0.19151 0.19688,0.37279 0.0458,0.18129 0.0609,0.19302 0.0157,0.33834 -0.0453,0.14533 -0.0744,0.11676 0.23124,0.33834 0.30565,0.22157 -0.1541,0.14518 -0.12499,0.30074 0.0291,0.15556 0.40949,0.26628 0.40949,0.26628 0.0586,0.14912 0.23799,0.26178 0.38761,0.26941 0.0484,0.003 0.0977,0.002 0.14699,0.006 0.10587,-0.008 0.20575,-0.035 0.3,-0.0815 l 0.0595,-0.0345 0.025,0.0125 c 0.0991,0.0521 0.19598,0.0747 0.3031,0.0846 0.01,0.41792 0.063,0.83807 0.0564,1.26249 -0.0104,0.56704 -0.0435,1.13782 -0.0908,1.70736 l -2.02869,0 0,0.0783 c -0.52688,-0.0123 -7.22023,-0.16329 -7.1899,0.15351 l -0.60648,0 0,-1.66662 c 0,-0.0442 -0.037,-0.0783 -0.0812,-0.0783 l -0.0438,0 0,-0.38218 0.12188,0 c 0.0449,0 0.0782,-0.0337 0.0782,-0.0783 l 0,-0.25062 c 0,-0.045 -0.0334,-0.0814 -0.0782,-0.0814 l -0.12188,0 0,-0.32582 c 0,-0.0455 -0.0371,-0.0815 -0.0812,-0.0815 l -0.16886,0 -0.50948,-0.46365 c 0.0593,-0.056 0.0937,-0.13495 0.0937,-0.21928 0,-0.16717 -0.13611,-0.30388 -0.30323,-0.30388 -0.16838,0 -0.30637,0.13583 -0.30637,0.30388 0,0.0795 0.0314,0.15601 0.0845,0.20988 l -0.50023,0.47305 -0.16875,0 c -0.0435,0 -0.0544,0.0427 -0.0782,0.0815 l 0,0.32582 -0.12187,0 c -0.0442,0 -0.0812,0.0365 -0.0812,0.0814 l 0,0.25062 c 0,0.039 0.0931,0.0709 0.0875,0.0783 l 0.11562,0 0,0.38218 -0.0469,0 c -0.0444,0 -0.0729,0.0344 -0.0781,0.0783 l 0,1.66662 -1.25669,0 c 0.004,-10e-4 0.007,-4e-4 0.009,-0.003 0.0145,-0.0104 0.0351,-0.027 0.0563,-0.0532 0.0168,-0.008 0.0456,-0.0235 0.0594,-0.0658 0.011,-0.0276 0.004,-0.057 -0.009,-0.0846 0.0331,-0.0809 0.0165,-0.1302 -0.0125,-0.17857 -0.001,-0.006 0,-0.011 0,-0.022 10e-4,-0.014 0,-0.0252 -0.003,-0.0564 l 0,-0.0125 0.0406,-0.0439 c 0.0304,-0.031 0.0317,-0.0817 0,-0.11279 l -0.0813,-0.0752 c -0.0319,-0.0317 -0.082,-0.0286 -0.11263,0.003 l -1.09721,1.16538 -0.64711,0 -0.19061,0.20362 -0.24701,0 -0.54385,-0.51377 0.3,-0.32267 -0.27812,-0.26315 -0.30011,0.32268 -0.67523,-0.63595 0.30323,-0.32267 -0.27823,-0.26315 -0.30325,0.32268 -0.67835,-0.63596 0.30325,-0.32266 -0.27513,-0.26315 -0.30323,0.32266 -0.67524,-0.63594 0.30012,-0.32268 -0.27824,-0.26315 -0.30311,0.32268 -0.67211,-0.63909 0.29999,-0.31953 -0.27811,-0.26315 -0.30325,0.31954 -0.67523,-0.63595 0.30324,-0.32267 -0.27824,-0.26002 -0.30013,0.31955 -0.67834,-0.63595 0.30324,-0.32267 -0.68459,-0.64535 -0.17814,-0.16604 c -0.0145,-0.0152 -0.0326,-0.0251 -0.0532,-0.0251 -0.0194,-0.003 -0.0463,0.0106 -0.0625,0.0251 l -0.14687,0.1629 c -0.0161,0.0166 -0.0264,0.0381 -0.025,0.0596 l -0.44074,0.46991 c -0.0209,8.1e-4 -0.0412,0.009 -0.0564,0.0251 l -0.11249,0.11904 c -0.0102,0.01 -0.0185,0.0229 -0.0219,0.0376 -0.0139,0.004 -0.0215,0.01 -0.0313,0.0188 l -0.0594,0.0627 c -0.0149,0.0152 -0.0219,0.0348 -0.0219,0.0563 0.001,0.0207 0.0106,0.045 0.025,0.0595 l 6.12382,5.77677 -0.54386,0 c -0.0457,0 -0.0726,0.035 -0.0814,0.0783 l 0,0.99622 -2.6508,0 0,2.09893 -11.11931,0 0,-2.28063 c 0,-0.0252 -0.01,-0.0479 -0.0281,-0.0627 l -0.19074,0.18171 -0.8721,0 0.65647,-0.62028 0.17813,0.18795 0.27823,-0.26315 -0.17812,-0.18796 0.67522,-0.63593 0.17813,0.18795 0.27823,-0.26315 -0.17822,-0.18796 0.67522,-0.63596 0.17823,0.18798 0.27826,-0.26315 -0.17825,-0.1911 0.67523,-0.63282 0.17823,0.18798 0.27813,-0.26316 -0.17813,-0.1911 0.67524,-0.63594 0.17811,0.1911 0.27824,-0.26316 -0.17812,-0.19109 0.67512,-0.63594 0.17823,0.19108 0.27825,-0.26314 -0.17825,-0.1911 0.67523,-0.63594 0.17825,0.19109 0.27812,-0.26314 -0.17812,-0.1911 0.54084,-0.50751 -0.10012,-0.10965 c -0.0151,-0.0159 -0.0374,-0.0245 -0.0594,-0.0251 l -0.44399,-0.47305 c 0,-0.0208 -0.007,-0.0397 -0.0219,-0.0563 l -0.14698,-0.16289 c -0.0304,-0.0301 -0.0817,-0.0337 -0.11563,-0.003 l -0.97222,0.91789 -1.40358,-1.49432 c -0.0143,-0.0174 -0.047,-0.0287 -0.0594,-0.0251 -0.0209,0 -0.0409,0.008 -0.0563,0.022 l -0.0375,0.0345 c -0.001,0.001 -0.0125,0.0125 -0.0125,0.0125 l -0.0281,0.0282 c -0.0331,0.0317 -0.0366,0.0811 -0.006,0.11278 l 0.0437,0.0438 c -10e-4,0.008 -0.002,0.0169 -0.003,0.0282 -0.001,0.0172 0,0.0313 0,0.0439 0.001,0.0107 0.002,0.016 -0.003,0.0313 -0.0242,0.0416 -0.0431,0.089 -0.0156,0.15038 0,0.007 -0.002,0.0134 -0.003,0.0187 -0.004,0.025 -0.008,0.0549 0,0.0846 0.0146,0.038 0.0451,0.053 0.0625,0.0627 0.0194,0.0268 0.0386,0.042 0.0531,0.0532 0.0145,0.009 0.0146,0.008 0.0188,0.0187 0.0408,0.0808 0.15537,0.0797 0.18761,-0.003 0.01,-0.0271 0.011,-0.0558 0.0125,-0.0877 0.001,-0.0171 0.01,-0.0277 0.0219,-0.047 l 1.0316,1.09646 -0.75034,0.70799 -1.4067,-1.49431 c -0.0295,-0.0326 -0.0804,-0.0359 -0.11251,-0.003 l -0.0812,0.0752 c -0.0304,0.0305 -0.0304,0.0796 0,0.11278 l 0.0406,0.0439 c 0,0.008 10e-4,0.0171 0,0.0282 -0.002,0.0165 -0.001,0.0301 0,0.0438 0,0.012 0,0.0161 -0.006,0.0313 -0.0232,0.0409 -0.0434,0.0854 -0.0156,0.15036 0,0.006 -0.002,0.015 -0.003,0.022 -0.003,0.0251 -0.007,0.0544 0.003,0.0815 0.0122,0.0409 0.0401,0.056 0.0594,0.0658 0.0195,0.0255 0.0417,0.0412 0.0562,0.0501 0.0129,0.0105 0.0118,0.0121 0.0188,0.022 0.0352,0.0713 0.13623,0.11265 0.18448,-0.006 0.01,-0.0236 0.0135,-0.0479 0.0156,-0.0846 0.001,-0.0179 0.008,-0.0292 0.0219,-0.047 l 1.02845,1.09645 -0.75022,0.70799 -1.40359,-1.49431 c -0.0309,-0.0332 -0.0845,-0.0351 -0.11573,-0.003 l -0.0781,0.0721 c -0.0146,0.0146 -0.0236,0.035 -0.025,0.0563 0,0.0208 0.006,0.0431 0.0188,0.0595 l 0.0437,0.0439 c -0.001,0.007 -0.003,0.0146 -0.003,0.0251 -0.003,0.0186 -0.001,0.0328 0,0.047 0.001,0.0104 0.002,0.0142 -0.003,0.0282 -0.0235,0.04 -0.0431,0.0899 -0.0156,0.1535 0,0.006 -0.002,0.012 -0.003,0.0189 -0.005,0.0264 -0.006,0.0541 0.003,0.0846 0.0144,0.0374 0.0409,0.0545 0.0594,0.0626 0.02,0.0279 0.04,0.0436 0.0532,0.0532 0.0138,0.01 0.0146,0.0119 0.0188,0.0189 0.0317,0.0738 0.14486,0.11403 0.19061,-0.006 0.008,-0.0267 0.007,-0.0534 0.009,-0.0846 0.001,-0.0172 0.009,-0.0291 0.0219,-0.047 l 1.03134,1.09645 -0.75334,0.70801 -1.4036,-1.49433 c -0.0316,-0.0317 -0.0794,-0.0342 -0.11248,-0.003 l -0.0781,0.0721 c -0.0165,0.0144 -0.0282,0.035 -0.0282,0.0563 -0.002,0.0215 0.009,0.0442 0.0251,0.0595 l 0.0406,0.0439 c -0.001,0.009 -0.002,0.0159 -0.003,0.0251 -10e-4,0.018 0,0.0355 0,0.0501 0,0.0118 -10e-4,0.014 -0.006,0.0251 -0.0235,0.0416 -0.041,0.0891 -0.0125,0.15351 0,0.005 -0.002,0.0157 -0.003,0.0219 -0.004,0.0244 -0.007,0.0527 0.003,0.0815 0.0122,0.0388 0.039,0.0537 0.0563,0.0627 0.0206,0.0279 0.0419,0.0437 0.0563,0.0532 0.013,0.0105 0.0165,0.0129 0.0219,0.0219 0.0332,0.0742 0.14575,0.10501 0.18438,-0.006 0.0105,-0.028 0.0121,-0.053 0.0126,-0.0877 0,-0.0165 0.007,-0.0285 0.0219,-0.047 l 1.0316,1.09958 -0.75034,0.70802 -1.40678,-1.49747 c -0.0159,-0.016 -0.0461,-0.0283 -0.0594,-0.0251 -0.0185,0 -0.0374,0.009 -0.0531,0.022 l -0.0375,0.0345 c -0.001,7e-4 -0.0144,0.0156 -0.0156,0.0156 l -0.0281,0.0282 c -0.0317,0.0305 -0.0343,0.0797 -0.003,0.11277 l 0.0438,0.0439 c 0,0.008 -0.002,0.0147 -0.003,0.0251 -10e-4,0.0172 -10e-4,0.0313 0,0.0439 0.001,0.0129 0,0.0175 -0.006,0.0313 -0.0229,0.0416 -0.0393,0.0884 -0.0125,0.15351 0,0.006 -0.002,0.0119 -0.003,0.0188 -0.005,0.0256 -0.007,0.0535 0,0.0846 0.0154,0.038 0.0415,0.0542 0.0594,0.0626 0.0207,0.0268 0.0424,0.0435 0.0563,0.0532 0.0144,0.01 0.0132,0.0104 0.0187,0.022 0.0358,0.0725 0.14787,0.0998 0.1845,-0.003 0.0125,-0.0302 0.0151,-0.0586 0.0156,-0.0877 0.002,-0.0186 0.008,-0.0315 0.0219,-0.0501 l 1.03159,1.09645 -0.75336,0.70801 -1.40358,-1.49431 c -0.0304,-0.0319 -0.0807,-0.0362 -0.11261,-0.003 l -0.0813,0.0752 c -0.0317,0.0312 -0.0327,0.0811 -0.003,0.11278 l 0.0437,0.0438 c -0.002,0.0104 -0.001,0.0199 -0.003,0.0282 -0.001,0.0172 0,0.0306 0,0.0439 0.001,0.0118 -0.001,0.016 -0.006,0.0313 -0.0235,0.0407 -0.0401,0.0868 -0.0125,0.15037 0,0.006 -0.002,0.015 -0.003,0.022 -0.005,0.0249 -0.0104,0.0524 0,0.0815 0.0131,0.0386 0.0421,0.0545 0.0594,0.0627 0.02,0.0276 0.0418,0.0442 0.0563,0.0532 0.0132,0.0108 0.0139,0.01 0.0189,0.0187 0.0388,0.0838 0.14888,0.0898 0.1875,-0.006 0.01,-0.0271 0.0111,-0.0505 0.0125,-0.0814 0.001,-0.0186 0.009,-0.0309 0.0219,-0.0501 l 1.03159,1.09646 -0.51886,0.48871 0.56886,0.60775 -0.75648,0.70799 -0.56585,-0.60148 0,-0.93669 c 0,-0.0437 -0.0339,-0.0783 -0.0781,-0.0783 l -0.0438,0 0,-0.15976 -0.76586,-0.81452 c -0.022,-0.0246 -0.0544,-0.03 -0.0875,-0.0188 -0.006,-0.002 -0.0129,-0.003 -0.0219,-0.003 l -0.12199,0 0,-0.32579 c 0,-0.0449 -0.0379,-0.0815 -0.0812,-0.0815 l -0.16875,0 -0.50648,-0.46364 c 0.0577,-0.0555 0.0906,-0.13434 0.0906,-0.2193 0,-0.16804 -0.13464,-0.30387 -0.30314,-0.30387 -0.16687,0 -0.30323,0.13583 -0.30323,0.30387 0,0.0788 0.0302,0.15677 0.0844,0.21303 l -0.50335,0.46991 -0.16875,0 c -0.044,0 -0.0578,0.0432 -0.0813,0.0815 l 0,0.32579 -0.11885,0 c -0.0448,0 -0.0813,0.036 -0.0813,0.0814 l 0,0.25376 c 0,0.0394 0.0965,0.0709 0.0906,0.0783 l 0.10948,0 0,0.3822 -0.0437,0 c -0.0449,0 -0.0736,0.0348 -0.0782,0.0783 l 0,1.89531 -0.0469,0 c -0.045,0 -0.0781,0.0374 -0.0781,0.0815 l 0,0.25062 c 0,0.0326 0.0192,0.0596 0.0469,0.0721 l -0.0844,0 c -0.0447,0 -0.0781,0.036 -0.0781,0.0814 l 0,1.75746 -0.12824,0 0,-30.30297 -2.53517,0 0,-0.42918 -0.91598,0 0,-0.52943 -1.20034,0 0,0.52943 -2.11631,0 0,0.42918 -0.89096,0 0,19.98687 -2.60396,-1.22492 0,-0.19109 -0.15313,0 0,-0.13784 -0.15948,0 0,-0.12531 -0.19375,0 0,0.12531 -0.1595,0 0,0.13784 -0.15311,0 0,0.19109 -5.13922,2.41848 0,-0.0282 -0.125,0 0,-0.18483 -0.072,0 0,-0.15351 -0.19687,0 0,0.15351 0,0.18483 0,0.17229 0.0594,0 0,0.93669 -1.54421,0 0,-26.88829 -1.0942,0 0,-1.15599 -3.24166,0 0,1.15599 -1.09722,0 0,34.87991 -0.87523,0 0,-31.9978 -6.72414,0 0,-1.36586 -1.43796,0 0,-1.1184 0,-0.68293 -0.48137,0 0,0.68293 -0.87222,0 0,-0.68293 -0.17501,0 0,-3.55566 -0.22198,0 0,3.55566 -0.522,0 0,-4.67404 -0.1751,0 0,4.67404 0,0.34147 0,0.34146 -1.17848,0 0,-0.68293 -0.48135,0 0,0.68293 0,1.1184 -0.82848,0 0,1.36586 -4.889077,0 0,17.7689 -0.706479,0 0,-0.56703 -0.759621,0 0,-0.95861 -1.325435,0 0,-0.95862 -1.575514,0 0,0.95862 -1.32231,0 0,0.95861 -0.759613,0 0,0.56703 -3.326086,0 0,0.50751 -0.606457,0 0,0.78944 0.606457,0 0,12.98208 -0.844024,0 0,-18.11351 -0.56582,0 0,-3.37082 -0.400126,0 0,-2.07074 -2.479156,-1.48805 0,-0.31013 -0.250081,0 -0.0031,-0.047 -0.06565,-0.0313 0.01876,-0.36026 0.02813,-0.37906 0.0469,0 c 0,0 0.013,-0.42694 -0.02501,-0.44486 -0.03826,-0.0187 -0.12817,-0.0376 -0.12817,-0.0376 l 0,-0.0532 0.0063,-0.0251 c 0.01762,-0.0198 0.03125,-0.0541 0.03125,-0.0908 0,-0.064 -0.03514,-0.11904 -0.07815,-0.11904 -0.04451,0 -0.08128,0.055 -0.08128,0.11904 0,0.0367 0.01338,0.0711 0.03126,0.0908 l 0.0063,0.0251 0,0.0532 c 0,0 -0.08929,0.0181 -0.12817,0.0376 -0.03726,0.0179 -0.02188,0.44486 -0.02188,0.44486 l 0.04689,0 0.02501,0.37906 0.02188,0.36026 -0.06565,0.0313 -0.0062,0.047 -0.250081,0 0,0.31013 -2.478936,1.48805 0,2.07074 -0.400126,0 0,3.37082 -0.565808,0 0,18.11351 -0.625206,0 0,-34.10301 -2.038163,0 0,-13.63053 -1.631786,0 0,-9.33244 -1.387958,0 0,-6.62574 -0.353239,0 0,6.13391 -0.406377,0 0,-0.46991 -0.01564,0 0,-12.14877 -0.72524,0 0,6.14958 -0.253206,0 0,5.99919 -0.568931,0 0,-9.05988 -0.203194,0 0,-3.44288 -0.556433,0 0,3.44288 -0.203194,0 0,9.52979 -0.150046,0 0,-3.24238 -0.40325,0 0,3.73421 -0.253217,0 0,-6.27173 -0.40325,0 0,6.27173 -0.650218,0 0,9.33244 -1.631775,0 0,13.63053 -2.041299,0 0,14.54218 -0.01875,0 0,1.2719 -0.450149,0 0,-3.76869 0.35949,0 0,-0.76125 -0.35949,0 0,-1.35647 -0.528296,0 0,-0.84585 -0.422012,0 0,-0.50751 -0.231329,0 0,-0.67666 -0.465775,0 0,-0.54823 0,-0.63595 -0.168807,0 0,-0.55136 -0.559558,0 0,-0.37906 -0.337614,0 0,-0.84897 -0.359489,0 0,0.84897 -0.337604,0 0,0.37906 -0.559558,0 0,0.55136 -0.168807,0 0,0.63595 0,0.54823 -0.465784,0 0,0.67666 -0.231319,0 0,0.50751 -0.422013,0 0,0.84585 -0.528295,0 0,1.35647 -0.359501,0 0,0.76125 0.359501,0 0,3.76869 -0.450149,0 0,-1.2719 -2.353891,0 0,1.2719 -0.472035,0 0,18.28893 -0.503284,0 0,-34.35675 -1.516129,0 0,-1.20924 -2.310129,0 0,1.20924 -1.519242,0 0,16.69437 -0.900297,0 0,-1.60083 -1.597388,0 0,-1.0996 -0.350115,0 0,-0.99934 -0.397012,0 0,-0.50124 -0.997195,0 0,-4.79621 -0.400137,0 0,4.79621 -0.125034,0 0,-0.64848 -0.497036,0 0,0.64848 -0.775262,0 0,0.50124 -0.647081,0 0,0.99934 -1.347325,0 0,1.0996 -1.372317,0 0,-6.19343 -1.944379,0 0,-0.74872 -4.19513,0 0,-3.29251 -3.748093,0 0,3.29251 -4.195121,0 0,0.74872 -1.94439,0 0,25.4535 -0.578314,0 0,-27.45846 -0.718979,0 0,-3.05755 -0.409506,0 0,-1.14658 -0.337613,0 0,-0.71427 0.250079,0 0,-0.39471 -0.250079,0 0,-2.60957 -0.737741,0 -1.850605,-2.46234 -1.850606,2.46234 -0.73774,0 0,2.60957 -0.250081,0 0,0.39471 0.250081,0 0,0.71427 -0.337615,0 0,1.14658 -0.412626,0 0,3.05755 -0.718989,0 0,27.45846 -0.837776,0 0,-56.8874 0,-0.98367 0,-1.03381 -0.465777,-0.0595 0,-4.75863 -0.01251,0.003 c -0.177417,-0.39146 -2.237222,-0.19347 -4.6577572,0.45112 -2.2536159,0.60023 -4.0388189,1.38154 -4.238884,1.83265 l -0.018766,0.003 0,1.30008 -0.7596181,-0.0971 0,2.35897 -0.7346099,0 0,10.98651 -1.1535072,0 0,0.39472 -0.5157978,0 0,14.52964 -1.53487156,0 0,47.65209 349.82991376,0.25062 0,-58.22508 -3.84189,0 0,21.29948 -0.85035,0 0,-0.67979 -0.91272,0 0,-1.14658 -1.58495,0 0,-1.15285 -1.88806,0 0,1.15285 -1.58808,0 0,1.14658 -0.9096,0 0,0.67979 -3.98576,0 0,0.60776 -0.72835,0 0,0.94922 0.72835,0 0,15.56031 -1.01284,0 0,-21.71301 -0.67834,0 0,-4.04124 -0.47825,0 0,-2.48113 -2.97278,-1.78565 0,-0.36966 -0.297,0 -0.006,-0.0563 -0.0782,-0.0376 0.0219,-0.43231 0.0314,-0.45425 0.0594,0 c 0,0 0.0176,-0.51101 -0.0281,-0.53256 -0.0459,-0.0223 -0.15637,-0.047 -0.15636,-0.047 l 0,-0.0595 0.009,-0.0345 c 0.0213,-0.0241 0.0344,-0.0626 0.0344,-0.10652 0,-0.0771 -0.0423,-0.14097 -0.0937,-0.14097 -0.0535,0 -0.0938,0.0639 -0.0938,0.14097 0,0.044 0.0129,0.0824 0.0344,0.10652 l 0.009,0.0345 0,0.0595 c 0,0 -0.10626,0.0239 -0.15323,0.047 -0.0446,0.0216 -0.0281,0.53256 -0.0281,0.53256 l 0.0564,0 0.0312,0.45425 0.025,0.43231 -0.0813,0.0376 -0.006,0.0563 -0.29688,0 0,0.36966 -2.97291,1.78565 0,2.48113 -0.47823,0 0,4.04124 -0.68149,0 0,21.71301 -0.7471,0 0,-40.8791 -2.44142,0 0,-16.34037 -1.96007,0 0,-11.18701 -1.66306,0 0,-7.93836 -0.422,0 0,7.35254 -0.48761,0 0,-0.56703 -0.0156,0 0,-14.56097 -0.86908,0 0,7.37134 -0.30324,0 0,7.18963 -0.68772,0 0,-10.85807 -0.24064,0 0,-4.12581 z m -170.3744,84.23621 0.64085,0.68293 0.23449,-0.22242 -0.46273,-0.49184 c -0.0145,0.0201 -0.0219,0.0313 -0.0219,0.0501 -0.002,0.0306 -0.002,0.0575 -0.0125,0.0846 -0.0318,0.0921 -0.15487,0.0876 -0.19062,0.003 -0.004,-0.006 -0.006,-0.008 -0.0187,-0.0187 -0.0145,-0.009 -0.0333,-0.0239 -0.0532,-0.0501 -0.0187,-0.008 -0.0455,-0.0266 -0.0594,-0.0689 -0.01,-0.0247 -0.007,-0.0519 -0.003,-0.0783 10e-4,-0.007 0.005,-0.0163 0.006,-0.022 -0.016,-0.0345 -0.021,-0.0638 -0.0156,-0.0908 l -0.0438,0 z m 8.18711,-4.77117 0.009,0.009 c 0.0104,0.0116 0.0154,0.0238 0.0188,0.0376 0.0137,0.004 0.0277,0.007 0.0375,0.0188 l 0.0563,0.0627 c 0.0326,0.0332 0.0299,0.0862 -0.003,0.11592 l -0.48148,0.45424 0.23448,0.24748 0.67523,-0.63907 -0.4126,-0.43546 z m -0.64084,0.96175 -0.67523,0.63595 0.23125,0.24748 0.67522,-0.63907 z m -0.95348,0.89909 -0.67523,0.63596 0.23137,0.24749 0.67523,-0.63596 z m -0.95347,0.89912 -0.67522,0.63593 0.23136,0.24749 0.67523,-0.63595 z m -0.95335,0.89909 -0.67522,0.63594 0.23123,0.24748 0.67524,-0.63594 z m -0.95347,0.89909 -0.67523,0.63594 0.23138,0.24749 0.67512,-0.63594 z m -0.95347,0.89909 -0.67523,0.63595 0.23137,0.24749 0.67523,-0.63594 z m -0.95345,0.8991 -0.24689,0.23182 0.42512,0 c 0.0192,0 0.0363,0.008 0.05,0.0189 l 0.003,-0.003 z m 10.39717,-6.61634 0.10937,0.10338 0.1095,-0.11591 -0.1095,-0.10339 z m 0.21887,-0.0125 0.19373,0.18169 0.92222,-0.97741 c 0.0145,0.0192 0.0197,0.0312 0.0219,0.0658 0,0.0172 0.002,0.0427 0.0125,0.069 0.0406,0.11204 0.15376,0.0773 0.18752,0.003 0.004,-0.009 0.007,-0.009 0.0189,-0.0187 0.0145,-0.01 0.0355,-0.0255 0.0563,-0.0532 0.0157,-0.008 0.0469,-0.0244 0.0594,-0.0658 0.0104,-0.0278 0.005,-0.0532 0,-0.0783 -0.001,-0.008 -0.006,-0.0169 -0.006,-0.009 0.029,-0.0787 0.0135,-0.12593 -0.0156,-0.17229 -10e-4,-0.007 0,-0.0134 0,-0.0251 0.001,-0.013 0.001,-0.0245 0,-0.0563 -10e-4,-0.005 -0.003,-0.007 -0.003,-0.0125 l 0.0437,-0.0438 c 0.0139,-0.0148 0.0219,-0.038 0.0219,-0.0596 -0.001,-0.0215 -0.01,-0.0411 -0.025,-0.0563 l -0.0812,-0.0752 c -0.033,-0.0302 -0.0821,-0.0257 -0.11263,0.006 z m 0.19373,0.18169 -0.10936,0.11905 0.37199,0.35086 0.10937,-0.11903 z m 0.54086,0.72993 0.10313,0.0971 0.10625,-0.11591 -0.1,-0.0939 z m 0.20938,-0.0187 0.19698,0.18796 0.92536,-0.98367 c 0.0131,0.0181 0.0207,0.0306 0.0219,0.0595 0,0.0186 0.002,0.0453 0.0125,0.0752 0.0317,0.0807 0.14335,0.0871 0.18748,0.006 0.003,-0.0109 0.005,-0.0154 0.0188,-0.0251 0.014,-0.0103 0.0325,-0.0232 0.0531,-0.0501 0.0179,-0.008 0.0466,-0.0232 0.0626,-0.0658 0.007,-0.0277 0.001,-0.0535 -0.003,-0.0783 0,-0.006 10e-4,-0.0159 -0.006,-0.006 0.0311,-0.0788 0.0159,-0.1277 -0.0125,-0.17543 -0.001,-0.008 -0.003,-0.014 -0.003,-0.0251 0.001,-0.0125 0.001,-0.0265 0,-0.0439 -0.001,-0.009 0.001,-0.016 0,-0.0251 l 0.0406,-0.0439 c 0.0319,-0.0327 0.0296,-0.085 -0.003,-0.11591 l -0.0782,-0.0721 c -0.0163,-0.0151 -0.037,-0.0219 -0.0563,-0.0219 l -0.003,0 c -0.0206,6e-4 -0.041,0.009 -0.0563,0.0251 z m 0.19698,0.18796 -0.10624,0.11278 0.37512,0.35713 0.10937,-0.1159 z m 0.547,0.73306 0.097,0.0908 0.10939,-0.11591 -0.0969,-0.0908 z m 0.20637,-0.0251 0.19699,0.18484 0.9221,-0.98368 c 0.0145,0.0184 0.0214,0.032 0.0219,0.0595 0.001,0.0209 0.001,0.0477 0.009,0.0783 0.0318,0.0813 0.15199,0.0818 0.18761,0.003 0.006,-0.0111 0.008,-0.0127 0.0188,-0.022 0.016,-0.0104 0.0362,-0.0256 0.0562,-0.0532 0.0165,-0.007 0.0443,-0.0235 0.0594,-0.0627 0.01,-0.0285 0.005,-0.059 0,-0.0846 -0.001,-0.006 0,-0.0125 -0.003,-0.006 0.0281,-0.0776 0.0112,-0.12494 -0.0156,-0.17231 -10e-4,-0.006 -0.003,-0.008 -0.003,-0.0188 0.001,-0.0146 0.003,-0.0293 0,-0.0501 0,-0.008 0.001,-0.0144 0,-0.022 l 0.0406,-0.047 c 0.0131,-0.0152 0.025,-0.0351 0.025,-0.0563 -0.001,-0.0207 -0.0138,-0.0418 -0.0281,-0.0563 l -0.0781,-0.0752 c -0.0139,-0.0144 -0.0281,-0.0149 -0.0563,-0.022 -0.022,0 -0.0416,0.01 -0.0563,0.0251 z m 0.19699,0.18484 -0.10949,0.1159 0.38136,0.36027 0.10949,-0.11591 z m 0.5501,0.73932 0.0906,0.0846 0.10948,-0.11592 -0.0906,-0.0846 z m 0.20012,-0.0313 0.19375,0.18484 0.92222,-0.98369 c 0.015,0.0186 0.0211,0.0326 0.0219,0.0501 0,10e-4 0.003,0.022 0.003,0.022 0.001,0.0186 0.004,0.0423 0.0125,0.0627 0.0422,0.1174 0.154,0.0762 0.1845,0.006 0.005,-0.01 0.009,-0.0122 0.0219,-0.022 0.0138,-0.01 0.0324,-0.0237 0.0531,-0.0501 0.0172,-0.008 0.0479,-0.0251 0.0625,-0.0658 0.008,-0.0278 0.004,-0.0557 0,-0.0814 -0.002,-0.007 -0.007,-0.0118 -0.009,-0.006 0.0319,-0.0775 0.0165,-0.12743 -0.0125,-0.1723 -0.001,-0.008 0,-0.013 0,-0.0251 0,-0.0129 0.001,-0.0256 0,-0.0532 0,-0.005 -0.003,-0.0101 -0.003,-0.0156 l 0.0406,-0.0439 c 0.0317,-0.034 0.0315,-0.0846 -0.003,-0.11591 l -0.075,-0.0721 c -0.0159,-0.0146 -0.0385,-0.022 -0.0594,-0.022 -0.0201,0 -0.0419,0.009 -0.0564,0.0251 z m 0.19375,0.18484 -0.10626,0.11277 0.39075,0.36967 0.10626,-0.11279 z m 0.55962,0.74559 0.0844,0.0783 0.10939,-0.1159 -0.0844,-0.0783 z m 0.19374,-0.0376 0.19698,0.18482 0.92223,-0.98054 c 0.0139,0.0194 0.0204,0.0328 0.0219,0.0658 0.001,0.0195 0.002,0.0409 0.009,0.0658 0.042,0.11691 0.15537,0.081 0.19061,0.006 0.004,-0.009 0.003,-0.01 0.0156,-0.0187 0.0145,-0.0111 0.0376,-0.0277 0.0564,-0.0532 0.0171,-0.008 0.0466,-0.0242 0.0625,-0.069 0.007,-0.0251 0.003,-0.0511 0,-0.0752 -0.001,-0.005 -0.005,-0.0137 -0.006,-0.0125 0.0264,-0.0767 0.0119,-0.12267 -0.0156,-0.16915 -0.002,-0.007 -0.003,-0.0116 -0.003,-0.022 0.001,-0.0145 0.004,-0.0278 0,-0.0596 l 0,-0.0125 0.0438,-0.0439 c 0.0284,-0.0326 0.027,-0.0856 -0.006,-0.1159 l -0.0781,-0.0721 c -0.0311,-0.0317 -0.0824,-0.0275 -0.11262,0.003 z m 0.19698,0.18482 -0.10937,0.11592 0.39699,0.37279 0.10624,-0.11592 z m 0.56586,0.75186 0.0781,0.0721 0.10626,-0.11278 -0.0781,-0.0721 z m 0.18437,-0.0407 0.19387,0.18482 0.92522,-0.98367 c 0.0151,0.0194 0.0211,0.0312 0.0219,0.0595 0.001,0.02 0.002,0.0492 0.0126,0.0783 0.0421,0.11215 0.14812,0.0763 0.1875,0 0.005,-0.0102 0.006,-0.01 0.0188,-0.0187 0.0131,-0.0111 0.0331,-0.0265 0.0531,-0.0532 0.0165,-0.008 0.0469,-0.0256 0.0594,-0.0658 0.01,-0.0276 0.006,-0.0534 0,-0.0783 0,-0.006 0.002,-0.0139 -0.003,-0.006 0.0319,-0.079 0.0125,-0.12982 -0.0156,-0.17544 -0.001,-0.006 0,-0.009 0,-0.022 0.001,-0.0138 0.003,-0.0276 0,-0.047 -0.001,-0.007 -0.003,-0.0168 -0.003,-0.0251 l 0.0406,-0.0439 c 0.0319,-0.0332 0.0301,-0.0855 -0.003,-0.1159 l -0.0782,-0.0721 c -0.033,-0.0318 -0.0853,-0.028 -0.11562,0.003 z m 0.19387,0.18482 -0.10636,0.11279 0.40022,0.37905 0.10625,-0.1159 z m 0.57199,0.75499 0.072,0.069 0.10624,-0.11278 -0.0719,-0.069 z m 0.17823,-0.0438 0.19689,0.18483 0.92533,-0.98368 c 0.0132,0.0185 0.0201,0.0302 0.0219,0.0595 0,0.0213 0.002,0.0458 0.009,0.0721 0.0436,0.11755 0.15776,0.0782 0.18763,0.006 0.005,-0.0105 0.007,-0.0131 0.0219,-0.0219 0.0145,-0.0104 0.0345,-0.0232 0.0531,-0.0501 0.0159,-0.008 0.0455,-0.0252 0.0594,-0.0658 0.009,-0.0278 0.006,-0.0558 0.003,-0.0814 -0.002,-0.006 -0.001,-0.0159 -0.006,-0.006 0.0318,-0.0802 0.012,-0.12681 -0.0156,-0.1723 l 0,-0.0251 c 0,-0.0137 0.001,-0.0266 0,-0.0439 -10e-4,-0.009 -0.003,-0.0185 -0.003,-0.0282 l 0.0438,-0.0439 c 0.0305,-0.0319 0.0285,-0.081 -0.003,-0.11278 l -0.0812,-0.0752 c -0.0316,-0.0291 -0.082,-0.0258 -0.1125,0.006 z m 0.19689,0.18483 -0.10626,0.11277 0.40323,0.37907 0.009,0 0.10325,-0.10964 z m 41.9637,-36.98199 0,0.16605 c 0,0.69221 0.48262,1.27327 1.13171,1.41912 l 0,0.82705 c -1.51306,0.0365 -2.95677,0.33708 -4.29523,0.85524 l -0.1875,-0.45111 c 0.33712,-0.26704 0.55636,-0.67919 0.55636,-1.14346 l 0,-1.14032 c 0.89973,-0.26038 1.83419,-0.44146 2.79466,-0.53257 z m 2.8979,0 c 0.95874,0.0911 1.89408,0.27219 2.79468,0.53257 l 0,1.14032 c 0,0.46427 0.2185,0.87642 0.55637,1.14346 l -0.18751,0.45111 c -1.33857,-0.51816 -2.78466,-0.81877 -4.29523,-0.85524 l 0,-0.82705 c 0.6481,-0.14259 1.13169,-0.72603 1.13169,-1.41912 z m -8.59348,1.70736 c 0.0177,0.78756 0.66174,1.41912 1.45047,1.41912 0.11173,0 0.21774,-0.0175 0.32199,-0.0407 l 0.17513,0.42292 c -1.35447,0.602 -2.58518,1.4323 -3.6419,2.44041 l -1.06597,-1.06199 0,-1.24371 c 0,-0.0181 0,-0.0402 0,-0.0626 0.84722,-0.7204 1.77094,-1.35033 2.76028,-1.87337 z m 14.28908,0 c 0.82922,0.43933 1.60969,0.95322 2.34141,1.5319 -0.0374,0.12932 -0.0595,0.26314 -0.0595,0.40412 l 0,1.50999 c 0,0.0662 0.006,0.13346 0.0156,0.19736 l -0.60323,0.60149 c -1.05797,-1.00899 -2.28643,-1.83855 -3.64189,-2.44041 l 0.17512,-0.42606 c 0.10424,0.0232 0.21337,0.0407 0.32511,0.0407 0.78873,0 1.42946,-0.63156 1.44734,-1.41912 z m -7.46179,1.12778 0,5.56688 c -0.70148,0.0316 -1.37682,0.16653 -2.01004,0.39785 l -2.12569,-5.26927 c 1.28833,-0.49572 2.67842,-0.66062 4.13573,-0.69546 z m 0.63137,0 0.003,0 c 1.45557,0.0349 2.84578,0.32192 4.13575,0.81765 l -2.12569,5.14708 c -0.63197,-0.23044 -1.3092,-0.36628 -2.01318,-0.39785 z m -5.35172,1.062 2.12569,5.14708 c -0.6241,0.29423 -1.19985,0.68019 -1.70369,1.14032 l -3.92627,-3.93471 c 1.02085,-0.97241 2.20218,-1.77163 3.50427,-2.35269 z m 10.0752,0 c 1.30206,0.58356 2.48442,1.37928 3.50426,2.35269 l -3.92626,3.93471 c -0.50585,-0.46176 -1.0796,-0.84684 -1.70682,-1.14032 z m -15.03929,1.78565 0.71586,0.71741 c -1.00798,1.06125 -1.83759,2.29165 -2.43831,3.64963 l -1.07846,-0.44798 0,-0.94921 c 0,-0.41215 -0.172,-0.78431 -0.447,-1.04634 0.2765,-0.48333 0.57698,-0.94885 0.90336,-1.39407 0.25936,0.24536 0.60785,0.39786 0.99408,0.39786 0.61587,0 1.13948,-0.38445 1.35047,-0.9273 z m 22.11658,0.22557 c 0.41235,0.53959 0.79197,1.10522 1.13159,1.69794 -0.27339,0.26278 -0.44386,0.63432 -0.44386,1.04634 l 0,0.94608 -1.08159,0.44798 c -0.60049,-1.35785 -1.42871,-2.58851 -2.43518,-3.64963 l 0.40635,-0.40727 c 0.26187,0.37481 0.69648,0.62029 1.18795,0.62029 0.52437,0 0.98148,-0.28219 1.23474,-0.70173 z m -21.10374,0.78632 3.92625,3.93784 c -0.46198,0.50726 -0.84298,1.08042 -1.13783,1.70735 l -5.13611,-2.13026 c 0.57875,-1.3066 1.37772,-2.49429 2.34769,-3.51493 z m 17.9777,0 c 0.9691,1.02064 1.7682,2.20833 2.34767,3.51493 l -5.13608,2.13026 c -0.29325,-0.62693 -0.67886,-1.20009 -1.13784,-1.70735 z m -9.3061,1.92976 0,5.04058 -1.92255,-4.65839 c 0.60597,-0.2213 1.24958,-0.35062 1.92255,-0.38219 z m 0.6345,0 c 0.67285,0.0316 1.31783,0.16089 1.92256,0.38219 l -1.92256,4.65839 z m -3.14166,0.62655 1.92569,4.65838 -3.55739,-3.56819 c 0.48336,-0.44084 1.03284,-0.80838 1.6317,-1.09019 z m 5.64882,0 c 0.59761,0.28181 1.1461,0.64998 1.63171,1.09019 l -3.5574,3.56819 z m -15.63326,1.03067 0.84396,0.354 c -0.51699,1.33956 -0.81221,2.78814 -0.85021,4.30438 l -1.33173,0 0,-0.33207 c 0,-0.6491 -0.42273,-1.19808 -1.00971,-1.38467 0.0769,-0.58771 0.1885,-1.1615 0.32824,-1.72614 0.17611,0.0746 0.37087,0.11904 0.57524,0.11904 0.75985,0 1.38296,-0.58695 1.44421,-1.33454 z m 25.61459,0 c 0.0613,0.74609 0.68585,1.33454 1.44734,1.33454 0.20348,0 0.39672,-0.0429 0.57209,-0.11904 0.14138,0.56464 0.25361,1.13843 0.33137,1.72614 -0.58524,0.18659 -1.01285,0.73557 -1.01285,1.38467 l 0,0.33207 -1.32857,0 c -0.0373,-1.51624 -0.33326,-2.96482 -0.85025,-4.30438 z m -17.70896,0.50751 3.5575,3.56191 -4.64847,-1.92663 c 0.28287,-0.59935 0.65211,-1.14871 1.09097,-1.63528 z m 9.80643,0 c 0.44037,0.48582 0.80974,1.03593 1.09098,1.63528 l -4.64849,1.92977 z m -16.48048,0.003 5.13296,2.13339 c -0.22874,0.6318 -0.36385,1.30898 -0.39697,2.01435 l -5.55496,0 c 0.0362,-1.4581 0.32185,-2.85519 0.81897,-4.14774 z m 23.15454,0 c 0.49637,1.29255 0.78173,2.68964 0.81898,4.14774 l -5.55497,0 c -0.0306,-0.70536 -0.16824,-1.38255 -0.39698,-2.01435 z m -17.8152,2.21796 4.64836,1.92978 -5.02661,0 c 0.0314,-0.67392 0.16237,-1.32377 0.37825,-1.92978 z m 12.47274,0 c 0.21923,0.60688 0.35112,1.25586 0.38137,1.92978 l -5.02972,0 z m -20.38164,2.56572 1.33173,0 c 0.0373,1.51374 0.3336,2.9627 0.85021,4.30752 l -0.84709,0.35087 c -0.0794,-0.72804 -0.6941,-1.29068 -1.44108,-1.29068 -0.19937,0 -0.38975,0.0366 -0.56274,0.10963 -0.12974,-0.50901 -0.23449,-1.02654 -0.31261,-1.55696 0.57085,-0.19398 0.98158,-0.73682 0.98158,-1.37528 z m 1.75059,0 5.55496,0 c 0.0331,0.70462 0.16823,1.37879 0.39697,2.01122 l -5.13296,2.13027 c -0.49637,-1.29081 -0.78185,-2.68326 -0.81897,-4.14149 z m 5.78006,0 5.02661,0 -4.64836,1.92665 c -0.215,-0.60839 -0.34687,-1.25436 -0.37825,-1.92665 z m 8.20264,0 5.02972,0 c -0.0302,0.67229 -0.16214,1.31826 -0.38137,1.92665 z m 5.25482,0 5.55497,0 c -0.0364,1.45823 -0.32274,2.85068 -0.81898,4.14149 l -5.13297,-2.13027 c 0.22962,-0.63243 0.36725,-1.3066 0.39698,-2.01122 z m 5.97384,0 1.32857,0 0,0.5451 c 0,0.63846 0.41111,1.18205 0.98472,1.37528 -0.0772,0.53042 -0.18224,1.04958 -0.3126,1.55696 -0.17276,-0.0714 -0.363,-0.11277 -0.56273,-0.11277 -0.74699,0 -1.3606,0.5649 -1.44109,1.29382 l -0.84712,-0.354 c 0.51774,-1.34219 0.813,-2.79065 0.85025,-4.30439 z m -14.48282,0.71427 -0.13448,0.3258 -3.10104,3.10455 c -0.43949,-0.48332 -0.8081,-1.0328 -1.09097,-1.63216 z m 3.33541,0 4.32648,1.79819 c -0.28124,0.59936 -0.65136,1.14796 -1.09098,1.63216 l -3.10102,-3.10455 z m -1.98496,0.55763 0,5.04058 c -0.67384,-0.0321 -1.31732,-0.1624 -1.92255,-0.3822 z m 0.6345,0 1.92256,4.65838 c -0.6056,0.2198 -1.24971,0.35012 -1.92256,0.3822 z m -6.51768,1.32514 c 0.29485,0.62505 0.67585,1.20222 1.13783,1.71048 l -3.92625,3.93472 c -0.96997,-1.02302 -1.76806,-2.21008 -2.34769,-3.51493 z m 7.74626,0 0.52199,0.90536 0.88471,2.11774 c -0.0435,0.0199 -0.0844,0.0473 -0.12812,0.0689 z m -3.09479,0.003 -1.27545,3.08889 c -0.043,-0.0208 -0.086,-0.0481 -0.12812,-0.0689 l 0.8847,-2.11774 z m 7.77752,0.009 5.13609,2.13027 c -0.6081,1.29243 -1.4067,2.47938 -2.3758,3.5024 l -3.92625,-3.93472 c 0.45898,-0.50826 0.84422,-1.08368 1.16596,-1.69795 z m -9.27172,0.5639 -1.19108,1.61023 c -0.0729,-0.0629 -0.14824,-0.12244 -0.22187,-0.18797 z m 6.08319,0.003 1.41609,1.41913 c -0.072,0.0656 -0.14762,0.12507 -0.22501,0.18798 z m -7.65563,1.57578 c 0.0804,0.073 0.16699,0.1421 0.25011,0.20988 l -3.31041,4.4767 c -0.29997,-0.23547 -0.58884,-0.48734 -0.86597,-0.75186 z m 9.2312,0 3.92626,3.93784 c -0.27874,0.26366 -0.5661,0.5124 -0.86596,0.74874 l -3.31041,-4.47668 c 0.084,-0.0678 0.16863,-0.13696 0.25011,-0.20989 z m -16.33974,0.13784 c 0.60072,1.35622 1.43033,2.58689 2.43831,3.6465 l -0.72523,0.72993 c -0.2185,-0.52227 -0.7371,-0.89595 -1.3411,-0.89595 -0.37673,0 -0.71936,0.14435 -0.97533,0.37906 -0.32963,-0.44447 -0.62498,-0.90773 -0.90336,-1.3878 0.26513,-0.26278 0.42825,-0.62993 0.42825,-1.0338 l 0,-0.99308 z m 23.44517,0 1.08159,0.44485 0,0.99308 c 0,0.40386 0.16409,0.76877 0.42823,1.03066 -0.33962,0.58945 -0.71699,1.15385 -1.12846,1.68855 -0.25813,-0.40375 -0.70812,-0.67667 -1.22224,-0.67667 -0.48022,0 -0.9057,0.23395 -1.1692,0.59208 l -0.4251,-0.42605 c 1.00722,-1.05961 1.83469,-2.29028 2.43518,-3.6465 z m -14.76419,0.93356 c 0.045,0.024 0.0875,0.0505 0.13125,0.0721 l -2.12569,5.14082 c -0.0516,-0.0223 -0.10374,-0.0455 -0.15623,-0.069 z m 6.08319,0 2.15069,5.14395 c -0.0517,0.0235 -0.10062,0.0466 -0.15312,0.069 l -2.12882,-5.1408 c 0.046,-0.0216 0.088,-0.0481 0.13125,-0.0721 z m -5.36732,0.31326 c 0.63247,0.22883 1.30769,0.36791 2.01004,0.40099 l 0,5.56375 c -1.45644,-0.0347 -2.8489,-0.32029 -4.13886,-0.81764 z m 4.65459,0 2.12882,5.14396 c -1.28997,0.49898 -2.68318,0.78606 -4.13887,0.82078 l 0,-5.56375 c 0.70398,-0.0331 1.37721,-0.17216 2.01005,-0.40099 z m -6.88665,0.28196 -2.14131,3.71855 c -0.138,-0.0904 -0.27102,-0.18221 -0.40638,-0.27568 z m 9.1187,0 2.54769,3.44287 c -0.13288,0.0934 -0.27138,0.18521 -0.4095,0.27568 z m -9.44059,1.97364 -0.94408,2.25869 c -0.0908,-0.0497 -0.18087,-0.0998 -0.26887,-0.15037 z m 9.76247,0 1.21297,2.10832 c -0.088,0.0505 -0.179,0.10063 -0.26888,0.15037 z m -13.72008,0.59207 c 0.29123,0.27932 0.59911,0.54209 0.91598,0.79259 l -1.47234,1.99243 c -0.17299,-0.13522 -0.34012,-0.27481 -0.50649,-0.41666 l 0,-0.0156 0,-1.28756 z m 17.67771,0 0.60636,0.61089 c -0.0111,0.0746 -0.0156,0.14912 -0.0156,0.2287 l 0,1.51311 c 0,0.1253 0.0168,0.24873 0.047,0.36653 -0.0252,0.019 -0.0532,0.045 -0.0814,0.0658 l -1.47234,-1.99243 c 0.31675,-0.2505 0.62398,-0.51264 0.91598,-0.79259 z m -16.196,1.21551 c 0.14687,0.10276 0.29598,0.20301 0.4471,0.30074 l -1.23796,2.14593 c -0.23025,-0.14837 -0.45774,-0.29973 -0.68147,-0.45738 z m 14.71428,0 1.47234,1.99242 c -0.22475,0.1594 -0.45187,0.30889 -0.68459,0.45738 l -1.23798,-2.14906 c 0.15274,-0.0987 0.30213,-0.19798 0.45023,-0.30074 z m -13.66081,0.66728 c 0.10361,0.0606 0.20911,0.11352 0.31573,0.16916 l -0.49073,1.16225 c -0.35149,0.22468 -0.59837,0.59923 -0.65337,1.03693 -0.13685,-0.0756 -0.2741,-0.14523 -0.40636,-0.22243 z m 12.60734,0 1.23784,2.14591 c -0.13562,0.0772 -0.2751,0.14688 -0.40947,0.22243 -0.058,-0.4377 -0.30501,-0.81225 -0.65648,-1.03693 l -0.4845,-1.16225 c 0.10414,-0.0556 0.20825,-0.10863 0.31261,-0.16916 z m -11.66013,0.48557 c 0.0516,0.0226 0.10363,0.052 0.15951,0.0752 l -0.23451,0.56702 c -0.0604,-0.0124 -0.12151,-0.0195 -0.18449,-0.022 z m 10.71293,0 0.25947,0.62028 c -0.0614,0.003 -0.12411,0.01 -0.18448,0.022 l -0.23449,-0.56702 c 0.0535,-0.0222 0.10611,-0.0517 0.1595,-0.0752 z m -9.97207,0.31641 c 1.33846,0.51577 2.78617,0.81463 4.29835,0.8521 l 0,0.52944 c -0.64897,0.14497 -1.13483,0.72365 -1.13483,1.41599 l 0,0.46678 c -0.96035,-0.0902 -1.89507,-0.2698 -2.79466,-0.52943 l 0,-0.98054 c 0.001,-0.48659 -0.23787,-0.91753 -0.60637,-1.18105 z m 9.22808,0 0.2375,0.57329 c -0.36486,0.2644 -0.60636,0.69446 -0.60636,1.18105 l 0,0.98054 c -0.89973,0.25963 -1.83594,0.43921 -2.79468,0.52943 l 0,-0.46678 c 0,-0.69234 -0.48359,-1.27102 -1.13169,-1.41599 l 0,-0.52944 c 1.51144,-0.0375 2.95754,-0.33633 4.29523,-0.8521 z m -13.75146,0.94295 c 0.23876,0.17005 0.48399,0.33207 0.73462,0.48871 l -0.99085,1.71987 c -0.29737,-0.20726 -0.61185,-0.4045 -0.94722,-0.58269 z m 18.27794,0 3.0353,4.09762 -1.6912,0 -2.07871,-3.60891 c 0.24976,-0.15914 0.49438,-0.31866 0.73461,-0.48871 z m -16.93997,0.8521 c 0.21261,0.12168 0.43012,0.23822 0.65022,0.35088 l -0.91284,2.18038 c -0.22911,-0.25789 -0.48787,-0.50149 -0.76584,-0.73619 z m 15.5989,0 1.86931,3.24552 -1.30358,0 -1.21283,-2.89464 c 0.21834,-0.11266 0.43361,-0.23058 0.6471,-0.35088 z m -12.04463,1.47553 c 0.90047,0.25362 1.83594,0.42768 2.79466,0.51377 l 0,0.52316 c 0,0.80261 0.6486,1.45359 1.45046,1.45359 0.8001,0 1.45056,-0.65098 1.45056,-1.45359 l 0,-0.52316 c 0.95874,-0.0877 1.89333,-0.26103 2.79468,-0.51377 0.005,0.80073 0.65486,1.44732 1.45358,1.44732 0.62783,0 1.16271,-0.40387 1.36295,-0.96488 l 0.53762,1.28755 -1.00346,0 0,2.42787 -13.29497,0 c -0.0222,-0.86363 -0.32888,-1.71711 -0.86586,-2.50305 l 0.50636,-1.21237 c 0.20025,0.56101 0.73485,0.96488 1.36609,0.96488 0.79796,0 1.44233,-0.64659 1.44733,-1.44732 z m -10.69093,5.02805 c 1.08009,0.52228 2.04394,0.93242 2.9009,1.23743 l -5.71743,0 c 0.84908,-0.31152 1.78293,-0.71666 2.81653,-1.23743 z m -46.67157,2.49992 0.37212,0.3916 -0.0595,0.0563 -0.31263,0 z"
       id="path24"
       style="fill:#f0b54d;fill-opacity:1;fill-rule:nonzero;stroke:none" />
    <path
       d="m 350,743.55006 -350,0 0,24.48448 350,0 z"
       id="path3659"
       style="fill:#6d6e70;fill-opacity:1;fill-rule:nonzero;stroke:none" />
  </g>
</svg>
